<?xml version="1.0" standalone="no"?>
<!DOCTYPE svg PUBLIC "-//W3C//DTD SVG 20010904//EN"
 "http://www.w3.org/TR/2001/REC-SVG-20010904/DTD/svg10.dtd">
<svg version="1.0" xmlns="http://www.w3.org/2000/svg"
 width="500.000000pt" height="500.000000pt" viewBox="0 0 500.000000 500.000000"
 preserveAspectRatio="xMidYMid meet">
<metadata>
Created by potrace 1.14, written by Peter Selinger 2001-2017
</metadata>
<g transform="translate(0.000000,500.000000) scale(0.100000,-0.100000)"
fill="#000000" stroke="none">
<path d="M497 3306 c-2 -6 -3 -391 -3 -856 l1 -845 233 -3 232 -2 1 22 c0 13
0 170 0 351 l0 327 270 0 269 0 0 -350 0 -350 233 0 233 0 0 855 c0 593 -3
855 -10 856 -6 1 -111 2 -233 3 l-223 1 0 -317 0 -318 -269 0 -269 0 2 315 c0
173 -1 316 -4 316 -3 1 -107 2 -232 3 -153 2 -228 -1 -231 -8z"/>
<path d="M3036 3305 c-2 -6 -3 -390 -2 -855 l1 -845 233 -3 232 -2 0 350 0
350 268 -2 267 -3 2 -335 c1 -184 2 -341 2 -348 1 -10 51 -12 233 -10 l232 3
0 852 c1 560 -2 854 -9 856 -9 3 -443 1 -455 -2 -3 0 -5 -143 -4 -316 l1 -315
-268 0 -269 0 -2 317 -3 318 -227 0 c-146 0 -229 -4 -232 -10z"/>
<path d="M2433 2939 c-52 -10 -79 -24 -116 -58 -46 -42 -60 -79 -60 -156 0
-147 84 -226 242 -227 160 0 258 99 244 247 -8 79 -47 140 -107 170 -56 27
-138 37 -203 24z"/>
<path d="M2369 1992 c-79 -40 -112 -98 -113 -195 0 -79 17 -124 63 -165 89
-80 278 -80 359 -1 44 43 63 91 64 166 2 85 -30 147 -97 188 -43 27 -58 30
-136 32 -77 2 -93 -1 -140 -25z"/>
</g>
</svg>
