<?xml version="1.0" encoding="UTF-8"?>
<svg xmlns="http://www.w3.org/2000/svg" xmlns:xlink="http://www.w3.org/1999/xlink" width="375pt" height="374.999991pt" viewBox="0 0 375 374.999991" version="1.2">
<defs>
<clipPath id="clip1">
  <path d="M 82.90625 242 L 292.15625 242 L 292.15625 252.175781 L 82.90625 252.175781 Z M 82.90625 242 "/>
</clipPath>
<clipPath id="clip2">
  <path d="M 223 123.175781 L 259 123.175781 L 259 244 L 223 244 Z M 223 123.175781 "/>
</clipPath>
</defs>
<g id="surface1">
<path style=" stroke:none;fill-rule:nonzero;fill:rgb(8.239746%,12.159729%,16.859436%);fill-opacity:1;" d="M 318.839844 91.5625 L 318.839844 298.683594 C 318.839844 314.042969 306.421875 326.460938 291.058594 326.460938 L 83.941406 326.460938 C 68.578125 326.460938 56.160156 314.042969 56.160156 298.683594 L 56.160156 91.5625 C 56.160156 76.203125 68.578125 63.78125 83.941406 63.78125 L 291.058594 63.78125 C 306.421875 63.78125 318.839844 76.203125 318.839844 91.5625 Z M 318.839844 91.5625 "/>
<path style=" stroke:none;fill-rule:nonzero;fill:rgb(31.369019%,78.42865%,47.059631%);fill-opacity:1;" d="M 80.28125 295.140625 C 79.808594 295.140625 79.339844 295.1875 78.875 295.28125 C 78.410156 295.371094 77.960938 295.507812 77.523438 295.691406 C 77.089844 295.871094 76.671875 296.09375 76.28125 296.355469 C 75.886719 296.617188 75.523438 296.917969 75.1875 297.25 C 74.855469 297.585938 74.554688 297.949219 74.292969 298.34375 C 74.03125 298.734375 73.808594 299.148438 73.628906 299.585938 C 73.445312 300.023438 73.3125 300.472656 73.21875 300.9375 C 73.125 301.402344 73.078125 301.871094 73.078125 302.34375 C 73.078125 302.816406 73.125 303.28125 73.21875 303.746094 C 73.3125 304.210938 73.445312 304.660156 73.628906 305.097656 C 73.808594 305.535156 74.03125 305.949219 74.292969 306.34375 C 74.554688 306.734375 74.855469 307.097656 75.1875 307.433594 C 75.523438 307.765625 75.886719 308.066406 76.28125 308.328125 C 76.671875 308.589844 77.089844 308.8125 77.523438 308.992188 C 77.960938 309.175781 78.410156 309.3125 78.875 309.402344 C 79.339844 309.496094 79.808594 309.542969 80.28125 309.542969 C 80.753906 309.542969 81.222656 309.496094 81.683594 309.402344 C 82.148438 309.3125 82.597656 309.175781 83.035156 308.992188 C 83.472656 308.8125 83.886719 308.589844 84.28125 308.328125 C 84.671875 308.066406 85.035156 307.765625 85.371094 307.433594 C 85.707031 307.097656 86.003906 306.734375 86.265625 306.34375 C 86.527344 305.949219 86.75 305.535156 86.933594 305.097656 C 87.113281 304.660156 87.25 304.210938 87.339844 303.746094 C 87.433594 303.28125 87.480469 302.816406 87.480469 302.34375 C 87.480469 301.871094 87.433594 301.402344 87.339844 300.9375 C 87.25 300.472656 87.113281 300.023438 86.933594 299.585938 C 86.75 299.148438 86.527344 298.734375 86.265625 298.34375 C 86.003906 297.949219 85.707031 297.585938 85.371094 297.25 C 85.035156 296.917969 84.671875 296.617188 84.28125 296.355469 C 83.886719 296.09375 83.472656 295.871094 83.035156 295.691406 C 82.597656 295.507812 82.148438 295.371094 81.683594 295.28125 C 81.222656 295.1875 80.753906 295.140625 80.28125 295.140625 Z M 80.28125 80.703125 C 79.808594 80.703125 79.339844 80.75 78.875 80.839844 C 78.410156 80.933594 77.960938 81.070312 77.523438 81.25 C 77.089844 81.429688 76.671875 81.652344 76.28125 81.914062 C 75.886719 82.179688 75.523438 82.476562 75.1875 82.8125 C 74.855469 83.144531 74.554688 83.507812 74.292969 83.902344 C 74.03125 84.292969 73.808594 84.710938 73.628906 85.148438 C 73.445312 85.582031 73.3125 86.035156 73.21875 86.496094 C 73.125 86.960938 73.078125 87.429688 73.078125 87.902344 C 73.078125 88.375 73.125 88.84375 73.21875 89.304688 C 73.3125 89.769531 73.445312 90.21875 73.628906 90.65625 C 73.808594 91.09375 74.03125 91.507812 74.292969 91.902344 C 74.554688 92.296875 74.855469 92.660156 75.1875 92.992188 C 75.523438 93.328125 75.886719 93.625 76.28125 93.886719 C 76.671875 94.152344 77.089844 94.371094 77.523438 94.554688 C 77.960938 94.734375 78.410156 94.871094 78.875 94.964844 C 79.339844 95.054688 79.808594 95.101562 80.28125 95.101562 C 80.753906 95.101562 81.222656 95.054688 81.683594 94.964844 C 82.148438 94.871094 82.597656 94.734375 83.035156 94.554688 C 83.472656 94.371094 83.886719 94.152344 84.28125 93.886719 C 84.671875 93.625 85.035156 93.328125 85.371094 92.992188 C 85.707031 92.660156 86.003906 92.296875 86.265625 91.902344 C 86.527344 91.507812 86.75 91.09375 86.933594 90.65625 C 87.113281 90.21875 87.25 89.769531 87.339844 89.304688 C 87.433594 88.84375 87.480469 88.375 87.480469 87.902344 C 87.480469 87.429688 87.433594 86.960938 87.339844 86.496094 C 87.25 86.035156 87.113281 85.582031 86.933594 85.148438 C 86.75 84.710938 86.527344 84.292969 86.265625 83.902344 C 86.003906 83.507812 85.707031 83.144531 85.371094 82.8125 C 85.035156 82.476562 84.671875 82.179688 84.28125 81.914062 C 83.886719 81.652344 83.472656 81.429688 83.035156 81.25 C 82.597656 81.070312 82.148438 80.933594 81.683594 80.839844 C 81.222656 80.75 80.753906 80.703125 80.28125 80.703125 Z M 294.71875 80.703125 C 294.246094 80.703125 293.777344 80.75 293.316406 80.839844 C 292.851562 80.933594 292.402344 81.070312 291.964844 81.25 C 291.527344 81.429688 291.113281 81.652344 290.71875 81.914062 C 290.328125 82.179688 289.964844 82.476562 289.628906 82.8125 C 289.292969 83.144531 288.996094 83.507812 288.734375 83.902344 C 288.472656 84.292969 288.25 84.710938 288.066406 85.148438 C 287.886719 85.582031 287.75 86.035156 287.660156 86.496094 C 287.566406 86.960938 287.519531 87.429688 287.519531 87.902344 C 287.519531 88.375 287.566406 88.84375 287.660156 89.304688 C 287.75 89.769531 287.886719 90.21875 288.066406 90.65625 C 288.25 91.09375 288.472656 91.507812 288.734375 91.902344 C 288.996094 92.296875 289.292969 92.660156 289.628906 92.992188 C 289.964844 93.328125 290.328125 93.625 290.71875 93.886719 C 291.113281 94.152344 291.527344 94.371094 291.964844 94.554688 C 292.402344 94.734375 292.851562 94.871094 293.316406 94.964844 C 293.777344 95.054688 294.246094 95.101562 294.71875 95.101562 C 295.191406 95.101562 295.660156 95.054688 296.125 94.964844 C 296.589844 94.871094 297.039062 94.734375 297.476562 94.554688 C 297.910156 94.371094 298.328125 94.152344 298.71875 93.886719 C 299.113281 93.625 299.476562 93.328125 299.8125 92.992188 C 300.144531 92.660156 300.445312 92.296875 300.707031 91.902344 C 300.96875 91.507812 301.191406 91.09375 301.371094 90.65625 C 301.554688 90.21875 301.6875 89.769531 301.78125 89.304688 C 301.875 88.84375 301.921875 88.375 301.921875 87.902344 C 301.921875 87.429688 301.875 86.960938 301.78125 86.496094 C 301.6875 86.035156 301.554688 85.582031 301.371094 85.148438 C 301.191406 84.710938 300.96875 84.292969 300.707031 83.902344 C 300.445312 83.507812 300.144531 83.144531 299.8125 82.8125 C 299.476562 82.476562 299.113281 82.179688 298.71875 81.914062 C 298.328125 81.652344 297.910156 81.429688 297.476562 81.25 C 297.039062 81.070312 296.589844 80.933594 296.125 80.839844 C 295.660156 80.75 295.191406 80.703125 294.71875 80.703125 Z M 294.71875 295.140625 C 294.246094 295.140625 293.777344 295.1875 293.316406 295.28125 C 292.851562 295.371094 292.402344 295.507812 291.964844 295.691406 C 291.527344 295.871094 291.113281 296.09375 290.71875 296.355469 C 290.328125 296.617188 289.964844 296.917969 289.628906 297.25 C 289.292969 297.585938 288.996094 297.949219 288.734375 298.34375 C 288.472656 298.734375 288.25 299.148438 288.066406 299.585938 C 287.886719 300.023438 287.75 300.472656 287.660156 300.9375 C 287.566406 301.402344 287.519531 301.871094 287.519531 302.34375 C 287.519531 302.816406 287.566406 303.28125 287.660156 303.746094 C 287.75 304.210938 287.886719 304.660156 288.066406 305.097656 C 288.25 305.535156 288.472656 305.949219 288.734375 306.34375 C 288.996094 306.734375 289.292969 307.097656 289.628906 307.433594 C 289.964844 307.765625 290.328125 308.066406 290.71875 308.328125 C 291.113281 308.589844 291.527344 308.8125 291.964844 308.992188 C 292.402344 309.175781 292.851562 309.3125 293.316406 309.402344 C 293.777344 309.496094 294.246094 309.542969 294.71875 309.542969 C 295.191406 309.542969 295.660156 309.496094 296.125 309.402344 C 296.589844 309.3125 297.039062 309.175781 297.476562 308.992188 C 297.910156 308.8125 298.328125 308.589844 298.71875 308.328125 C 299.113281 308.066406 299.476562 307.765625 299.8125 307.433594 C 300.144531 307.097656 300.445312 306.734375 300.707031 306.34375 C 300.96875 305.949219 301.191406 305.535156 301.371094 305.097656 C 301.554688 304.660156 301.6875 304.210938 301.78125 303.746094 C 301.875 303.28125 301.921875 302.816406 301.921875 302.34375 C 301.921875 301.871094 301.875 301.402344 301.78125 300.9375 C 301.6875 300.472656 301.554688 300.023438 301.371094 299.585938 C 301.191406 299.148438 300.96875 298.734375 300.707031 298.34375 C 300.445312 297.949219 300.144531 297.585938 299.8125 297.25 C 299.476562 296.917969 299.113281 296.617188 298.71875 296.355469 C 298.328125 296.09375 297.910156 295.871094 297.476562 295.691406 C 297.039062 295.507812 296.589844 295.371094 296.125 295.28125 C 295.660156 295.1875 295.191406 295.140625 294.71875 295.140625 Z M 294.71875 295.140625 "/>
<path style=" stroke:none;fill-rule:nonzero;fill:rgb(31.369019%,78.42865%,47.059631%);fill-opacity:1;" d="M 337.5 95.101562 L 337.5 71.820312 C 331.980469 69.722656 326.398438 66.121094 321.421875 61.203125 C 316.5 56.222656 312.898438 50.640625 310.800781 45.121094 L 64.199219 45.121094 C 62.101562 50.640625 58.5 56.222656 53.578125 61.203125 C 48.601562 66.121094 43.019531 69.722656 37.5 71.820312 L 37.5 318.421875 C 38.878906 318.960938 40.261719 319.5625 41.640625 320.28125 C 42 320.460938 42.300781 320.640625 42.660156 320.820312 C 42.898438 320.941406 43.140625 321.0625 43.378906 321.242188 C 43.441406 321.242188 43.5 321.300781 43.558594 321.363281 C 43.738281 321.421875 43.859375 321.542969 44.039062 321.660156 C 45.78125 322.742188 47.519531 323.941406 49.261719 325.261719 C 49.558594 325.5 49.859375 325.742188 50.160156 326.042969 C 50.398438 326.222656 50.578125 326.402344 50.761719 326.582031 C 51.359375 327.121094 51.960938 327.660156 52.558594 328.261719 C 52.859375 328.5625 53.160156 328.863281 53.519531 329.160156 C 53.820312 329.460938 54.121094 329.761719 54.421875 330.121094 C 54.960938 330.722656 55.558594 331.320312 56.101562 331.921875 C 56.28125 332.160156 56.460938 332.34375 56.640625 332.582031 L 57.359375 333.480469 C 57.539062 333.660156 57.660156 333.902344 57.839844 334.082031 C 58.140625 334.441406 58.441406 334.863281 58.738281 335.222656 C 59.101562 335.703125 59.398438 336.183594 59.699219 336.601562 C 60.601562 337.980469 61.441406 339.363281 62.21875 340.800781 C 62.339844 341.042969 62.460938 341.222656 62.519531 341.460938 L 62.699219 341.820312 C 62.820312 342.0625 62.941406 342.300781 63 342.480469 C 63.421875 343.382812 63.839844 344.28125 64.140625 345.242188 L 310.738281 345.242188 C 312.839844 339.722656 316.441406 334.140625 321.359375 329.160156 C 323.21875 327.300781 325.140625 325.621094 327.179688 324.183594 C 328.199219 323.460938 329.21875 322.742188 330.238281 322.140625 C 330.898438 321.722656 331.621094 321.300781 332.28125 320.941406 C 332.941406 320.582031 333.660156 320.222656 334.320312 319.863281 C 335.339844 319.382812 336.421875 318.902344 337.441406 318.542969 Z M 318.839844 298.683594 C 318.839844 314.042969 306.421875 326.460938 291.058594 326.460938 L 83.941406 326.460938 C 68.578125 326.460938 56.160156 314.042969 56.160156 298.683594 L 56.160156 91.5625 C 56.160156 76.203125 68.578125 63.78125 83.941406 63.78125 L 291.058594 63.78125 C 306.421875 63.78125 318.839844 76.203125 318.839844 91.5625 Z M 318.839844 298.683594 "/>
<path style=" stroke:none;fill-rule:nonzero;fill:rgb(31.369019%,78.42865%,47.059631%);fill-opacity:1;" d="M 175.285156 231.738281 C 169.09375 229.917969 144.945312 229.722656 143.535156 226.820312 C 146.699219 225.414062 141.207031 210.109375 142.058594 209.953125 C 143.761719 209.644531 143.039062 223.128906 143.535156 226.820312 C 145.363281 227.222656 155.46875 228.546875 158.417969 228.75 C 158.722656 220.878906 153.097656 205.703125 153.679688 193.097656 C 154.007812 185.976562 153.210938 178.710938 150.5625 172.097656 C 150.195312 171.175781 149.792969 170.273438 149.390625 169.371094 C 145.183594 174.640625 134.84375 178.894531 128.3125 180.507812 C 127.210938 180.777344 128.070312 180.039062 127.210938 180.777344 C 125.972656 181.847656 127.167969 193.378906 127.050781 195.011719 C 126.59375 201.347656 123.21875 233.914062 123.910156 235.496094 C 124.222656 236.214844 126.652344 239.960938 127.339844 240.324219 C 132.375 242.992188 165.546875 241.554688 172.867188 241.984375 C 171.453125 239.117188 173.042969 233.074219 175.285156 231.738281 "/>
<path style=" stroke:none;fill-rule:nonzero;fill:rgb(31.369019%,78.42865%,47.059631%);fill-opacity:1;" d="M 167.566406 202.316406 L 167.808594 203.921875 L 161.496094 205.226562 C 161.613281 207.425781 164.28125 227.003906 164.558594 229.1875 C 165.78125 229.265625 168.0625 229.605469 171.953125 229.828125 C 172.648438 226.597656 170.117188 217.566406 170.351562 214.082031 C 171.023438 204.160156 168.964844 184.742188 158.929688 179.515625 C 159.089844 178.066406 160.527344 176.804688 161.5625 175.777344 C 162.347656 175.8125 163.164062 175.863281 163.835938 176.269531 C 164.503906 176.679688 164.949219 177.566406 164.601562 178.269531 C 161.628906 184.214844 162.246094 192.890625 161.691406 199.707031 C 161.589844 200.96875 161.488281 202.230469 161.464844 203.496094 L 167.566406 202.316406 "/>
<g clip-path="url(#clip1)" clip-rule="nonzero">
<path style=" stroke:none;fill-rule:nonzero;fill:rgb(31.369019%,78.42865%,47.059631%);fill-opacity:1;" d="M 289.101562 251.425781 L 85.980469 252.128906 C 84.296875 252.132812 82.914062 250.757812 82.910156 249.074219 L 82.898438 246.621094 C 82.894531 244.933594 84.265625 243.550781 85.949219 243.542969 L 289.074219 242.84375 C 290.757812 242.835938 292.136719 244.210938 292.144531 245.898438 L 292.148438 248.351562 C 292.15625 250.039062 290.785156 251.421875 289.101562 251.425781 "/>
</g>
<path style=" stroke:none;fill-rule:nonzero;fill:rgb(31.369019%,78.42865%,47.059631%);fill-opacity:1;" d="M 182.398438 241.066406 C 181.679688 240.722656 180.28125 239.585938 179.957031 239.152344 C 179.523438 238.570312 178.792969 237.832031 178.433594 237.039062 C 177.417969 234.789062 177.0625 232.425781 177.0625 232.425781 C 176.746094 232.285156 176.617188 232.21875 176.101562 232.175781 C 175.535156 232.125 174.996094 232.433594 174.738281 232.945312 C 174.664062 233.097656 174.578125 233.257812 174.488281 233.429688 C 174.042969 234.277344 173.4375 235.441406 173.113281 236.785156 C 172.875 237.789062 173.386719 241.328125 173.929688 241.65625 C 174.261719 241.859375 176.078125 241.910156 177.855469 241.910156 C 179.707031 241.910156 181.515625 241.855469 181.554688 241.855469 C 181.714844 241.847656 182.695312 241.707031 182.730469 241.546875 C 182.761719 241.386719 182.550781 241.136719 182.398438 241.066406 "/>
<path style=" stroke:none;fill-rule:nonzero;fill:rgb(31.369019%,78.42865%,47.059631%);fill-opacity:1;" d="M 196.738281 243.207031 L 183.828125 243.207031 L 183.828125 227.304688 L 196.738281 227.304688 L 196.738281 243.207031 "/>
<path style=" stroke:none;fill-rule:nonzero;fill:rgb(31.369019%,78.42865%,47.059631%);fill-opacity:1;" d="M 181.910156 230.433594 C 181.976562 230.957031 182.042969 231.476562 182.109375 232 C 182.699219 231.714844 183.289062 231.433594 183.882812 231.148438 C 182.171875 229.703125 178.371094 229.117188 177.835938 232.15625 C 177.574219 233.628906 178.613281 235.414062 179.15625 236.71875 C 179.820312 238.3125 180.644531 239.191406 182.164062 240.027344 C 182.652344 240.292969 183.699219 240.21875 183.894531 239.5625 C 184.121094 238.808594 184.226562 238.214844 184.195312 237.417969 C 184.148438 236.363281 182.125 236.667969 182.164062 237.566406 C 182.238281 238.164062 182.179688 238.753906 181.980469 239.328125 C 182.554688 239.171875 183.132812 239.019531 183.710938 238.863281 C 182.128906 238 181.480469 236.988281 180.824219 235.328125 C 180.589844 234.734375 180.160156 234.03125 180.070312 233.398438 C 179.683594 232.609375 180.003906 231.960938 181.035156 231.449219 C 181.527344 231.65625 181.960938 231.945312 182.339844 232.3125 C 182.921875 232.804688 184.210938 232.253906 184.113281 231.460938 C 184.046875 230.9375 183.980469 230.417969 183.914062 229.894531 C 183.796875 228.972656 181.789062 229.464844 181.910156 230.433594 "/>
<path style=" stroke:none;fill-rule:nonzero;fill:rgb(31.369019%,78.42865%,47.059631%);fill-opacity:1;" d="M 190.914062 225.277344 C 190.992188 224.761719 191.113281 224.296875 191.125 223.867188 C 191.148438 223.441406 191.0625 223.097656 190.917969 222.96875 C 190.84375 222.890625 190.785156 222.867188 190.652344 222.773438 C 190.515625 222.691406 190.320312 222.570312 190.074219 222.375 C 189.535156 221.957031 189.175781 221.285156 189.039062 220.664062 C 188.773438 219.402344 189.207031 218.183594 189.824219 217.347656 C 190.453125 216.496094 191.527344 216.234375 192.339844 215.609375 C 192.28125 216.65625 191.511719 217.28125 191.269531 218.097656 C 191.148438 218.519531 191.054688 218.875 191.027344 219.234375 C 190.988281 219.59375 191.003906 219.933594 191.066406 220.222656 C 191.132812 220.511719 191.21875 220.71875 191.394531 220.921875 C 191.492188 221.046875 191.679688 221.199219 191.886719 221.433594 C 192.101562 221.65625 192.335938 222.015625 192.429688 222.375 C 192.632812 223.136719 192.800781 223.78125 192.5 224.222656 C 191.777344 225.277344 191.367188 225.019531 190.914062 225.277344 "/>
<path style=" stroke:none;fill-rule:nonzero;fill:rgb(10.5896%,15.289307%,21.179199%);fill-opacity:1;" d="M 194.105469 240.617188 L 193.886719 240.617188 C 193.421875 240.617188 193.046875 240.238281 193.046875 239.773438 L 193.046875 229.59375 C 193.046875 229.132812 193.421875 228.75 193.886719 228.75 L 194.105469 228.75 C 194.570312 228.75 194.945312 229.132812 194.945312 229.59375 L 194.945312 239.773438 C 194.945312 240.238281 194.570312 240.617188 194.105469 240.617188 "/>
<g clip-path="url(#clip2)" clip-rule="nonzero">
<path style=" stroke:none;fill-rule:nonzero;fill:rgb(31.369019%,78.42865%,47.059631%);fill-opacity:1;" d="M 257.273438 225.453125 C 257.234375 225.34375 257.160156 225.246094 257.058594 225.183594 C 255.886719 224.449219 248.269531 219.535156 247.140625 215.300781 C 246.59375 213.234375 245.734375 210.496094 244.957031 208.109375 L 244.953125 207.539062 C 245.171875 207.332031 245.414062 207.078125 245.6875 206.742188 C 247.1875 204.898438 247.222656 201.324219 246.730469 197.714844 C 246.714844 197.609375 246.734375 197.507812 246.777344 197.410156 C 246.925781 197.113281 247.046875 196.769531 247.148438 196.363281 C 247.324219 196.320312 247.496094 196.277344 247.660156 196.222656 C 249.992188 196.558594 251.96875 196.382812 251.105469 194.511719 C 250.828125 193.902344 250.292969 193.4375 249.589844 193.085938 C 249.472656 193.03125 249.386719 192.929688 249.335938 192.808594 C 248.992188 191.992188 248.351562 191.460938 247.695312 191.125 C 247.527344 191.039062 247.425781 190.855469 247.417969 190.667969 C 247.304688 188.550781 247.007812 186.941406 246.574219 185.6875 C 247.269531 184.992188 248.117188 183.738281 248.769531 183.1875 C 249.59375 182.492188 250.183594 182.671875 251.113281 182.136719 C 251.613281 181.84375 251.917969 181.304688 251.898438 180.726562 C 251.867188 179.875 251.707031 179.042969 251.128906 178.390625 C 250.671875 177.867188 249.941406 177.601562 249.277344 177.816406 C 248.511719 178.0625 248.355469 178.734375 248.152344 179.34375 C 247.664062 180.804688 246.664062 182.355469 245.347656 183.351562 C 245.1875 183.148438 245.023438 182.964844 244.855469 182.792969 C 244.753906 182.695312 244.695312 182.5625 244.695312 182.421875 L 244.683594 181.222656 C 244.683594 181.132812 244.703125 181.046875 244.742188 180.96875 C 244.984375 180.511719 245.238281 180.035156 245.515625 179.535156 C 245.617188 179.347656 245.59375 179.121094 245.472656 178.949219 C 245.191406 178.554688 244.929688 178.074219 244.691406 177.539062 C 244.660156 177.46875 244.644531 177.394531 244.644531 177.320312 L 244.578125 171.023438 C 244.578125 170.902344 244.617188 170.785156 244.6875 170.691406 C 244.941406 170.367188 245.210938 170.007812 245.5 169.621094 C 245.617188 169.46875 245.648438 169.265625 245.570312 169.09375 C 245.355469 168.613281 245.039062 168.109375 244.648438 167.59375 C 244.582031 167.507812 244.542969 167.394531 244.542969 167.28125 L 244.511719 164.324219 C 244.507812 164.199219 244.554688 164.074219 244.636719 163.980469 C 245.109375 163.40625 245.375 162.804688 245.519531 162.359375 C 245.632812 162.015625 245.375 161.660156 245.011719 161.660156 C 244.71875 161.660156 244.480469 161.425781 244.476562 161.132812 L 244.425781 155.890625 C 244.425781 155.84375 244.429688 155.800781 244.4375 155.753906 C 245.484375 151.46875 247.105469 145.980469 249.070312 143.398438 C 249.191406 143.234375 249.230469 143.015625 249.132812 142.832031 C 248.828125 142.238281 248.40625 141.753906 247.914062 141.359375 C 247.574219 141.089844 247.675781 140.550781 248.09375 140.425781 C 252.21875 139.207031 254.210938 138.3125 255.164062 137.710938 C 255.617188 137.425781 255.417969 136.726562 254.878906 136.726562 L 246.425781 136.726562 C 245.9375 136.726562 245.710938 136.121094 246.074219 135.789062 C 246.375 135.511719 246.613281 135.246094 246.804688 134.984375 C 248.140625 133.109375 246.695312 131.617188 245.535156 130.507812 C 245.277344 130.261719 245.332031 129.835938 245.640625 129.660156 C 249.328125 127.554688 249.675781 124.894531 249.636719 123.789062 C 249.628906 123.5 249.394531 123.269531 249.101562 123.269531 L 232.980469 123.269531 C 232.691406 123.269531 232.453125 123.5 232.449219 123.789062 C 232.410156 124.894531 232.753906 127.554688 236.445312 129.660156 C 236.753906 129.835938 236.804688 130.261719 236.550781 130.507812 C 235.390625 131.617188 233.945312 133.109375 235.28125 134.984375 C 235.46875 135.246094 235.707031 135.511719 236.011719 135.789062 C 236.371094 136.121094 236.148438 136.726562 235.660156 136.726562 L 227.203125 136.726562 C 226.667969 136.726562 226.464844 137.425781 226.917969 137.710938 C 227.871094 138.3125 229.863281 139.207031 233.992188 140.425781 C 234.410156 140.550781 234.507812 141.089844 234.171875 141.359375 C 233.675781 141.753906 233.257812 142.238281 232.949219 142.832031 C 232.855469 143.015625 232.886719 143.234375 233.015625 143.398438 C 234.976562 145.980469 236.601562 151.46875 237.644531 155.753906 C 237.65625 155.800781 237.660156 155.84375 237.660156 155.890625 L 237.605469 161.132812 C 237.601562 161.425781 237.363281 161.660156 237.074219 161.660156 C 236.710938 161.660156 236.449219 162.015625 236.566406 162.359375 C 236.707031 162.804688 236.972656 163.40625 237.449219 163.980469 C 237.527344 164.074219 237.574219 164.199219 237.574219 164.324219 L 237.542969 167.28125 C 237.542969 167.394531 237.503906 167.507812 237.433594 167.59375 C 237.046875 168.109375 236.726562 168.613281 236.511719 169.09375 C 236.433594 169.265625 236.46875 169.46875 236.582031 169.621094 C 236.871094 170.007812 237.140625 170.367188 237.394531 170.691406 C 237.46875 170.785156 237.507812 170.902344 237.503906 171.023438 L 237.441406 177.320312 C 237.441406 177.394531 237.421875 177.46875 237.390625 177.539062 C 237.152344 178.074219 236.890625 178.554688 236.613281 178.949219 C 236.488281 179.121094 236.464844 179.347656 236.570312 179.535156 C 236.847656 180.035156 237.101562 180.511719 237.339844 180.96875 C 237.382812 181.046875 237.402344 181.132812 237.402344 181.222656 L 237.386719 182.421875 C 237.386719 182.5625 237.332031 182.695312 237.230469 182.792969 C 237.058594 182.964844 236.890625 183.152344 236.734375 183.355469 C 235.910156 182.957031 235.132812 182.453125 234.4375 181.789062 C 234.277344 181.636719 234.117188 181.472656 234.0625 181.257812 C 233.921875 180.726562 234.46875 180.257812 234.519531 179.710938 C 234.574219 179.152344 234.050781 178.65625 233.488281 178.578125 C 232.929688 178.503906 232.375 178.753906 231.914062 179.078125 C 231.253906 179.546875 230.726562 180.195312 230.382812 180.929688 C 230.089844 181.542969 230.511719 182.234375 231.179688 182.335938 C 232.664062 182.5625 234.054688 183.425781 234.867188 184.695312 C 235.085938 185.03125 235.273438 185.394531 235.5 185.71875 C 235.070312 186.964844 234.777344 188.566406 234.667969 190.667969 C 234.65625 190.855469 234.554688 191.039062 234.386719 191.125 C 233.734375 191.460938 233.089844 191.992188 232.746094 192.808594 C 232.699219 192.929688 232.605469 193.03125 232.492188 193.085938 C 231.792969 193.4375 231.257812 193.902344 230.976562 194.511719 C 230.113281 196.382812 232.09375 196.558594 234.425781 196.222656 C 234.585938 196.277344 234.757812 196.320312 234.933594 196.363281 C 235.035156 196.769531 235.160156 197.113281 235.304688 197.410156 C 235.351562 197.507812 235.371094 197.609375 235.355469 197.714844 C 234.863281 201.324219 234.898438 204.898438 236.394531 206.742188 C 236.667969 207.078125 236.910156 207.332031 237.132812 207.539062 L 237.128906 208.109375 C 236.347656 210.496094 235.492188 213.234375 234.941406 215.300781 C 233.816406 219.535156 226.199219 224.449219 225.027344 225.183594 C 224.925781 225.246094 224.851562 225.34375 224.808594 225.453125 C 224.355469 226.707031 221.800781 234.265625 224.875 237.039062 C 228.230469 240.070312 229.144531 243.207031 232.5 243.207031 C 233.511719 243.207031 235.074219 243.207031 236.769531 243.207031 C 240.695312 243.207031 245.3125 243.207031 245.3125 243.207031 C 247.007812 243.207031 248.570312 243.207031 249.582031 243.207031 C 252.9375 243.207031 253.851562 240.070312 257.207031 237.039062 C 260.28125 234.265625 257.722656 226.707031 257.273438 225.453125 "/>
</g>
<path style=" stroke:none;fill-rule:nonzero;fill:rgb(31.369019%,78.42865%,47.059631%);fill-opacity:1;" d="M 250.953125 179.914062 C 252.855469 176.8125 256.277344 175.84375 259.746094 175.796875 C 263.503906 175.742188 265.144531 178.617188 266.179688 181.957031 C 268.25 188.617188 263.714844 193.121094 257.925781 195.410156 C 251.625 197.898438 245.074219 198.558594 238.386719 199.027344 C 233.199219 199.390625 228.339844 200.410156 223.378906 201.972656 C 219.714844 203.125 215.773438 204.457031 213.09375 207.363281 C 210.320312 210.378906 209.160156 215.628906 209.40625 219.660156 C 209.628906 223.308594 213.148438 224.488281 216.308594 223.816406 C 219.835938 223.066406 223.777344 219.976562 225.675781 216.976562 C 228.347656 212.753906 226.707031 206.246094 224.296875 202.289062 C 221.644531 197.941406 217.257812 195.28125 212.277344 194.59375 C 211.675781 194.511719 209.421875 195.519531 210.699219 195.699219 C 216.320312 196.472656 220.96875 200.246094 223.105469 205.496094 C 224 207.695312 224.46875 210.097656 224.453125 212.472656 C 224.4375 215.898438 222.984375 218.039062 220.472656 220.21875 C 218.847656 221.632812 216.980469 223.144531 214.640625 222.726562 C 213.246094 222.476562 212.269531 221.167969 211.964844 219.890625 C 211.429688 217.625 212.253906 214.25 212.863281 212.03125 C 214.613281 205.640625 220.410156 203.785156 226.136719 202.097656 C 232.015625 200.363281 237.898438 200.285156 243.9375 199.640625 C 248.726562 199.136719 253.476562 198.0625 258.003906 196.402344 C 261.554688 195.097656 265.320312 193.261719 267.539062 190.066406 C 270.140625 186.324219 269.335938 181.820312 267.210938 178.050781 C 266.269531 176.378906 265.40625 175.125 263.433594 174.789062 C 261.542969 174.46875 259.425781 174.664062 257.554688 174.96875 C 253.90625 175.5625 250.488281 177.074219 248.503906 180.316406 C 248.265625 180.703125 250.554688 180.566406 250.953125 179.914062 "/>
<path style=" stroke:none;fill-rule:nonzero;fill:rgb(31.369019%,78.42865%,47.059631%);fill-opacity:1;" d="M 166.128906 165.699219 C 165.855469 165.394531 165.628906 165.0625 165.414062 164.734375 L 164.308594 163.074219 C 163.910156 162.886719 163.402344 162.628906 163.011719 162.152344 C 162.351562 161.347656 162.320312 160.230469 162.933594 159.496094 C 163.117188 159.277344 164.0625 158.480469 164.300781 158.339844 C 164.585938 158.171875 164.914062 158.082031 165.253906 158.082031 C 165.867188 158.082031 166.480469 158.371094 166.898438 158.851562 C 167.308594 159.320312 167.476562 159.863281 167.589844 160.289062 L 169.042969 161.652344 C 169.328125 161.921875 169.617188 162.199219 169.871094 162.519531 C 170.3125 162.558594 170.75 162.699219 171.15625 162.917969 C 171.671875 163.203125 172.3125 162.984375 172.507812 162.425781 C 172.992188 161.085938 173.125 159.554688 172.699219 157.820312 C 172.367188 156.5 172.375 155.089844 172.125 153.75 C 171.941406 152.785156 171.75 151.792969 171.097656 150.957031 C 170.78125 150.554688 170.382812 148.253906 170.683594 147.53125 C 171.367188 145.914062 171.308594 144.121094 170.519531 142.53125 C 170.121094 141.734375 171.203125 138.496094 172.050781 139.050781 C 171.777344 137.902344 171.5 136.753906 171.226562 135.605469 C 167.027344 132.519531 161.742188 129.652344 155.941406 130.03125 C 153.0625 130.21875 150.390625 131.195312 147.792969 132.15625 C 145.542969 132.988281 142.949219 134.222656 143.003906 136.132812 C 143.027344 136.828125 141.4375 138.722656 140.730469 139.039062 C 139.074219 139.785156 139.257812 141.640625 139.785156 143.050781 C 140.570312 145.148438 143.265625 148.238281 143.578125 150.351562 C 143.925781 152.714844 141.335938 149.472656 144.5625 155.769531 C 145.375 157.355469 146.859375 158.675781 148.839844 159.207031 C 151.363281 161.890625 150.953125 165.753906 153.613281 168.355469 C 155.214844 169.925781 157.863281 170.828125 160.457031 170.695312 C 161.769531 170.625 163.0625 170.304688 164.269531 169.789062 C 164.640625 169.628906 165.339844 169.320312 166.1875 168.863281 C 166.636719 168.621094 166.808594 168.058594 166.5625 167.613281 C 166.234375 167.007812 166.078125 166.339844 166.128906 165.699219 "/>
<path style=" stroke:none;fill-rule:nonzero;fill:rgb(31.369019%,78.42865%,47.059631%);fill-opacity:1;" d="M 186.113281 185.429688 C 186.261719 185.363281 186.425781 185.265625 186.433594 185.105469 C 186.4375 185.019531 186.394531 184.941406 186.34375 184.871094 C 186.46875 184.59375 186.566406 184.308594 186.636719 184.015625 C 186.585938 183.910156 186.527344 183.808594 186.46875 183.707031 C 186.46875 183.699219 186.46875 183.691406 186.46875 183.683594 C 186.457031 183.578125 186.390625 183.496094 186.324219 183.417969 C 186.207031 183.277344 186.089844 183.136719 185.972656 182.992188 C 185.851562 182.84375 185.730469 182.691406 185.609375 182.542969 C 184.871094 181.648438 184.136719 180.75 183.398438 179.855469 C 183.289062 179.722656 183.179688 179.589844 183.039062 179.496094 C 182.886719 179.335938 182.722656 179.191406 182.535156 179.089844 C 182.320312 178.972656 182.15625 178.785156 182.105469 178.542969 C 182.0625 178.347656 181.988281 178.164062 181.875 177.996094 C 181.765625 177.835938 181.605469 177.714844 181.425781 177.628906 C 181.628906 177.386719 181.554688 176.945312 181.367188 176.652344 C 181.042969 176.152344 180.5 175.808594 179.914062 175.691406 C 179.703125 175.648438 179.5 175.710938 179.335938 175.824219 L 178.914062 175.320312 C 179.230469 174.644531 179.421875 173.914062 179.058594 173.300781 C 178.785156 172.835938 178.234375 172.574219 177.695312 172.542969 C 177.582031 172.535156 177.464844 172.539062 177.351562 172.550781 C 176.910156 172.589844 176.527344 172.277344 176.496094 171.832031 C 176.480469 171.613281 176.421875 171.40625 176.308594 171.214844 C 176.097656 170.855469 175.71875 170.621094 175.308594 170.542969 C 174.976562 170.484375 174.71875 170.238281 174.660156 169.898438 C 174.574219 169.386719 174.382812 168.898438 174.085938 168.476562 C 174.03125 168.398438 173.96875 168.320312 173.878906 168.296875 C 173.8125 168.28125 173.742188 168.292969 173.675781 168.316406 C 173.59375 168.34375 173.515625 168.378906 173.445312 168.421875 C 173.175781 168.582031 172.867188 168.570312 172.628906 168.421875 C 172.582031 168.394531 172.539062 168.363281 172.5 168.324219 C 172.4375 168.269531 172.382812 168.207031 172.34375 168.128906 C 172.296875 168.03125 172.253906 167.9375 172.203125 167.84375 C 172.273438 167.8125 172.332031 167.773438 172.367188 167.707031 C 172.433594 167.582031 172.40625 167.429688 172.375 167.292969 C 172.191406 166.4375 171.996094 165.554688 171.5 164.832031 C 171.003906 164.113281 170.125 163.585938 169.269531 163.769531 C 169.257812 163.769531 169.25 163.777344 169.238281 163.78125 C 169.007812 163.308594 168.601562 162.914062 168.210938 162.546875 C 167.640625 162.011719 167.070312 161.472656 166.5 160.9375 C 166.484375 160.871094 166.464844 160.804688 166.445312 160.738281 C 166.347656 160.351562 166.238281 159.957031 165.976562 159.65625 C 165.71875 159.359375 165.257812 159.195312 164.917969 159.394531 C 164.796875 159.464844 163.960938 160.175781 163.871094 160.28125 C 163.617188 160.585938 163.703125 161.070312 163.953125 161.375 C 164.203125 161.679688 164.578125 161.851562 164.9375 162.015625 C 165.003906 162.042969 165.066406 162.074219 165.132812 162.101562 C 165.5625 162.753906 165.996094 163.40625 166.429688 164.058594 C 166.722656 164.503906 167.046875 164.972656 167.472656 165.277344 C 167.46875 165.289062 167.460938 165.296875 167.453125 165.308594 C 167.132812 166.121094 167.507812 167.082031 168.132812 167.691406 C 168.761719 168.300781 169.59375 168.636719 170.40625 168.960938 C 170.539062 169.011719 170.679688 169.066406 170.816406 169.023438 C 170.890625 169 170.9375 168.945312 170.976562 168.882812 C 171.0625 168.945312 171.148438 169.007812 171.234375 169.066406 C 171.609375 169.332031 171.644531 169.855469 171.34375 170.203125 C 171.289062 170.265625 171.238281 170.339844 171.199219 170.417969 C 171.167969 170.476562 171.140625 170.542969 171.148438 170.613281 C 171.15625 170.703125 171.222656 170.78125 171.289062 170.84375 C 171.390625 170.945312 171.5 171.039062 171.613281 171.125 C 171.617188 171.128906 171.625 171.132812 171.628906 171.136719 C 171.742188 171.21875 171.855469 171.292969 171.976562 171.367188 C 172.171875 171.480469 172.378906 171.578125 172.59375 171.652344 C 172.917969 171.761719 173.117188 172.058594 173.121094 172.402344 C 173.132812 172.816406 173.296875 173.230469 173.617188 173.5 C 173.78125 173.644531 173.980469 173.734375 174.191406 173.785156 C 174.625 173.890625 174.871094 174.320312 174.757812 174.75 C 174.730469 174.859375 174.707031 174.972656 174.695312 175.089844 C 174.636719 175.628906 174.800781 176.214844 175.214844 176.5625 C 175.757812 177.019531 176.511719 176.957031 177.222656 176.75 L 177.648438 177.253906 C 177.507812 177.394531 177.417969 177.585938 177.425781 177.804688 C 177.441406 178.402344 177.691406 178.996094 178.128906 179.398438 C 178.386719 179.632812 178.808594 179.78125 179.082031 179.621094 C 179.132812 179.808594 179.226562 179.988281 179.367188 180.125 C 179.511719 180.265625 179.683594 180.363281 179.871094 180.4375 C 180.097656 180.53125 180.253906 180.722656 180.332031 180.957031 C 180.402344 181.15625 180.515625 181.34375 180.652344 181.523438 C 180.722656 181.675781 180.835938 181.808594 180.949219 181.9375 C 181.707031 182.8125 182.464844 183.691406 183.222656 184.566406 C 183.347656 184.710938 183.476562 184.855469 183.605469 185 C 183.726562 185.136719 183.84375 185.277344 183.96875 185.417969 C 184.03125 185.496094 184.101562 185.578125 184.199219 185.605469 C 184.210938 185.609375 184.21875 185.605469 184.230469 185.605469 C 184.316406 185.683594 184.40625 185.757812 184.503906 185.824219 C 184.804688 185.804688 185.101562 185.753906 185.390625 185.675781 C 185.453125 185.738281 185.523438 185.796875 185.605469 185.804688 C 185.765625 185.824219 185.890625 185.675781 185.980469 185.542969 C 185.996094 185.515625 186.011719 185.492188 186.027344 185.464844 C 186.027344 185.464844 186.027344 185.464844 186.027344 185.460938 C 186.058594 185.449219 186.085938 185.441406 186.113281 185.429688 "/>
<path style=" stroke:none;fill-rule:nonzero;fill:rgb(31.369019%,78.42865%,47.059631%);fill-opacity:1;" d="M 196.703125 208.378906 C 196.703125 208.378906 196.734375 212.296875 196.738281 212.703125 C 196.695312 211.269531 196.652344 209.832031 196.703125 208.378906 Z M 214.597656 196.792969 C 213.71875 195.371094 211.210938 191.914062 209.621094 188.398438 C 206.746094 182.011719 203.371094 177.582031 202.085938 170.707031 C 201.878906 169.617188 202.300781 170.433594 201.980469 169.617188 C 201.570312 168.578125 199.648438 168.023438 198.550781 167.835938 C 195.160156 167.257812 191.714844 166.996094 188.277344 167.0625 C 186.117188 167.105469 182.820312 166.960938 180.710938 166.492188 C 177.378906 165.753906 175.714844 163.828125 173.074219 161.660156 C 173.332031 162.894531 173.296875 164.246094 173.121094 165.636719 C 173.175781 165.828125 173.230469 166.011719 173.273438 166.191406 C 173.335938 166.457031 173.390625 166.714844 173.4375 166.960938 C 173.445312 167.019531 173.472656 167.113281 173.492188 167.265625 C 173.644531 167.230469 173.894531 167.191406 174.214844 167.292969 C 174.574219 167.414062 174.753906 167.625 174.851562 167.738281 C 174.953125 167.871094 174.976562 167.914062 175.027344 167.988281 L 175.15625 168.203125 C 175.234375 168.347656 175.308594 168.496094 175.367188 168.648438 C 175.496094 168.949219 175.589844 169.265625 175.648438 169.582031 L 175.652344 169.605469 C 175.816406 169.648438 175.976562 169.707031 176.128906 169.78125 C 176.496094 169.964844 176.832031 170.246094 177.074219 170.617188 C 177.191406 170.800781 177.285156 171.007812 177.34375 171.210938 C 177.375 171.3125 177.398438 171.417969 177.414062 171.523438 L 177.429688 171.644531 L 177.683594 171.644531 C 178.046875 171.664062 178.40625 171.753906 178.742188 171.914062 C 179.078125 172.074219 179.402344 172.316406 179.648438 172.648438 C 179.894531 172.984375 180.035156 173.378906 180.070312 173.769531 C 180.105469 174.222656 180.019531 174.613281 179.902344 174.957031 C 179.976562 174.96875 180.050781 174.980469 180.097656 174.996094 C 180.191406 175.015625 180.277344 175.042969 180.367188 175.074219 C 180.71875 175.195312 181.046875 175.378906 181.332031 175.621094 C 181.472656 175.742188 181.605469 175.875 181.722656 176.027344 C 181.78125 176.101562 181.835938 176.175781 181.886719 176.257812 C 181.9375 176.335938 182 176.453125 182.039062 176.550781 C 182.121094 176.757812 182.171875 176.96875 182.171875 177.210938 C 182.171875 177.277344 182.164062 177.351562 182.152344 177.425781 C 182.246094 177.519531 182.328125 177.621094 182.390625 177.734375 C 182.46875 177.867188 182.523438 178.003906 182.566406 178.136719 C 182.589844 178.207031 182.605469 178.273438 182.621094 178.339844 L 182.640625 178.433594 L 182.640625 178.453125 C 182.652344 178.511719 182.679688 178.574219 182.792969 178.648438 C 183.042969 178.800781 183.226562 178.988281 183.386719 179.171875 L 183.308594 179.101562 C 183.589844 179.3125 183.71875 179.535156 183.851562 179.707031 L 184.253906 180.253906 L 185.0625 181.359375 L 185.859375 182.464844 L 186.457031 183.296875 C 186.511719 183.378906 186.613281 183.5 186.617188 183.667969 L 186.75 183.960938 L 186.773438 184.011719 L 186.761719 184.046875 L 186.410156 184.867188 C 186.441406 184.921875 186.46875 184.980469 186.476562 185.050781 C 186.484375 185.132812 186.449219 185.214844 186.398438 185.269531 C 186.296875 185.378906 186.160156 185.425781 186.027344 185.460938 L 186.027344 185.464844 C 185.96875 185.585938 185.902344 185.714844 185.777344 185.800781 C 185.714844 185.84375 185.625 185.867188 185.542969 185.84375 C 185.476562 185.824219 185.425781 185.789062 185.378906 185.75 L 184.511719 185.957031 L 184.476562 185.964844 L 184.425781 185.933594 L 184.164062 185.75 C 183.996094 185.71875 183.894531 185.597656 183.820312 185.53125 L 183.585938 185.289062 L 183.105469 184.804688 L 182.144531 183.828125 L 181.191406 182.851562 L 180.722656 182.359375 C 180.574219 182.199219 180.378906 182.035156 180.214844 181.722656 L 180.269531 181.8125 C 180.117188 181.628906 179.960938 181.414062 179.855469 181.140625 C 179.800781 181.015625 179.742188 180.980469 179.691406 180.957031 L 179.667969 180.953125 L 179.585938 180.921875 C 179.519531 180.894531 179.457031 180.867188 179.390625 180.835938 C 179.265625 180.769531 179.140625 180.691406 179.023438 180.59375 C 178.917969 180.511719 178.835938 180.414062 178.761719 180.308594 C 178.683594 180.308594 178.613281 180.300781 178.546875 180.289062 C 178.308594 180.246094 178.105469 180.167969 177.917969 180.050781 C 177.828125 179.996094 177.722656 179.914062 177.65625 179.847656 C 177.582031 179.785156 177.515625 179.71875 177.453125 179.648438 C 177.324219 179.507812 177.214844 179.355469 177.117188 179.195312 C 176.925781 178.875 176.800781 178.519531 176.738281 178.148438 C 176.722656 178.058594 176.710938 177.964844 176.707031 177.871094 C 176.699219 177.820312 176.699219 177.75 176.703125 177.675781 C 176.339844 177.734375 175.949219 177.75 175.503906 177.644531 C 175.128906 177.542969 174.761719 177.339844 174.472656 177.039062 C 174.183594 176.738281 174 176.378906 173.894531 176.019531 C 173.796875 175.660156 173.765625 175.289062 173.8125 174.929688 L 173.851562 174.675781 L 173.734375 174.644531 C 173.632812 174.613281 173.535156 174.570312 173.441406 174.523438 C 173.25 174.433594 173.066406 174.308594 172.898438 174.160156 C 172.574219 173.859375 172.355469 173.476562 172.234375 173.085938 C 172.183594 172.921875 172.15625 172.753906 172.136719 172.585938 L 172.117188 172.578125 C 171.996094 172.53125 171.878906 172.480469 171.761719 172.425781 C 171.59375 173.296875 171.457031 174.148438 171.398438 174.953125 C 171.074219 179.5 172.675781 183.929688 173.949219 188.308594 C 176.179688 195.953125 178.1875 216.519531 178.1875 216.519531 C 178.015625 217.742188 178.925781 226.15625 179.097656 228.421875 C 179.109375 228.5625 179.246094 228.652344 179.378906 228.605469 C 180.125 228.351562 181.554688 228.203125 182.617188 227.992188 C 182.511719 227.304688 182.519531 226.1875 182.359375 225.433594 C 184.535156 225.433594 185.871094 225.363281 188.058594 225.410156 C 188.351562 224.941406 188.542969 224.371094 188.421875 223.832031 C 188.300781 223.316406 187.917969 222.914062 187.605469 222.492188 C 186.6875 221.253906 186.269531 219.660156 186.460938 218.136719 C 186.65625 216.609375 187.457031 215.167969 188.648438 214.203125 C 189.65625 213.390625 190.894531 212.921875 192.128906 212.535156 C 192.949219 212.277344 193.90625 212.054688 194.578125 212.78125 C 194.933594 213.167969 195.070312 213.71875 195.023438 214.246094 C 194.914062 215.421875 194.132812 216.296875 193.601562 217.289062 C 193.335938 217.792969 193.128906 218.328125 192.992188 218.882812 C 192.847656 219.472656 193.035156 220.363281 193.34375 220.886719 C 194.136719 222.226562 194.84375 224.023438 194.515625 225.546875 C 195.441406 225.609375 196.722656 225.578125 197.652344 225.53125 C 197.605469 225.34375 198.085938 242.253906 198.054688 241.910156 L 200.066406 241.910156 C 199.898438 240.105469 196.605469 219.234375 196.691406 218.222656 C 196.851562 216.386719 196.796875 214.5625 196.738281 212.730469 C 200.21875 218.175781 204.929688 217.773438 205.242188 217.8125 C 214.503906 218.972656 214.875 217.316406 216.636719 208.882812 C 216.742188 208.382812 218.421875 206.191406 218.355469 205.683594 C 217.199219 196.628906 215.953125 198.992188 214.597656 196.792969 "/>
</g>
</svg>
