<?xml version="1.0" encoding="UTF-8"?>
<svg xmlns="http://www.w3.org/2000/svg" xmlns:xlink="http://www.w3.org/1999/xlink" width="375pt" height="374.999991pt" viewBox="0 0 375 374.999991" version="1.2">
<defs>
<clipPath id="clip1">
  <path d="M 162 67.050781 L 214 67.050781 L 214 119 L 162 119 Z M 162 67.050781 "/>
</clipPath>
<clipPath id="clip2">
  <path d="M 164 154 L 287.738281 154 L 287.738281 199 L 164 199 Z M 164 154 "/>
</clipPath>
</defs>
<g id="surface1">
<path style=" stroke:none;fill-rule:nonzero;fill:rgb(8.239746%,12.159729%,16.859436%);fill-opacity:1;" d="M 292.925781 58.636719 L 292.925781 328.578125 C 292.925781 343.9375 280.503906 356.359375 265.144531 356.359375 L 109.855469 356.359375 C 94.496094 356.359375 82.074219 343.9375 82.074219 328.578125 L 82.074219 58.636719 C 82.074219 43.277344 94.496094 30.855469 109.855469 30.855469 L 265.144531 30.855469 C 280.503906 30.855469 292.925781 43.277344 292.925781 58.636719 Z M 292.925781 58.636719 "/>
<path style=" stroke:none;fill-rule:nonzero;fill:rgb(31.369019%,78.42865%,47.059631%);fill-opacity:1;" d="M 106.195312 325.035156 C 105.722656 325.035156 105.253906 325.078125 104.789062 325.171875 C 104.328125 325.265625 103.875 325.402344 103.4375 325.582031 C 103.003906 325.761719 102.585938 325.984375 102.195312 326.246094 C 101.800781 326.511719 101.4375 326.808594 101.101562 327.144531 C 100.769531 327.476562 100.46875 327.839844 100.207031 328.234375 C 99.945312 328.628906 99.722656 329.042969 99.542969 329.480469 C 99.359375 329.917969 99.222656 330.367188 99.132812 330.832031 C 99.039062 331.296875 98.992188 331.761719 98.992188 332.238281 C 98.992188 332.710938 99.039062 333.175781 99.132812 333.640625 C 99.222656 334.105469 99.359375 334.554688 99.542969 334.992188 C 99.722656 335.429688 99.945312 335.84375 100.207031 336.238281 C 100.46875 336.632812 100.769531 336.996094 101.101562 337.328125 C 101.4375 337.664062 101.800781 337.960938 102.195312 338.226562 C 102.585938 338.488281 103.003906 338.710938 103.4375 338.890625 C 103.875 339.070312 104.328125 339.207031 104.789062 339.300781 C 105.253906 339.394531 105.722656 339.4375 106.195312 339.4375 C 106.667969 339.4375 107.136719 339.394531 107.601562 339.300781 C 108.0625 339.207031 108.515625 339.070312 108.953125 338.890625 C 109.386719 338.710938 109.804688 338.488281 110.195312 338.226562 C 110.589844 337.960938 110.953125 337.664062 111.289062 337.328125 C 111.621094 336.996094 111.921875 336.632812 112.183594 336.238281 C 112.445312 335.84375 112.667969 335.429688 112.847656 334.992188 C 113.03125 334.554688 113.167969 334.105469 113.257812 333.640625 C 113.351562 333.175781 113.398438 332.710938 113.398438 332.238281 C 113.398438 331.761719 113.351562 331.296875 113.257812 330.832031 C 113.167969 330.367188 113.03125 329.917969 112.847656 329.480469 C 112.667969 329.042969 112.445312 328.628906 112.183594 328.234375 C 111.921875 327.839844 111.621094 327.476562 111.289062 327.144531 C 110.953125 326.808594 110.589844 326.511719 110.195312 326.246094 C 109.804688 325.984375 109.386719 325.761719 108.953125 325.582031 C 108.515625 325.402344 108.0625 325.265625 107.601562 325.171875 C 107.136719 325.078125 106.667969 325.035156 106.195312 325.035156 Z M 106.195312 47.777344 C 105.722656 47.777344 105.253906 47.824219 104.789062 47.914062 C 104.324219 48.007812 103.875 48.144531 103.4375 48.324219 C 103 48.503906 102.585938 48.726562 102.191406 48.988281 C 101.796875 49.253906 101.433594 49.550781 101.097656 49.886719 C 100.765625 50.21875 100.464844 50.582031 100.203125 50.976562 C 99.941406 51.371094 99.71875 51.785156 99.535156 52.222656 C 99.355469 52.660156 99.21875 53.109375 99.125 53.574219 C 99.035156 54.039062 98.988281 54.507812 98.988281 54.980469 C 98.988281 55.453125 99.035156 55.921875 99.125 56.386719 C 99.21875 56.851562 99.355469 57.300781 99.535156 57.738281 C 99.71875 58.175781 99.941406 58.589844 100.203125 58.984375 C 100.464844 59.375 100.765625 59.742188 101.097656 60.074219 C 101.433594 60.410156 101.796875 60.707031 102.191406 60.972656 C 102.585938 61.234375 103 61.457031 103.4375 61.636719 C 103.875 61.816406 104.324219 61.953125 104.789062 62.046875 C 105.253906 62.136719 105.722656 62.183594 106.195312 62.183594 C 106.667969 62.183594 107.136719 62.136719 107.601562 62.046875 C 108.066406 61.953125 108.515625 61.816406 108.953125 61.636719 C 109.390625 61.457031 109.804688 61.234375 110.199219 60.972656 C 110.59375 60.707031 110.957031 60.410156 111.292969 60.074219 C 111.625 59.742188 111.925781 59.375 112.1875 58.984375 C 112.449219 58.589844 112.671875 58.175781 112.855469 57.738281 C 113.035156 57.300781 113.171875 56.851562 113.265625 56.386719 C 113.355469 55.921875 113.402344 55.453125 113.402344 54.980469 C 113.402344 54.507812 113.355469 54.039062 113.265625 53.574219 C 113.171875 53.109375 113.035156 52.660156 112.855469 52.222656 C 112.671875 51.785156 112.449219 51.371094 112.1875 50.976562 C 111.925781 50.582031 111.625 50.21875 111.292969 49.886719 C 110.957031 49.550781 110.59375 49.253906 110.199219 48.988281 C 109.804688 48.726562 109.390625 48.503906 108.953125 48.324219 C 108.515625 48.144531 108.066406 48.007812 107.601562 47.914062 C 107.136719 47.824219 106.667969 47.777344 106.195312 47.777344 Z M 268.804688 47.777344 C 268.332031 47.777344 267.863281 47.824219 267.398438 47.914062 C 266.933594 48.007812 266.484375 48.144531 266.046875 48.324219 C 265.609375 48.503906 265.195312 48.726562 264.800781 48.988281 C 264.40625 49.253906 264.042969 49.550781 263.707031 49.886719 C 263.375 50.21875 263.074219 50.582031 262.8125 50.976562 C 262.550781 51.371094 262.328125 51.785156 262.144531 52.222656 C 261.964844 52.660156 261.828125 53.109375 261.734375 53.574219 C 261.644531 54.039062 261.597656 54.507812 261.597656 54.980469 C 261.597656 55.453125 261.644531 55.921875 261.734375 56.386719 C 261.828125 56.851562 261.964844 57.300781 262.144531 57.738281 C 262.328125 58.175781 262.550781 58.589844 262.8125 58.984375 C 263.074219 59.375 263.375 59.742188 263.707031 60.074219 C 264.042969 60.410156 264.40625 60.707031 264.800781 60.972656 C 265.195312 61.234375 265.609375 61.457031 266.046875 61.636719 C 266.484375 61.816406 266.933594 61.953125 267.398438 62.046875 C 267.863281 62.136719 268.332031 62.183594 268.804688 62.183594 C 269.277344 62.183594 269.746094 62.136719 270.210938 62.046875 C 270.675781 61.953125 271.125 61.816406 271.5625 61.636719 C 272 61.457031 272.414062 61.234375 272.808594 60.972656 C 273.203125 60.707031 273.566406 60.410156 273.902344 60.074219 C 274.234375 59.742188 274.535156 59.375 274.796875 58.984375 C 275.058594 58.589844 275.28125 58.175781 275.464844 57.738281 C 275.644531 57.300781 275.78125 56.851562 275.875 56.386719 C 275.964844 55.921875 276.011719 55.453125 276.011719 54.980469 C 276.011719 54.507812 275.964844 54.039062 275.875 53.574219 C 275.78125 53.109375 275.644531 52.660156 275.464844 52.222656 C 275.28125 51.785156 275.058594 51.371094 274.796875 50.976562 C 274.535156 50.582031 274.234375 50.21875 273.902344 49.886719 C 273.566406 49.550781 273.203125 49.253906 272.808594 48.988281 C 272.414062 48.726562 272 48.503906 271.5625 48.324219 C 271.125 48.144531 270.675781 48.007812 270.210938 47.914062 C 269.746094 47.824219 269.277344 47.777344 268.804688 47.777344 Z M 268.804688 325.035156 C 268.332031 325.035156 267.863281 325.078125 267.398438 325.171875 C 266.9375 325.265625 266.484375 325.402344 266.046875 325.582031 C 265.613281 325.761719 265.195312 325.984375 264.804688 326.246094 C 264.410156 326.511719 264.046875 326.808594 263.710938 327.144531 C 263.378906 327.476562 263.078125 327.839844 262.816406 328.234375 C 262.554688 328.628906 262.332031 329.042969 262.152344 329.480469 C 261.96875 329.917969 261.832031 330.367188 261.742188 330.832031 C 261.648438 331.296875 261.601562 331.761719 261.601562 332.238281 C 261.601562 332.710938 261.648438 333.175781 261.742188 333.640625 C 261.832031 334.105469 261.96875 334.554688 262.152344 334.992188 C 262.332031 335.429688 262.554688 335.84375 262.816406 336.238281 C 263.078125 336.632812 263.378906 336.996094 263.710938 337.328125 C 264.046875 337.664062 264.410156 337.960938 264.804688 338.226562 C 265.195312 338.488281 265.613281 338.710938 266.046875 338.890625 C 266.484375 339.070312 266.9375 339.207031 267.398438 339.300781 C 267.863281 339.394531 268.332031 339.4375 268.804688 339.4375 C 269.277344 339.4375 269.746094 339.394531 270.210938 339.300781 C 270.671875 339.207031 271.125 339.070312 271.5625 338.890625 C 271.996094 338.710938 272.414062 338.488281 272.804688 338.226562 C 273.199219 337.960938 273.5625 337.664062 273.898438 337.328125 C 274.230469 336.996094 274.53125 336.632812 274.792969 336.238281 C 275.054688 335.84375 275.277344 335.429688 275.457031 334.992188 C 275.640625 334.554688 275.777344 334.105469 275.867188 333.640625 C 275.960938 333.175781 276.007812 332.710938 276.007812 332.238281 C 276.007812 331.761719 275.960938 331.296875 275.867188 330.832031 C 275.777344 330.367188 275.640625 329.917969 275.457031 329.480469 C 275.277344 329.042969 275.054688 328.628906 274.792969 328.234375 C 274.53125 327.839844 274.230469 327.476562 273.898438 327.144531 C 273.5625 326.808594 273.199219 326.511719 272.804688 326.246094 C 272.414062 325.984375 271.996094 325.761719 271.5625 325.582031 C 271.125 325.402344 270.671875 325.265625 270.210938 325.171875 C 269.746094 325.078125 269.277344 325.035156 268.804688 325.035156 Z M 268.804688 325.035156 "/>
<path style=" stroke:none;fill-rule:nonzero;fill:rgb(31.369019%,78.42865%,47.059631%);fill-opacity:1;" d="M 311.585938 62.183594 L 311.585938 38.898438 C 306.066406 36.796875 300.484375 33.195312 295.503906 28.277344 C 290.585938 23.296875 286.984375 17.714844 284.882812 12.195312 L 90.117188 12.195312 C 88.015625 17.714844 84.414062 23.296875 79.496094 28.277344 C 74.515625 33.195312 68.933594 36.796875 63.414062 38.898438 L 63.414062 348.320312 C 64.796875 348.859375 66.175781 349.460938 67.554688 350.179688 C 67.914062 350.359375 68.214844 350.539062 68.574219 350.71875 C 68.816406 350.839844 69.054688 350.960938 69.296875 351.140625 C 69.355469 351.140625 69.414062 351.199219 69.476562 351.257812 C 69.65625 351.320312 69.777344 351.441406 69.957031 351.558594 C 71.695312 352.640625 73.433594 353.839844 75.175781 355.160156 C 75.476562 355.398438 75.777344 355.640625 76.074219 355.941406 C 76.316406 356.121094 76.496094 356.300781 76.675781 356.480469 C 77.277344 357.019531 77.875 357.558594 78.476562 358.160156 C 78.777344 358.460938 79.074219 358.761719 79.433594 359.058594 C 79.734375 359.359375 80.035156 359.660156 80.335938 360.019531 C 80.875 360.621094 81.476562 361.21875 82.015625 361.820312 C 82.195312 362.058594 82.375 362.242188 82.554688 362.480469 L 83.273438 363.378906 C 83.457031 363.558594 83.574219 363.800781 83.753906 363.980469 C 84.054688 364.339844 84.355469 364.761719 84.65625 365.121094 C 85.015625 365.601562 85.316406 366.082031 85.617188 366.5 C 86.515625 367.878906 87.355469 369.261719 88.136719 370.699219 C 88.253906 370.941406 88.375 371.121094 88.433594 371.359375 L 88.617188 371.722656 C 88.734375 371.960938 88.855469 372.199219 88.914062 372.382812 C 89.335938 373.28125 89.753906 374.179688 90.054688 375.140625 L 284.824219 375.140625 C 286.925781 369.621094 290.523438 364.039062 295.445312 359.058594 C 297.304688 357.199219 299.222656 355.519531 301.265625 354.078125 C 302.285156 353.359375 303.304688 352.640625 304.324219 352.039062 C 304.984375 351.621094 305.703125 351.199219 306.363281 350.839844 C 307.023438 350.480469 307.746094 350.121094 308.40625 349.757812 C 309.425781 349.28125 310.503906 348.800781 311.523438 348.441406 Z M 292.925781 328.578125 C 292.925781 343.9375 280.503906 356.359375 265.144531 356.359375 L 109.855469 356.359375 C 94.496094 356.359375 82.074219 343.9375 82.074219 328.578125 L 82.074219 58.636719 C 82.074219 43.277344 94.496094 30.855469 109.855469 30.855469 L 265.144531 30.855469 C 280.503906 30.855469 292.925781 43.277344 292.925781 58.636719 Z M 292.925781 328.578125 "/>
<g clip-path="url(#clip1)" clip-rule="nonzero">
<path style=" stroke:none;fill-rule:nonzero;fill:rgb(31.369019%,78.42865%,47.059631%);fill-opacity:1;" d="M 188.050781 118.207031 C 202.148438 118.207031 213.574219 106.808594 213.574219 92.746094 C 213.574219 78.679688 202.148438 67.28125 188.050781 67.28125 C 173.953125 67.28125 162.527344 78.679688 162.527344 92.746094 C 162.527344 106.808594 173.953125 118.207031 188.050781 118.207031 Z M 196.359375 97.816406 C 194.863281 98.039062 193.46875 97.007812 193.246094 95.511719 C 193.023438 94.019531 194.058594 92.625 195.558594 92.40625 C 197.054688 92.183594 198.449219 93.214844 198.671875 94.710938 C 198.894531 96.203125 197.859375 97.597656 196.359375 97.816406 Z M 201.554688 85.683594 L 203.96875 88.558594 L 190.210938 92.523438 L 189.789062 91.53125 Z M 182.855469 95.511719 C 182.632812 97.007812 181.238281 98.039062 179.738281 97.816406 C 178.242188 97.597656 177.207031 96.207031 177.429688 94.710938 C 177.652344 93.214844 179.046875 92.183594 180.542969 92.40625 C 182.042969 92.625 183.074219 94.019531 182.855469 95.511719 Z M 174.542969 85.683594 L 186.3125 91.53125 L 185.886719 92.523438 L 172.132812 88.558594 Z M 174.542969 85.683594 "/>
</g>
<path style=" stroke:none;fill-rule:nonzero;fill:rgb(31.369019%,78.42865%,47.059631%);fill-opacity:1;" d="M 229.675781 188.246094 C 231.191406 189.265625 232.960938 189.792969 234.746094 189.792969 C 235.617188 189.792969 236.492188 189.667969 237.34375 189.414062 L 265.835938 180.917969 C 270.636719 179.488281 273.367188 174.445312 271.933594 169.652344 C 271.757812 169.070312 271.527344 168.515625 271.253906 167.996094 L 225.835938 182.398438 C 226.277344 184.773438 227.652344 186.882812 229.675781 188.246094 Z M 229.675781 188.246094 "/>
<path style=" stroke:none;fill-rule:nonzero;fill:rgb(31.369019%,78.42865%,47.059631%);fill-opacity:1;" d="M 165.613281 201.542969 C 165.109375 204.503906 163.402344 207.273438 160.75 209.132812 C 159.515625 209.996094 158.113281 210.609375 156.671875 210.945312 L 147.710938 320.363281 C 147.082031 328.066406 152.824219 334.820312 160.542969 335.445312 C 168.261719 336.074219 175.027344 330.226562 175.65625 322.523438 L 184.078125 219.324219 L 192.023438 219.324219 L 200.449219 322.523438 C 201.078125 330.226562 207.847656 336.015625 215.566406 335.390625 C 223.289062 334.761719 229.175781 328.039062 228.546875 320.335938 L 219.007812 201.992188 L 219.007812 184.652344 Z M 165.613281 201.542969 "/>
<path style=" stroke:none;fill-rule:nonzero;fill:rgb(31.369019%,78.42865%,47.059631%);fill-opacity:1;" d="M 140.746094 201.109375 L 121.855469 207.097656 L 123.457031 212.132812 L 143.9375 205.640625 Z M 140.746094 201.109375 "/>
<g clip-path="url(#clip2)" clip-rule="nonzero">
<path style=" stroke:none;fill-rule:nonzero;fill:rgb(31.369019%,78.42865%,47.059631%);fill-opacity:1;" d="M 164.042969 193.722656 C 164.972656 195.304688 165.480469 197.03125 165.597656 198.769531 L 287.78125 160.023438 L 286.175781 154.992188 Z M 164.042969 193.722656 "/>
</g>
<path style=" stroke:none;fill-rule:nonzero;fill:rgb(31.369019%,78.42865%,47.059631%);fill-opacity:1;" d="M 135.582031 142.996094 C 127.859375 151.125 122.1875 159.164062 121.949219 159.503906 C 119.757812 162.625 119.757812 166.785156 121.957031 169.90625 L 146.535156 204.800781 C 148.300781 207.308594 151.113281 208.648438 153.96875 208.648438 C 155.769531 208.648438 157.59375 208.113281 159.179688 207 C 163.28125 204.125 164.269531 198.480469 161.386719 194.386719 L 140.578125 164.847656 C 143.992188 160.507812 148.003906 156.242188 151.726562 152.628906 C 153.730469 150.683594 155.484375 148.941406 157.753906 147.472656 L 157.753906 184.160156 L 162.851562 191.472656 L 219.007812 173.648438 L 219.007812 151.914062 C 221.277344 156.351562 223.121094 162.761719 224.605469 171.828125 L 241.984375 166.296875 C 238.804688 149.066406 232.941406 136.953125 224.546875 130.210938 C 218.796875 125.589844 213.363281 124.546875 210.484375 124.480469 C 210.316406 124.472656 210.132812 124.253906 209.960938 124.253906 L 166.136719 124.253906 C 165.707031 124.253906 165.285156 124.496094 164.871094 124.558594 C 157.058594 125.144531 148.476562 130.1875 138.777344 139.664062 C 137.722656 140.695312 136.664062 141.859375 135.582031 142.996094 Z M 135.582031 142.996094 "/>
</g>
</svg>
