<?xml version="1.0" encoding="UTF-8"?>
<svg xmlns="http://www.w3.org/2000/svg" xmlns:xlink="http://www.w3.org/1999/xlink" width="375pt" height="374.999991pt" viewBox="0 0 375 374.999991" version="1.2">
<defs>
<clipPath id="clip1">
  <path d="M 99 93 L 275 93 L 275 324.964844 L 99 324.964844 Z M 99 93 "/>
</clipPath>
</defs>
<g id="surface1">
<path style=" stroke:none;fill-rule:nonzero;fill:rgb(8.239746%,12.159729%,16.859436%);fill-opacity:1;" d="M 292.921875 46.46875 L 292.921875 328.765625 C 292.921875 344.132812 280.503906 356.5625 265.144531 356.5625 L 109.855469 356.5625 C 94.496094 356.5625 82.078125 344.132812 82.078125 328.765625 L 82.078125 46.46875 C 82.078125 31.097656 94.496094 18.671875 109.855469 18.671875 L 265.144531 18.671875 C 280.503906 18.671875 292.921875 31.097656 292.921875 46.46875 Z M 292.921875 46.46875 "/>
<path style=" stroke:none;fill-rule:nonzero;fill:rgb(31.369019%,78.42865%,47.059631%);fill-opacity:1;" d="M 106.195312 325.21875 C 105.722656 325.21875 105.253906 325.265625 104.789062 325.355469 C 104.328125 325.449219 103.875 325.585938 103.441406 325.765625 C 103.003906 325.949219 102.585938 326.167969 102.195312 326.433594 C 101.800781 326.695312 101.4375 326.992188 101.101562 327.328125 C 100.769531 327.664062 100.46875 328.027344 100.207031 328.421875 C 99.945312 328.8125 99.722656 329.230469 99.542969 329.667969 C 99.359375 330.105469 99.222656 330.554688 99.132812 331.019531 C 99.039062 331.484375 98.992188 331.953125 98.992188 332.425781 C 98.992188 332.898438 99.039062 333.367188 99.132812 333.832031 C 99.222656 334.296875 99.359375 334.746094 99.542969 335.183594 C 99.722656 335.621094 99.945312 336.035156 100.207031 336.429688 C 100.46875 336.820312 100.769531 337.1875 101.101562 337.519531 C 101.4375 337.855469 101.800781 338.15625 102.195312 338.417969 C 102.585938 338.679688 103.003906 338.902344 103.441406 339.082031 C 103.875 339.265625 104.328125 339.402344 104.789062 339.492188 C 105.253906 339.585938 105.722656 339.632812 106.195312 339.632812 C 106.667969 339.632812 107.136719 339.585938 107.601562 339.492188 C 108.066406 339.402344 108.515625 339.265625 108.953125 339.082031 C 109.390625 338.902344 109.804688 338.679688 110.199219 338.417969 C 110.589844 338.15625 110.953125 337.855469 111.289062 337.519531 C 111.625 337.1875 111.921875 336.820312 112.183594 336.429688 C 112.449219 336.035156 112.667969 335.621094 112.851562 335.183594 C 113.03125 334.746094 113.167969 334.296875 113.261719 333.832031 C 113.351562 333.367188 113.398438 332.898438 113.398438 332.425781 C 113.398438 331.953125 113.351562 331.484375 113.261719 331.019531 C 113.167969 330.554688 113.03125 330.105469 112.851562 329.667969 C 112.667969 329.230469 112.449219 328.8125 112.183594 328.421875 C 111.921875 328.027344 111.625 327.664062 111.289062 327.328125 C 110.953125 326.992188 110.589844 326.695312 110.199219 326.433594 C 109.804688 326.167969 109.390625 325.949219 108.953125 325.765625 C 108.515625 325.585938 108.066406 325.449219 107.601562 325.355469 C 107.136719 325.265625 106.667969 325.21875 106.195312 325.21875 Z M 106.195312 35.601562 C 105.722656 35.601562 105.253906 35.648438 104.789062 35.742188 C 104.328125 35.832031 103.875 35.96875 103.441406 36.152344 C 103.003906 36.332031 102.585938 36.554688 102.195312 36.816406 C 101.800781 37.078125 101.4375 37.378906 101.101562 37.714844 C 100.769531 38.046875 100.46875 38.410156 100.207031 38.804688 C 99.945312 39.199219 99.722656 39.613281 99.542969 40.050781 C 99.359375 40.488281 99.222656 40.9375 99.132812 41.402344 C 99.039062 41.867188 98.992188 42.335938 98.992188 42.808594 C 98.992188 43.28125 99.039062 43.75 99.132812 44.214844 C 99.222656 44.679688 99.359375 45.128906 99.542969 45.566406 C 99.722656 46.003906 99.945312 46.421875 100.207031 46.8125 C 100.46875 47.207031 100.769531 47.570312 101.101562 47.90625 C 101.4375 48.242188 101.800781 48.539062 102.195312 48.800781 C 102.585938 49.066406 103.003906 49.289062 103.441406 49.46875 C 103.875 49.648438 104.328125 49.785156 104.789062 49.878906 C 105.253906 49.972656 105.722656 50.015625 106.195312 50.015625 C 106.667969 50.015625 107.136719 49.972656 107.601562 49.878906 C 108.066406 49.785156 108.515625 49.648438 108.953125 49.46875 C 109.390625 49.289062 109.804688 49.066406 110.199219 48.800781 C 110.589844 48.539062 110.953125 48.242188 111.289062 47.90625 C 111.625 47.570312 111.921875 47.207031 112.183594 46.8125 C 112.449219 46.421875 112.667969 46.003906 112.851562 45.566406 C 113.03125 45.128906 113.167969 44.679688 113.261719 44.214844 C 113.351562 43.75 113.398438 43.28125 113.398438 42.808594 C 113.398438 42.335938 113.351562 41.867188 113.261719 41.402344 C 113.167969 40.9375 113.03125 40.488281 112.851562 40.050781 C 112.667969 39.613281 112.449219 39.199219 112.183594 38.804688 C 111.921875 38.410156 111.625 38.046875 111.289062 37.714844 C 110.953125 37.378906 110.589844 37.078125 110.199219 36.816406 C 109.804688 36.554688 109.390625 36.332031 108.953125 36.152344 C 108.515625 35.96875 108.066406 35.832031 107.601562 35.742188 C 107.136719 35.648438 106.667969 35.601562 106.195312 35.601562 Z M 268.804688 35.601562 C 268.332031 35.601562 267.863281 35.648438 267.398438 35.742188 C 266.933594 35.832031 266.484375 35.96875 266.046875 36.152344 C 265.609375 36.332031 265.195312 36.554688 264.800781 36.816406 C 264.410156 37.078125 264.046875 37.378906 263.710938 37.714844 C 263.375 38.046875 263.078125 38.410156 262.816406 38.804688 C 262.550781 39.199219 262.332031 39.613281 262.148438 40.050781 C 261.96875 40.488281 261.832031 40.9375 261.738281 41.402344 C 261.648438 41.867188 261.601562 42.335938 261.601562 42.808594 C 261.601562 43.28125 261.648438 43.75 261.738281 44.214844 C 261.832031 44.679688 261.96875 45.128906 262.148438 45.566406 C 262.332031 46.003906 262.550781 46.421875 262.816406 46.8125 C 263.078125 47.207031 263.375 47.570312 263.710938 47.90625 C 264.046875 48.242188 264.410156 48.539062 264.800781 48.800781 C 265.195312 49.066406 265.609375 49.289062 266.046875 49.46875 C 266.484375 49.648438 266.933594 49.785156 267.398438 49.878906 C 267.863281 49.972656 268.332031 50.015625 268.804688 50.015625 C 269.277344 50.015625 269.746094 49.972656 270.210938 49.878906 C 270.671875 49.785156 271.125 49.648438 271.558594 49.46875 C 271.996094 49.289062 272.414062 49.066406 272.804688 48.800781 C 273.199219 48.539062 273.5625 48.242188 273.898438 47.90625 C 274.230469 47.570312 274.53125 47.207031 274.792969 46.8125 C 275.054688 46.421875 275.277344 46.003906 275.457031 45.566406 C 275.640625 45.128906 275.777344 44.679688 275.867188 44.214844 C 275.960938 43.75 276.007812 43.28125 276.007812 42.808594 C 276.007812 42.335938 275.960938 41.867188 275.867188 41.402344 C 275.777344 40.9375 275.640625 40.488281 275.457031 40.050781 C 275.277344 39.613281 275.054688 39.199219 274.792969 38.804688 C 274.53125 38.410156 274.230469 38.046875 273.898438 37.714844 C 273.5625 37.378906 273.199219 37.078125 272.804688 36.816406 C 272.414062 36.554688 271.996094 36.332031 271.558594 36.152344 C 271.125 35.96875 270.671875 35.832031 270.210938 35.742188 C 269.746094 35.648438 269.277344 35.601562 268.804688 35.601562 Z M 268.804688 325.21875 C 268.332031 325.21875 267.863281 325.265625 267.398438 325.355469 C 266.933594 325.449219 266.484375 325.585938 266.046875 325.765625 C 265.609375 325.949219 265.195312 326.167969 264.800781 326.433594 C 264.410156 326.695312 264.046875 326.992188 263.710938 327.328125 C 263.375 327.664062 263.078125 328.027344 262.816406 328.421875 C 262.550781 328.8125 262.332031 329.230469 262.148438 329.667969 C 261.96875 330.105469 261.832031 330.554688 261.738281 331.019531 C 261.648438 331.484375 261.601562 331.953125 261.601562 332.425781 C 261.601562 332.898438 261.648438 333.367188 261.738281 333.832031 C 261.832031 334.296875 261.96875 334.746094 262.148438 335.183594 C 262.332031 335.621094 262.550781 336.035156 262.816406 336.429688 C 263.078125 336.820312 263.375 337.1875 263.710938 337.519531 C 264.046875 337.855469 264.410156 338.15625 264.800781 338.417969 C 265.195312 338.679688 265.609375 338.902344 266.046875 339.082031 C 266.484375 339.265625 266.933594 339.402344 267.398438 339.492188 C 267.863281 339.585938 268.332031 339.632812 268.804688 339.632812 C 269.277344 339.632812 269.746094 339.585938 270.210938 339.492188 C 270.671875 339.402344 271.125 339.265625 271.558594 339.082031 C 271.996094 338.902344 272.414062 338.679688 272.804688 338.417969 C 273.199219 338.15625 273.5625 337.855469 273.898438 337.519531 C 274.230469 337.1875 274.53125 336.820312 274.792969 336.429688 C 275.054688 336.035156 275.277344 335.621094 275.457031 335.183594 C 275.640625 334.746094 275.777344 334.296875 275.867188 333.832031 C 275.960938 333.367188 276.007812 332.898438 276.007812 332.425781 C 276.007812 331.953125 275.960938 331.484375 275.867188 331.019531 C 275.777344 330.554688 275.640625 330.105469 275.457031 329.667969 C 275.277344 329.230469 275.054688 328.8125 274.792969 328.421875 C 274.53125 328.027344 274.230469 327.664062 273.898438 327.328125 C 273.5625 326.992188 273.199219 326.695312 272.804688 326.433594 C 272.414062 326.167969 271.996094 325.949219 271.558594 325.765625 C 271.125 325.585938 270.671875 325.449219 270.210938 325.355469 C 269.746094 325.265625 269.277344 325.21875 268.804688 325.21875 Z M 268.804688 325.21875 "/>
<path style=" stroke:none;fill-rule:nonzero;fill:rgb(31.369019%,78.42865%,47.059631%);fill-opacity:1;" d="M 311.582031 50.015625 L 311.582031 26.714844 C 306.0625 24.617188 300.484375 21.011719 295.503906 16.089844 C 290.582031 11.105469 286.984375 5.523438 284.882812 0 L 90.117188 0 C 88.015625 5.523438 84.417969 11.105469 79.496094 16.089844 C 74.515625 21.011719 68.9375 24.617188 63.417969 26.714844 L 63.417969 348.515625 C 64.796875 349.058594 66.175781 349.65625 67.558594 350.378906 C 67.917969 350.558594 68.214844 350.738281 68.578125 350.917969 C 68.816406 351.039062 69.054688 351.160156 69.296875 351.339844 C 69.355469 351.339844 69.417969 351.398438 69.476562 351.460938 C 69.65625 351.519531 69.777344 351.640625 69.957031 351.757812 C 71.695312 352.839844 73.4375 354.039062 75.175781 355.363281 C 75.476562 355.601562 75.777344 355.84375 76.078125 356.140625 C 76.316406 356.324219 76.496094 356.503906 76.675781 356.683594 C 77.277344 357.222656 77.875 357.761719 78.476562 358.363281 C 78.777344 358.664062 79.078125 358.964844 79.4375 359.265625 C 79.738281 359.5625 80.035156 359.863281 80.335938 360.226562 C 80.875 360.824219 81.476562 361.425781 82.015625 362.027344 C 82.195312 362.265625 82.375 362.445312 82.554688 362.6875 L 83.277344 363.585938 C 83.457031 363.765625 83.578125 364.007812 83.757812 364.1875 C 84.054688 364.546875 84.355469 364.96875 84.65625 365.328125 C 85.015625 365.808594 85.316406 366.289062 85.617188 366.707031 C 86.515625 368.089844 87.355469 369.46875 88.136719 370.910156 C 88.257812 371.152344 88.375 371.332031 88.4375 371.570312 L 88.617188 371.933594 C 88.734375 372.171875 88.855469 372.414062 88.917969 372.59375 C 89.335938 373.492188 89.757812 374.394531 90.054688 375.355469 L 284.824219 375.355469 C 286.921875 369.832031 290.523438 364.246094 295.445312 359.265625 C 297.304688 357.402344 299.222656 355.722656 301.261719 354.28125 C 302.285156 353.5625 303.304688 352.839844 304.324219 352.238281 C 304.984375 351.820312 305.703125 351.398438 306.363281 351.039062 C 307.023438 350.679688 307.742188 350.320312 308.402344 349.957031 C 309.421875 349.476562 310.503906 348.996094 311.523438 348.636719 Z M 292.921875 328.765625 C 292.921875 344.132812 280.503906 356.5625 265.144531 356.5625 L 109.855469 356.5625 C 94.496094 356.5625 82.078125 344.132812 82.078125 328.765625 L 82.078125 46.46875 C 82.078125 31.097656 94.496094 18.671875 109.855469 18.671875 L 265.144531 18.671875 C 280.503906 18.671875 292.921875 31.097656 292.921875 46.46875 Z M 292.921875 328.765625 "/>
<g clip-path="url(#clip1)" clip-rule="nonzero">
<path style=" stroke:none;fill-rule:nonzero;fill:rgb(31.369019%,78.42865%,47.059631%);fill-opacity:1;" d="M 274.59375 174.84375 C 275.914062 170.246094 273.257812 165.449219 268.660156 164.128906 L 229.757812 152.953125 C 226.359375 143.003906 218.191406 122.238281 206.90625 114.039062 C 199.71875 108.8125 193.609375 109.980469 190.609375 111.136719 C 190.097656 111.335938 189.613281 111.570312 189.140625 111.8125 C 189.476562 124.46875 180.761719 136.003906 167.933594 138.761719 C 166.066406 139.160156 164.160156 139.363281 162.265625 139.363281 C 154.90625 139.363281 148.082031 136.285156 143.148438 131.277344 C 142.90625 131.683594 142.425781 131.910156 141.945312 131.777344 L 127.140625 127.691406 C 126.566406 127.535156 126.226562 126.933594 126.382812 126.359375 L 134.070312 98.5625 C 134.230469 97.988281 134.828125 97.648438 135.402344 97.808594 L 139.175781 98.847656 C 139.355469 98.546875 139.535156 98.246094 139.726562 97.949219 C 140.414062 96.886719 141.171875 95.882812 141.984375 94.941406 L 135.9375 93.273438 C 134.214844 92.796875 132.414062 93.816406 131.9375 95.539062 L 128.636719 107.476562 C 128.507812 107.625 128.378906 107.773438 128.261719 107.9375 L 101.179688 145.003906 C 99.058594 147.910156 98.953125 151.820312 100.917969 154.832031 C 102.539062 157.320312 105.289062 158.769531 108.179688 158.769531 C 108.789062 158.769531 109.40625 158.703125 110.019531 158.570312 L 146.214844 150.707031 L 156.484375 198.445312 L 147.917969 309.84375 C 147.351562 317.210938 152.875 323.644531 160.246094 324.207031 C 167.621094 324.773438 174.0625 319.261719 174.628906 311.890625 L 181.757812 219.15625 L 192.957031 216.75 L 213.503906 312.269531 C 215.058594 319.496094 222.183594 324.089844 229.414062 322.539062 C 236.644531 320.984375 241.25 313.871094 239.691406 306.644531 L 217.386719 202.949219 L 215.648438 194.882812 L 213.074219 182.90625 L 202.882812 135.53125 C 207.648438 143.253906 212.210938 154.542969 214.640625 162.515625 C 215.496094 165.328125 217.714844 167.511719 220.539062 168.324219 L 263.867188 180.769531 C 264.667969 181 265.472656 181.105469 266.265625 181.105469 C 270.035156 181.109375 273.5 178.636719 274.59375 174.84375 Z M 131.074219 133.457031 L 136.789062 135.035156 L 128.628906 136.808594 Z M 131.074219 133.457031 "/>
</g>
<path style=" stroke:none;fill-rule:nonzero;fill:rgb(31.369019%,78.42865%,47.059631%);fill-opacity:1;" d="M 186.117188 107.410156 C 186.285156 108.1875 186.414062 108.976562 186.503906 109.769531 C 186.597656 110.558594 186.648438 111.355469 186.660156 112.152344 C 186.671875 112.949219 186.644531 113.746094 186.578125 114.539062 C 186.511719 115.335938 186.40625 116.125 186.261719 116.910156 C 186.121094 117.695312 185.9375 118.46875 185.71875 119.238281 C 185.496094 120.003906 185.242188 120.757812 184.945312 121.5 C 184.652344 122.238281 184.320312 122.964844 183.957031 123.675781 C 183.589844 124.382812 183.191406 125.074219 182.757812 125.742188 C 182.324219 126.410156 181.859375 127.058594 181.363281 127.683594 C 180.867188 128.308594 180.339844 128.90625 179.785156 129.476562 C 179.226562 130.050781 178.644531 130.59375 178.035156 131.109375 C 177.425781 131.625 176.792969 132.109375 176.136719 132.5625 C 175.480469 133.015625 174.804688 133.433594 174.105469 133.820312 C 173.40625 134.207031 172.691406 134.558594 171.957031 134.875 C 171.226562 135.191406 170.480469 135.472656 169.71875 135.714844 C 168.957031 135.957031 168.1875 136.164062 167.40625 136.332031 C 166.628906 136.5 165.839844 136.628906 165.046875 136.71875 C 164.253906 136.808594 163.457031 136.859375 162.660156 136.871094 C 161.863281 136.882812 161.066406 136.855469 160.269531 136.789062 C 159.476562 136.726562 158.683594 136.621094 157.898438 136.476562 C 157.113281 136.332031 156.335938 136.152344 155.570312 135.929688 C 154.804688 135.710938 154.046875 135.453125 153.304688 135.160156 C 152.566406 134.867188 151.839844 134.535156 151.128906 134.171875 C 150.417969 133.804688 149.730469 133.40625 149.058594 132.972656 C 148.386719 132.542969 147.742188 132.078125 147.117188 131.582031 C 146.492188 131.082031 145.894531 130.558594 145.320312 130.003906 C 144.746094 129.449219 144.203125 128.867188 143.6875 128.257812 C 143.171875 127.648438 142.6875 127.015625 142.234375 126.359375 C 141.78125 125.703125 141.359375 125.027344 140.972656 124.328125 C 140.585938 123.632812 140.234375 122.917969 139.917969 122.183594 C 139.601562 121.453125 139.320312 120.707031 139.078125 119.945312 C 138.832031 119.1875 138.628906 118.417969 138.460938 117.636719 C 138.292969 116.859375 138.164062 116.070312 138.074219 115.28125 C 137.984375 114.488281 137.933594 113.691406 137.917969 112.894531 C 137.90625 112.097656 137.933594 111.300781 138 110.507812 C 138.066406 109.710938 138.171875 108.921875 138.316406 108.136719 C 138.460938 107.351562 138.640625 106.578125 138.859375 105.8125 C 139.082031 105.042969 139.339844 104.289062 139.632812 103.546875 C 139.925781 102.808594 140.257812 102.082031 140.621094 101.371094 C 140.988281 100.664062 141.386719 99.976562 141.820312 99.304688 C 142.253906 98.636719 142.71875 97.988281 143.214844 97.363281 C 143.710938 96.738281 144.238281 96.140625 144.792969 95.570312 C 145.351562 94.996094 145.933594 94.453125 146.542969 93.9375 C 147.152344 93.421875 147.785156 92.9375 148.441406 92.484375 C 149.097656 92.03125 149.777344 91.613281 150.472656 91.226562 C 151.171875 90.839844 151.886719 90.488281 152.621094 90.171875 C 153.351562 89.855469 154.097656 89.574219 154.859375 89.332031 C 155.621094 89.089844 156.390625 88.882812 157.171875 88.714844 C 157.953125 88.546875 158.738281 88.417969 159.53125 88.328125 C 160.324219 88.238281 161.121094 88.1875 161.917969 88.175781 C 162.714844 88.164062 163.511719 88.191406 164.308594 88.257812 C 165.105469 88.320312 165.894531 88.425781 166.679688 88.570312 C 167.464844 88.714844 168.242188 88.894531 169.007812 89.117188 C 169.777344 89.335938 170.53125 89.59375 171.273438 89.886719 C 172.015625 90.179688 172.738281 90.511719 173.449219 90.875 C 174.160156 91.242188 174.847656 91.640625 175.519531 92.074219 C 176.191406 92.503906 176.835938 92.96875 177.460938 93.464844 C 178.085938 93.964844 178.6875 94.488281 179.257812 95.042969 C 179.832031 95.601562 180.375 96.179688 180.890625 96.789062 C 181.40625 97.398438 181.890625 98.03125 182.347656 98.6875 C 182.800781 99.34375 183.21875 100.019531 183.605469 100.71875 C 183.992188 101.417969 184.34375 102.132812 184.660156 102.863281 C 184.980469 103.59375 185.257812 104.339844 185.503906 105.101562 C 185.746094 105.859375 185.949219 106.628906 186.117188 107.410156 Z M 186.117188 107.410156 "/>
<path style=" stroke:none;fill-rule:nonzero;fill:rgb(31.369019%,78.42865%,47.059631%);fill-opacity:1;" d="M 190.707031 65.363281 C 191.320312 63.050781 191.9375 60.523438 192.558594 57.777344 C 193.179688 55.03125 193.488281 53.441406 193.488281 53.011719 C 193.488281 52.476562 193.210938 51.984375 192.652344 51.53125 C 192.089844 51.082031 191.503906 50.855469 190.890625 50.855469 C 190.324219 50.855469 189.636719 51.148438 188.824219 51.726562 C 188.011719 52.308594 187.527344 53.15625 187.367188 54.265625 C 187.207031 55.375 187.125 56.011719 187.125 56.179688 C 187.125 57.878906 186.75 60.4375 186 63.847656 C 185.324219 67 185.113281 70.070312 185.355469 73.054688 C 186.199219 73.683594 187.386719 73.996094 188.917969 73.996094 C 189.40625 73.167969 189.667969 72.214844 189.699219 71.128906 C 189.726562 69.6875 190.066406 67.765625 190.707031 65.363281 Z M 190.707031 65.363281 "/>
<path style=" stroke:none;fill-rule:nonzero;fill:rgb(31.369019%,78.42865%,47.059631%);fill-opacity:1;" d="M 186.390625 77.945312 C 185.59375 77.945312 184.851562 78.402344 184.160156 79.320312 C 183.472656 80.242188 183.125 81.050781 183.125 81.753906 C 183.125 83.621094 183.96875 84.554688 185.65625 84.554688 C 186.222656 84.554688 186.933594 84.285156 187.792969 83.742188 C 188.648438 83.195312 189.148438 82.421875 189.285156 81.410156 L 189.515625 79.988281 C 189.515625 79.636719 189.125 79.207031 188.34375 78.703125 C 187.5625 78.195312 186.910156 77.945312 186.390625 77.945312 Z M 186.390625 77.945312 "/>
<path style=" stroke:none;fill-rule:nonzero;fill:rgb(31.369019%,78.42865%,47.059631%);fill-opacity:1;" d="M 208.21875 70.230469 C 212.0625 68.898438 214.597656 67.945312 215.824219 67.371094 C 217.046875 66.796875 218.121094 65.785156 219.039062 64.339844 C 219.960938 62.894531 220.417969 61.03125 220.417969 58.75 L 220.417969 58.730469 C 220.386719 56.664062 220.144531 55.148438 219.683594 54.183594 C 219.222656 53.21875 218.160156 52.179688 216.488281 51.0625 C 215.480469 50.359375 214.113281 50.042969 212.398438 50.121094 C 211.511719 50.148438 210.621094 50.171875 209.734375 50.1875 C 208.460938 50.21875 207.253906 50.585938 206.101562 51.289062 L 206.125 51.289062 C 204.761719 52.027344 203.632812 52.917969 202.738281 53.964844 C 201.839844 55.011719 201.390625 55.941406 201.390625 56.753906 C 201.390625 58.101562 202.097656 58.773438 203.503906 58.773438 C 205.664062 58.773438 206.84375 58.09375 207.042969 56.730469 C 207.121094 56.332031 207.453125 55.925781 208.042969 55.511719 C 208.632812 55.101562 209.757812 54.894531 211.410156 54.894531 C 211.976562 54.894531 212.542969 54.984375 213.109375 55.167969 C 213.675781 55.351562 214.058594 55.554688 214.261719 55.777344 C 214.460938 56 214.675781 56.554688 214.914062 57.441406 C 215.152344 58.328125 215.269531 59.035156 215.269531 59.554688 C 215.269531 60.289062 215.085938 61.03125 214.71875 61.78125 C 214.351562 62.53125 213.898438 63.019531 213.363281 63.25 L 210.261719 64.464844 C 208.300781 65.230469 206.972656 65.796875 206.273438 66.164062 C 205.578125 66.53125 204.808594 67.070312 203.964844 67.773438 C 203.03125 69.667969 202.453125 70.929688 202.230469 71.546875 C 202.007812 72.167969 201.898438 72.839844 201.898438 73.558594 C 201.898438 74.230469 202.019531 74.878906 202.265625 75.496094 C 202.507812 76.117188 202.847656 76.425781 203.273438 76.425781 C 204.59375 76.425781 205.527344 76.234375 206.078125 75.851562 C 206.628906 75.46875 206.980469 74.882812 207.136719 74.085938 C 207.441406 72.585938 207.804688 71.300781 208.21875 70.230469 Z M 208.21875 70.230469 "/>
<path style=" stroke:none;fill-rule:nonzero;fill:rgb(31.369019%,78.42865%,47.059631%);fill-opacity:1;" d="M 203.046875 79.824219 C 202.34375 79.824219 201.789062 79.984375 201.394531 80.308594 C 201.253906 80.429688 201.070312 80.566406 200.84375 80.722656 C 199.617188 81.5625 199.003906 82.335938 199.003906 83.039062 C 199.003906 83.898438 199.332031 84.609375 199.992188 85.175781 C 200.648438 85.742188 201.460938 86.023438 202.425781 86.023438 C 203.34375 86.023438 204.335938 85.683594 205.402344 85.003906 C 206.46875 84.324219 207 83.507812 207 82.558594 C 207 81.351562 206.300781 80.699219 204.910156 80.605469 C 204.15625 80.085938 203.539062 79.824219 203.046875 79.824219 Z M 203.046875 79.824219 "/>
</g>
</svg>
