<?xml version="1.0" encoding="UTF-8"?>
<svg xmlns="http://www.w3.org/2000/svg" xmlns:xlink="http://www.w3.org/1999/xlink" width="375pt" height="374.999991pt" viewBox="0 0 375 374.999991" version="1.2">
<defs>
<clipPath id="clip1">
  <path d="M 111 198 L 132 198 L 132 294.585938 L 111 294.585938 Z M 111 198 "/>
</clipPath>
<clipPath id="clip2">
  <path d="M 135 197 L 156 197 L 156 294.585938 L 135 294.585938 Z M 135 197 "/>
</clipPath>
<clipPath id="clip3">
  <path d="M 100.277344 137 L 166 137 L 166 221 L 100.277344 221 Z M 100.277344 137 "/>
</clipPath>
<clipPath id="clip4">
  <path d="M 115 112.335938 L 153 112.335938 L 153 150 L 115 150 Z M 115 112.335938 "/>
</clipPath>
<clipPath id="clip5">
  <path d="M 176.640625 101.558594 L 287.625 101.558594 L 287.625 289.015625 L 176.640625 289.015625 Z M 176.640625 101.558594 "/>
</clipPath>
</defs>
<g id="surface1">
<path style=" stroke:none;fill-rule:nonzero;fill:rgb(8.239746%,12.159729%,16.859436%);fill-opacity:1;" d="M 328.167969 91.5625 L 328.167969 298.679688 C 328.167969 314.039062 315.742188 326.460938 300.371094 326.460938 L 77.109375 326.460938 C 61.738281 326.460938 49.3125 314.039062 49.3125 298.679688 L 49.3125 91.5625 C 49.3125 76.203125 61.738281 63.785156 77.109375 63.785156 L 300.371094 63.785156 C 315.742188 63.785156 328.167969 76.203125 328.167969 91.5625 Z M 328.167969 91.5625 "/>
<path style=" stroke:none;fill-rule:nonzero;fill:rgb(31.369019%,78.42865%,47.059631%);fill-opacity:1;" d="M 73.445312 295.140625 C 72.972656 295.140625 72.503906 295.1875 72.039062 295.28125 C 71.578125 295.371094 71.125 295.507812 70.691406 295.6875 C 70.253906 295.871094 69.835938 296.09375 69.445312 296.355469 C 69.050781 296.617188 68.6875 296.914062 68.351562 297.25 C 68.019531 297.585938 67.71875 297.949219 67.457031 298.339844 C 67.195312 298.734375 66.972656 299.148438 66.789062 299.585938 C 66.609375 300.023438 66.472656 300.472656 66.378906 300.9375 C 66.289062 301.398438 66.242188 301.867188 66.242188 302.339844 C 66.242188 302.8125 66.289062 303.28125 66.378906 303.746094 C 66.472656 304.210938 66.609375 304.660156 66.789062 305.097656 C 66.972656 305.53125 67.195312 305.949219 67.457031 306.339844 C 67.71875 306.734375 68.019531 307.097656 68.351562 307.433594 C 68.6875 307.765625 69.050781 308.066406 69.445312 308.328125 C 69.835938 308.589844 70.253906 308.8125 70.691406 308.992188 C 71.125 309.175781 71.578125 309.308594 72.039062 309.402344 C 72.503906 309.496094 72.972656 309.539062 73.445312 309.542969 C 73.917969 309.539062 74.386719 309.496094 74.851562 309.402344 C 75.316406 309.308594 75.765625 309.175781 76.203125 308.992188 C 76.640625 308.8125 77.054688 308.589844 77.449219 308.328125 C 77.84375 308.066406 78.207031 307.765625 78.539062 307.433594 C 78.875 307.097656 79.175781 306.734375 79.4375 306.339844 C 79.699219 305.949219 79.921875 305.53125 80.101562 305.097656 C 80.285156 304.660156 80.421875 304.210938 80.511719 303.746094 C 80.605469 303.28125 80.652344 302.8125 80.652344 302.339844 C 80.652344 301.867188 80.605469 301.398438 80.511719 300.9375 C 80.421875 300.472656 80.285156 300.023438 80.101562 299.585938 C 79.921875 299.148438 79.699219 298.734375 79.4375 298.339844 C 79.175781 297.949219 78.875 297.585938 78.539062 297.25 C 78.207031 296.914062 77.84375 296.617188 77.449219 296.355469 C 77.054688 296.09375 76.640625 295.871094 76.203125 295.6875 C 75.765625 295.507812 75.316406 295.371094 74.851562 295.28125 C 74.386719 295.1875 73.917969 295.140625 73.445312 295.140625 Z M 73.445312 80.703125 C 72.972656 80.703125 72.503906 80.75 72.039062 80.839844 C 71.578125 80.933594 71.125 81.070312 70.691406 81.25 C 70.253906 81.433594 69.835938 81.652344 69.445312 81.917969 C 69.050781 82.179688 68.6875 82.476562 68.351562 82.8125 C 68.019531 83.144531 67.71875 83.511719 67.457031 83.902344 C 67.195312 84.296875 66.972656 84.710938 66.789062 85.148438 C 66.609375 85.585938 66.472656 86.035156 66.378906 86.5 C 66.289062 86.960938 66.242188 87.429688 66.242188 87.902344 C 66.242188 88.375 66.289062 88.84375 66.378906 89.308594 C 66.472656 89.769531 66.609375 90.222656 66.789062 90.660156 C 66.972656 91.09375 67.195312 91.511719 67.457031 91.902344 C 67.71875 92.296875 68.019531 92.660156 68.351562 92.996094 C 68.6875 93.328125 69.050781 93.628906 69.445312 93.890625 C 69.835938 94.152344 70.253906 94.375 70.691406 94.554688 C 71.125 94.734375 71.578125 94.871094 72.039062 94.964844 C 72.503906 95.058594 72.972656 95.101562 73.445312 95.101562 C 73.917969 95.101562 74.386719 95.058594 74.851562 94.964844 C 75.316406 94.871094 75.765625 94.734375 76.203125 94.554688 C 76.640625 94.375 77.054688 94.152344 77.449219 93.890625 C 77.84375 93.628906 78.207031 93.328125 78.539062 92.996094 C 78.875 92.660156 79.175781 92.296875 79.4375 91.902344 C 79.699219 91.511719 79.921875 91.09375 80.101562 90.660156 C 80.285156 90.222656 80.421875 89.769531 80.511719 89.308594 C 80.605469 88.84375 80.652344 88.375 80.652344 87.902344 C 80.652344 87.429688 80.605469 86.960938 80.511719 86.5 C 80.421875 86.035156 80.285156 85.585938 80.101562 85.148438 C 79.921875 84.710938 79.699219 84.296875 79.4375 83.902344 C 79.175781 83.511719 78.875 83.144531 78.539062 82.8125 C 78.207031 82.476562 77.84375 82.179688 77.449219 81.917969 C 77.054688 81.652344 76.640625 81.433594 76.203125 81.25 C 75.765625 81.070312 75.316406 80.933594 74.851562 80.839844 C 74.386719 80.75 73.917969 80.703125 73.445312 80.703125 Z M 304.035156 80.703125 C 303.5625 80.703125 303.09375 80.75 302.628906 80.839844 C 302.164062 80.933594 301.714844 81.070312 301.277344 81.25 C 300.839844 81.433594 300.425781 81.652344 300.03125 81.917969 C 299.636719 82.179688 299.273438 82.476562 298.941406 82.8125 C 298.605469 83.144531 298.304688 83.511719 298.042969 83.902344 C 297.78125 84.296875 297.558594 84.710938 297.378906 85.148438 C 297.195312 85.585938 297.058594 86.035156 296.96875 86.5 C 296.875 86.960938 296.828125 87.429688 296.828125 87.902344 C 296.828125 88.375 296.875 88.84375 296.96875 89.308594 C 297.058594 89.769531 297.195312 90.222656 297.378906 90.660156 C 297.558594 91.09375 297.78125 91.511719 298.042969 91.902344 C 298.304688 92.296875 298.605469 92.660156 298.941406 92.996094 C 299.273438 93.328125 299.636719 93.628906 300.03125 93.890625 C 300.425781 94.152344 300.839844 94.375 301.277344 94.554688 C 301.714844 94.734375 302.164062 94.871094 302.628906 94.964844 C 303.09375 95.058594 303.5625 95.101562 304.035156 95.101562 C 304.507812 95.101562 304.976562 95.058594 305.441406 94.964844 C 305.902344 94.871094 306.355469 94.734375 306.789062 94.554688 C 307.226562 94.375 307.644531 94.152344 308.035156 93.890625 C 308.429688 93.628906 308.792969 93.328125 309.128906 92.996094 C 309.460938 92.660156 309.761719 92.296875 310.023438 91.902344 C 310.285156 91.511719 310.507812 91.09375 310.691406 90.660156 C 310.871094 90.222656 311.007812 89.769531 311.101562 89.308594 C 311.191406 88.84375 311.238281 88.375 311.238281 87.902344 C 311.238281 87.429688 311.191406 86.960938 311.101562 86.5 C 311.007812 86.035156 310.871094 85.585938 310.691406 85.148438 C 310.507812 84.710938 310.285156 84.296875 310.023438 83.902344 C 309.761719 83.511719 309.460938 83.144531 309.128906 82.8125 C 308.792969 82.476562 308.429688 82.179688 308.035156 81.917969 C 307.644531 81.652344 307.226562 81.433594 306.789062 81.25 C 306.355469 81.070312 305.902344 80.933594 305.441406 80.839844 C 304.976562 80.75 304.507812 80.703125 304.035156 80.703125 Z M 304.035156 295.140625 C 303.5625 295.140625 303.09375 295.1875 302.628906 295.28125 C 302.164062 295.371094 301.714844 295.507812 301.277344 295.6875 C 300.839844 295.871094 300.425781 296.09375 300.03125 296.355469 C 299.636719 296.617188 299.273438 296.914062 298.941406 297.25 C 298.605469 297.585938 298.304688 297.949219 298.042969 298.339844 C 297.78125 298.734375 297.558594 299.148438 297.378906 299.585938 C 297.195312 300.023438 297.058594 300.472656 296.96875 300.9375 C 296.875 301.398438 296.828125 301.867188 296.828125 302.339844 C 296.828125 302.8125 296.875 303.28125 296.96875 303.746094 C 297.058594 304.210938 297.195312 304.660156 297.378906 305.097656 C 297.558594 305.53125 297.78125 305.949219 298.042969 306.339844 C 298.304688 306.734375 298.605469 307.097656 298.941406 307.433594 C 299.273438 307.765625 299.636719 308.066406 300.03125 308.328125 C 300.425781 308.589844 300.839844 308.8125 301.277344 308.992188 C 301.714844 309.175781 302.164062 309.308594 302.628906 309.402344 C 303.09375 309.496094 303.5625 309.539062 304.035156 309.542969 C 304.507812 309.539062 304.976562 309.496094 305.441406 309.402344 C 305.902344 309.308594 306.355469 309.175781 306.789062 308.992188 C 307.226562 308.8125 307.644531 308.589844 308.035156 308.328125 C 308.429688 308.066406 308.792969 307.765625 309.128906 307.433594 C 309.460938 307.097656 309.761719 306.734375 310.023438 306.339844 C 310.285156 305.949219 310.507812 305.53125 310.691406 305.097656 C 310.871094 304.660156 311.007812 304.210938 311.101562 303.746094 C 311.191406 303.28125 311.238281 302.8125 311.238281 302.339844 C 311.238281 301.867188 311.191406 301.398438 311.101562 300.9375 C 311.007812 300.472656 310.871094 300.023438 310.691406 299.585938 C 310.507812 299.148438 310.285156 298.734375 310.023438 298.339844 C 309.761719 297.949219 309.460938 297.585938 309.128906 297.25 C 308.792969 296.914062 308.429688 296.617188 308.035156 296.355469 C 307.644531 296.09375 307.226562 295.871094 306.789062 295.6875 C 306.355469 295.507812 305.902344 295.371094 305.441406 295.28125 C 304.976562 295.1875 304.507812 295.140625 304.035156 295.140625 Z M 304.035156 295.140625 "/>
<path style=" stroke:none;fill-rule:nonzero;fill:rgb(31.369019%,78.42865%,47.059631%);fill-opacity:1;" d="M 346.839844 95.101562 L 346.839844 71.824219 C 341.316406 69.722656 335.734375 66.125 330.75 61.203125 C 325.828125 56.222656 322.226562 50.644531 320.125 45.125 L 57.355469 45.125 C 55.253906 50.644531 51.652344 56.222656 46.730469 61.203125 C 41.746094 66.125 36.164062 69.722656 30.640625 71.824219 L 30.640625 318.421875 C 32.019531 318.960938 33.402344 319.5625 34.78125 320.28125 C 35.144531 320.460938 35.441406 320.640625 35.804688 320.820312 C 36.042969 320.941406 36.285156 321.0625 36.523438 321.242188 C 36.582031 321.242188 36.644531 321.300781 36.703125 321.359375 C 36.882812 321.421875 37.003906 321.539062 37.183594 321.660156 C 38.925781 322.742188 40.667969 323.941406 42.40625 325.261719 C 42.707031 325.5 43.007812 325.742188 43.308594 326.039062 C 43.546875 326.222656 43.726562 326.402344 43.910156 326.582031 C 44.507812 327.121094 45.109375 327.660156 45.710938 328.261719 C 46.007812 328.5625 46.308594 328.859375 46.671875 329.160156 C 46.96875 329.460938 47.269531 329.761719 47.570312 330.121094 C 48.109375 330.722656 48.710938 331.320312 49.25 331.921875 C 49.433594 332.160156 49.613281 332.339844 49.792969 332.582031 L 50.511719 333.480469 C 50.691406 333.660156 50.8125 333.902344 50.992188 334.082031 C 51.292969 334.441406 51.59375 334.859375 51.894531 335.222656 C 52.253906 335.699219 52.554688 336.179688 52.855469 336.601562 C 53.753906 337.980469 54.59375 339.359375 55.375 340.800781 C 55.496094 341.039062 55.617188 341.222656 55.675781 341.460938 L 55.855469 341.820312 C 55.976562 342.0625 56.097656 342.300781 56.15625 342.480469 C 56.574219 343.378906 56.996094 344.28125 57.296875 345.242188 L 320.0625 345.242188 C 322.164062 339.722656 325.765625 334.140625 330.691406 329.160156 C 332.550781 327.300781 334.472656 325.621094 336.515625 324.179688 C 337.535156 323.460938 338.554688 322.742188 339.574219 322.140625 C 340.234375 321.722656 340.957031 321.300781 341.617188 320.941406 C 342.277344 320.582031 342.996094 320.222656 343.660156 319.859375 C 344.679688 319.382812 345.757812 318.902344 346.78125 318.539062 Z M 328.167969 298.679688 C 328.167969 314.039062 315.742188 326.460938 300.371094 326.460938 L 77.109375 326.460938 C 61.738281 326.460938 49.3125 314.039062 49.3125 298.679688 L 49.3125 91.5625 C 49.3125 76.203125 61.738281 63.785156 77.109375 63.785156 L 300.371094 63.785156 C 315.742188 63.785156 328.167969 76.203125 328.167969 91.5625 Z M 328.167969 298.679688 "/>
<g clip-path="url(#clip1)" clip-rule="nonzero">
<path style=" stroke:none;fill-rule:nonzero;fill:rgb(31.369019%,78.42865%,47.059631%);fill-opacity:1;" d="M 131.542969 222.175781 C 128.851562 222.175781 126.296875 220.878906 124.707031 218.703125 C 119.488281 211.566406 115.066406 204.804688 111.429688 198.429688 L 111.429688 284.261719 C 111.429688 289.878906 115.980469 294.433594 121.589844 294.433594 C 127.203125 294.433594 131.753906 289.878906 131.753906 284.261719 L 131.753906 222.164062 C 131.683594 222.164062 131.617188 222.175781 131.542969 222.175781 Z M 131.542969 222.175781 "/>
</g>
<g clip-path="url(#clip2)" clip-rule="nonzero">
<path style=" stroke:none;fill-rule:nonzero;fill:rgb(31.369019%,78.42865%,47.059631%);fill-opacity:1;" d="M 141.917969 218.707031 C 140.425781 220.746094 138.074219 222 135.5625 222.148438 L 135.5625 284.261719 C 135.5625 289.882812 140.113281 294.433594 145.726562 294.433594 C 151.335938 294.433594 155.886719 289.882812 155.886719 284.261719 L 155.886719 197.195312 C 152.128906 203.933594 147.480469 211.101562 141.917969 218.707031 Z M 141.917969 218.707031 "/>
</g>
<g clip-path="url(#clip3)" clip-rule="nonzero">
<path style=" stroke:none;fill-rule:nonzero;fill:rgb(31.369019%,78.42865%,47.059631%);fill-opacity:1;" d="M 126.234375 217.585938 C 127.519531 219.351562 129.519531 220.28125 131.542969 220.28125 C 132.136719 220.28125 132.730469 220.1875 133.3125 220.023438 C 133.894531 220.1875 134.488281 220.28125 135.082031 220.28125 C 137.105469 220.28125 139.105469 219.347656 140.394531 217.585938 C 154.335938 198.523438 162.550781 182.273438 164.996094 169.003906 C 166.316406 161.828125 165.957031 155.523438 163.886719 150.121094 C 161.453125 143.757812 157.019531 139.761719 152.980469 137.472656 C 151.402344 142.171875 148.160156 146.109375 143.953125 148.582031 C 144.398438 155.601562 143.96875 163.03125 140.578125 165.222656 C 140.230469 165.449219 139.910156 165.65625 139.59375 165.859375 L 137.578125 151.007812 C 136.308594 151.253906 135 151.390625 133.65625 151.390625 C 132.316406 151.390625 131.007812 151.253906 129.738281 151.007812 L 127.722656 165.859375 C 127.40625 165.65625 127.085938 165.449219 126.738281 165.222656 C 123.347656 163.03125 122.917969 155.601562 123.363281 148.585938 C 119.0625 146.054688 115.761719 141.992188 114.226562 137.148438 C 110.042969 139.375 105.289062 143.453125 102.738281 150.121094 C 100.671875 155.523438 100.308594 161.828125 101.632812 169.003906 C 104.074219 182.273438 112.292969 198.523438 126.234375 217.585938 Z M 117.023438 169.003906 C 118.867188 176.359375 123.398438 186.867188 133.3125 201.511719 C 143.226562 186.867188 147.757812 176.359375 149.601562 169.003906 L 151.59375 169.003906 C 149.640625 177.128906 144.554688 188.6875 133.3125 204.855469 C 122.070312 188.6875 116.984375 177.128906 115.03125 169.003906 Z M 117.023438 169.003906 "/>
</g>
<g clip-path="url(#clip4)" clip-rule="nonzero">
<path style=" stroke:none;fill-rule:nonzero;fill:rgb(31.369019%,78.42865%,47.059631%);fill-opacity:1;" d="M 133.660156 149.496094 C 143.875 149.496094 152.152344 141.210938 152.152344 130.988281 C 152.152344 120.765625 143.875 112.476562 133.660156 112.476562 C 123.445312 112.476562 115.164062 120.765625 115.164062 130.988281 C 115.164062 141.210938 123.445312 149.496094 133.660156 149.496094 Z M 145.195312 138.089844 C 142.804688 141.964844 138.535156 144.5625 133.660156 144.5625 C 128.785156 144.5625 124.515625 141.964844 122.125 138.089844 Z M 145.195312 138.089844 "/>
</g>
<g clip-path="url(#clip5)" clip-rule="nonzero">
<path style=" stroke:none;fill-rule:nonzero;fill:rgb(31.369019%,78.42865%,47.059631%);fill-opacity:1;" d="M 209.429688 178.6875 C 203.871094 179 200.09375 179.90625 197.6875 181.242188 C 195.527344 182.445312 194.664062 184.039062 194.636719 185.863281 C 194.558594 190.726562 199.273438 197.71875 203.496094 203.988281 C 204.765625 205.875 205.996094 207.699219 207.105469 209.488281 C 207.191406 209.625 207.261719 209.765625 207.324219 209.910156 C 208.714844 213.292969 207.976562 216.460938 206.179688 218.683594 C 205.390625 219.65625 204.398438 220.445312 203.289062 220.984375 C 202.171875 221.523438 200.925781 221.816406 199.644531 221.796875 C 196.894531 221.753906 194.078125 220.328125 192.164062 216.925781 L 192.164062 216.929688 C 191.691406 216.152344 190.988281 215.066406 190.179688 213.808594 C 185.277344 206.203125 176.464844 192.539062 176.644531 183.292969 C 176.753906 177.644531 179.589844 172.355469 187.289062 167.871094 C 194.25 163.820312 205.449219 160.355469 222.746094 157.828125 C 222.804688 157.820312 222.863281 157.816406 222.925781 157.808594 C 223.582031 157.714844 224.289062 157.558594 224.988281 157.410156 C 226.417969 157.097656 227.804688 156.796875 229.808594 156.792969 C 231.84375 156.785156 233.253906 157.089844 234.714844 157.40625 C 235.460938 157.570312 236.226562 157.738281 236.933594 157.828125 C 253.789062 160.097656 261.269531 137.339844 266.894531 120.226562 C 268.042969 116.742188 269.117188 113.476562 270.269531 110.453125 C 270.988281 105.859375 273.53125 103.101562 276.433594 102.046875 C 277.675781 101.59375 278.980469 101.460938 280.246094 101.628906 C 281.511719 101.800781 282.738281 102.277344 283.820312 103.042969 C 286.394531 104.867188 288.136719 108.3125 287.492188 113.105469 C 287.453125 113.402344 287.367188 113.679688 287.25 113.9375 C 285.378906 118.816406 283.660156 124.125 281.933594 129.457031 C 275.386719 149.679688 268.738281 170.207031 250.277344 177.691406 C 250.296875 184.285156 250.324219 189.460938 250.347656 194.632812 C 250.371094 200.203125 250.398438 205.773438 250.425781 213.265625 C 251.394531 217.339844 254.957031 221.992188 258.679688 226.859375 C 262.269531 231.550781 265.996094 236.425781 268.160156 241.683594 C 272.179688 251.453125 265.261719 263.226562 259.773438 272.558594 C 257.40625 276.589844 255.335938 280.109375 254.847656 282.285156 C 254.828125 282.375 254.804688 282.460938 254.777344 282.546875 L 254.78125 282.546875 C 253.4375 286.667969 250.460938 288.652344 247.335938 288.972656 C 246.082031 289.097656 244.820312 288.949219 243.648438 288.550781 C 242.488281 288.15625 241.394531 287.511719 240.457031 286.644531 C 238.09375 284.460938 236.808594 280.960938 238.167969 276.714844 C 238.894531 273.441406 241.035156 270.054688 243.347656 266.394531 C 247.136719 260.394531 251.476562 253.523438 248.769531 247.496094 C 248.300781 246.457031 246.527344 244.21875 244.394531 241.53125 C 239.929688 235.902344 234.042969 228.484375 232.910156 222.5 C 232.710938 222.199219 232.027344 221.984375 231.199219 221.855469 C 230.644531 221.769531 230.015625 221.753906 229.375 221.804688 C 228.746094 221.851562 228.164062 221.960938 227.675781 222.113281 C 227.175781 222.273438 226.886719 222 226.863281 222.15625 L 226.859375 222.167969 L 226.863281 222.167969 C 226.085938 226.988281 222.773438 231.304688 219.464844 235.625 C 216.625 239.332031 213.777344 243.039062 213.207031 246.363281 C 213.085938 248.40625 214.6875 251.476562 216.414062 254.789062 C 218.4375 258.671875 220.609375 262.835938 221.070312 267.332031 C 221.085938 267.492188 221.085938 267.652344 221.078125 267.808594 C 220.980469 271.3125 219.363281 273.8125 217.125 275.21875 C 215.945312 275.964844 214.601562 276.382812 213.226562 276.472656 C 211.886719 276.558594 210.503906 276.324219 209.203125 275.761719 C 206.554688 274.613281 204.289062 272.132812 203.542969 268.273438 C 203.027344 266.058594 201.558594 263.589844 200.042969 261.042969 C 197.230469 256.328125 194.285156 251.382812 195.097656 245.480469 C 195.929688 239.449219 199.253906 233.824219 202.582031 228.195312 C 205.582031 223.125 208.582031 218.050781 209.289062 213.261719 Z M 194.84375 176.140625 C 198.460938 174.128906 204.054688 172.890625 212.320312 172.742188 L 212.378906 172.742188 C 213.988281 172.75 215.292969 174.0625 215.285156 175.671875 L 215.132812 213.367188 C 215.136719 213.539062 215.132812 213.714844 215.109375 213.890625 C 214.277344 219.917969 210.949219 225.546875 207.625 231.171875 C 204.59375 236.296875 201.5625 241.425781 200.894531 246.257812 C 200.355469 250.175781 202.761719 254.21875 205.058594 258.070312 C 206.824219 261.035156 208.535156 263.90625 209.246094 266.964844 L 209.246094 266.96875 C 209.253906 267.007812 209.261719 267.050781 209.269531 267.09375 C 209.597656 268.878906 210.492188 269.960938 211.515625 270.40625 C 211.945312 270.589844 212.40625 270.667969 212.859375 270.636719 C 213.273438 270.613281 213.671875 270.492188 214.011719 270.277344 C 214.679688 269.855469 215.171875 269.015625 215.230469 267.75 C 214.851562 264.464844 212.96875 260.859375 211.210938 257.488281 C 209.074219 253.386719 207.089844 249.585938 207.382812 245.847656 C 207.390625 245.742188 207.402344 245.636719 207.417969 245.53125 C 208.195312 240.710938 211.503906 236.394531 214.8125 232.078125 C 217.679688 228.339844 220.550781 224.597656 221.085938 221.253906 L 221.089844 221.253906 C 221.449219 218.960938 223.386719 217.359375 225.90625 216.554688 C 226.867188 216.246094 227.910156 216.046875 228.941406 215.96875 C 229.960938 215.890625 231.039062 215.925781 232.09375 216.089844 C 234.964844 216.53125 237.5 217.957031 238.453125 220.625 C 238.535156 220.824219 238.589844 221.035156 238.625 221.253906 C 239.355469 225.789062 244.835938 232.695312 248.976562 237.917969 C 251.363281 240.925781 253.347656 243.425781 254.109375 245.117188 C 258.097656 253.992188 252.863281 262.277344 248.296875 269.507812 C 246.242188 272.753906 244.347656 275.757812 243.867188 278.023438 C 243.84375 278.148438 243.808594 278.277344 243.765625 278.40625 C 243.164062 280.210938 243.574219 281.585938 244.421875 282.367188 C 244.730469 282.652344 245.109375 282.871094 245.523438 283.011719 C 245.925781 283.148438 246.339844 283.199219 246.738281 283.160156 C 247.707031 283.058594 248.667969 282.335938 249.1875 280.808594 C 249.925781 277.785156 252.171875 273.964844 254.730469 269.609375 C 259.570312 261.378906 265.671875 250.996094 262.753906 243.902344 C 260.890625 239.375 257.394531 234.804688 254.027344 230.402344 C 249.820312 224.90625 245.796875 219.648438 244.640625 214.234375 L 244.644531 214.234375 C 244.605469 214.039062 244.582031 213.835938 244.582031 213.625 C 244.554688 206.042969 244.53125 200.347656 244.503906 194.65625 C 244.480469 189.046875 244.453125 183.4375 244.425781 175.867188 C 244.332031 174.574219 245.121094 173.328125 246.40625 172.894531 C 263.617188 167.058594 270.039062 147.210938 276.367188 127.671875 C 278.074219 122.394531 279.773438 117.140625 281.730469 112.03125 C 281.953125 109.871094 281.347656 108.453125 280.429688 107.800781 C 280.136719 107.59375 279.804688 107.464844 279.464844 107.421875 C 279.125 107.375 278.769531 107.410156 278.429688 107.539062 C 277.324219 107.9375 276.332031 109.234375 276.019531 111.5625 L 276.011719 111.5625 C 275.980469 111.78125 275.929688 112 275.84375 112.214844 C 274.808594 114.898438 273.675781 118.34375 272.464844 122.035156 C 266.183594 141.140625 257.835938 166.535156 236.15625 163.621094 C 235.078125 163.476562 234.265625 163.300781 233.472656 163.128906 C 232.289062 162.871094 231.144531 162.625 229.808594 162.628906 C 228.523438 162.632812 227.390625 162.878906 226.222656 163.128906 C 225.476562 163.292969 224.71875 163.457031 223.734375 163.597656 C 223.6875 163.605469 223.640625 163.613281 223.59375 163.621094 C 207.082031 166.03125 196.570312 169.230469 190.222656 172.929688 C 184.617188 176.195312 182.554688 179.738281 182.488281 183.382812 C 182.339844 190.855469 190.542969 203.574219 195.105469 210.652344 C 195.898438 211.882812 196.585938 212.949219 197.160156 213.886719 L 197.15625 213.886719 C 197.179688 213.925781 197.207031 213.96875 197.230469 214.011719 C 197.980469 215.378906 198.894531 215.949219 199.714844 215.960938 C 200.0625 215.964844 200.414062 215.878906 200.742188 215.71875 C 201.078125 215.558594 201.378906 215.316406 201.621094 215.019531 C 202.152344 214.367188 202.371094 213.402344 201.988281 212.320312 C 201.011719 210.761719 199.84375 209.027344 198.636719 207.238281 C 193.933594 200.257812 188.6875 192.472656 188.792969 185.769531 C 188.855469 181.863281 190.570312 178.519531 194.84375 176.140625 "/>
</g>
<path style=" stroke:none;fill-rule:nonzero;fill:rgb(31.369019%,78.42865%,47.059631%);fill-opacity:1;" d="M 229.609375 118.589844 C 234.332031 118.589844 238.609375 120.503906 241.703125 123.59375 C 244.796875 126.6875 246.710938 130.957031 246.710938 135.671875 C 246.710938 140.390625 244.796875 144.65625 241.703125 147.75 C 238.609375 150.839844 234.332031 152.753906 229.609375 152.753906 C 224.886719 152.753906 220.609375 150.839844 217.515625 147.75 C 214.421875 144.65625 212.507812 140.390625 212.507812 135.671875 C 212.507812 130.957031 214.421875 126.6875 217.515625 123.59375 C 220.609375 120.503906 224.886719 118.589844 229.609375 118.589844 Z M 237.554688 127.738281 C 235.523438 125.707031 232.710938 124.449219 229.609375 124.449219 C 226.507812 124.449219 223.699219 125.707031 221.664062 127.738281 C 219.628906 129.765625 218.375 132.574219 218.375 135.671875 C 218.375 138.773438 219.628906 141.578125 221.664062 143.605469 C 223.699219 145.640625 226.507812 146.894531 229.609375 146.894531 C 232.710938 146.894531 235.523438 145.640625 237.554688 143.605469 C 239.589844 141.578125 240.847656 138.773438 240.847656 135.671875 C 240.847656 132.574219 239.589844 129.765625 237.554688 127.738281 "/>
</g>
</svg>
