<?xml version="1.0" encoding="UTF-8"?>
<svg xmlns="http://www.w3.org/2000/svg" xmlns:xlink="http://www.w3.org/1999/xlink" width="375pt" height="374.999991pt" viewBox="0 0 375 374.999991" version="1.2">
<defs>
<clipPath id="clip1">
  <path d="M 172 192 L 275 192 L 275 295.007812 L 172 295.007812 Z M 172 192 "/>
</clipPath>
<clipPath id="clip2">
  <path d="M 85.441406 106 L 237 106 L 237 264 L 85.441406 264 Z M 85.441406 106 "/>
</clipPath>
</defs>
<g id="surface1">
<path style=" stroke:none;fill-rule:nonzero;fill:rgb(10.5896%,15.289307%,21.179199%);fill-opacity:1;" d="M 318.839844 91.5625 L 318.839844 298.683594 C 318.839844 314.042969 306.421875 326.460938 291.058594 326.460938 L 83.941406 326.460938 C 68.578125 326.460938 56.160156 314.042969 56.160156 298.683594 L 56.160156 91.5625 C 56.160156 76.203125 68.578125 63.78125 83.941406 63.78125 L 291.058594 63.78125 C 306.421875 63.78125 318.839844 76.203125 318.839844 91.5625 Z M 318.839844 91.5625 "/>
<path style=" stroke:none;fill-rule:nonzero;fill:rgb(31.369019%,78.42865%,47.059631%);fill-opacity:1;" d="M 80.28125 295.140625 C 79.808594 295.140625 79.339844 295.1875 78.875 295.28125 C 78.410156 295.371094 77.960938 295.507812 77.523438 295.691406 C 77.089844 295.871094 76.671875 296.09375 76.28125 296.355469 C 75.886719 296.617188 75.523438 296.917969 75.1875 297.25 C 74.855469 297.585938 74.554688 297.949219 74.292969 298.34375 C 74.03125 298.734375 73.808594 299.148438 73.628906 299.585938 C 73.445312 300.023438 73.3125 300.472656 73.21875 300.9375 C 73.125 301.402344 73.078125 301.871094 73.078125 302.34375 C 73.078125 302.816406 73.125 303.28125 73.21875 303.746094 C 73.3125 304.210938 73.445312 304.660156 73.628906 305.097656 C 73.808594 305.535156 74.03125 305.949219 74.292969 306.34375 C 74.554688 306.734375 74.855469 307.097656 75.1875 307.433594 C 75.523438 307.765625 75.886719 308.066406 76.28125 308.328125 C 76.671875 308.589844 77.089844 308.8125 77.523438 308.992188 C 77.960938 309.175781 78.410156 309.3125 78.875 309.402344 C 79.339844 309.496094 79.808594 309.542969 80.28125 309.542969 C 80.753906 309.542969 81.222656 309.496094 81.683594 309.402344 C 82.148438 309.3125 82.597656 309.175781 83.035156 308.992188 C 83.472656 308.8125 83.886719 308.589844 84.28125 308.328125 C 84.671875 308.066406 85.035156 307.765625 85.371094 307.433594 C 85.707031 307.097656 86.003906 306.734375 86.265625 306.34375 C 86.527344 305.949219 86.75 305.535156 86.933594 305.097656 C 87.113281 304.660156 87.25 304.210938 87.339844 303.746094 C 87.433594 303.28125 87.480469 302.816406 87.480469 302.34375 C 87.480469 301.871094 87.433594 301.402344 87.339844 300.9375 C 87.25 300.472656 87.113281 300.023438 86.933594 299.585938 C 86.75 299.148438 86.527344 298.734375 86.265625 298.34375 C 86.003906 297.949219 85.707031 297.585938 85.371094 297.25 C 85.035156 296.917969 84.671875 296.617188 84.28125 296.355469 C 83.886719 296.09375 83.472656 295.871094 83.035156 295.691406 C 82.597656 295.507812 82.148438 295.371094 81.683594 295.28125 C 81.222656 295.1875 80.753906 295.140625 80.28125 295.140625 Z M 80.28125 80.703125 C 79.808594 80.703125 79.339844 80.75 78.875 80.839844 C 78.410156 80.933594 77.960938 81.070312 77.523438 81.25 C 77.089844 81.429688 76.671875 81.652344 76.28125 81.914062 C 75.886719 82.179688 75.523438 82.476562 75.1875 82.8125 C 74.855469 83.144531 74.554688 83.507812 74.292969 83.902344 C 74.03125 84.292969 73.808594 84.710938 73.628906 85.148438 C 73.445312 85.582031 73.3125 86.035156 73.21875 86.496094 C 73.125 86.960938 73.078125 87.429688 73.078125 87.902344 C 73.078125 88.375 73.125 88.84375 73.21875 89.304688 C 73.3125 89.769531 73.445312 90.21875 73.628906 90.65625 C 73.808594 91.09375 74.03125 91.507812 74.292969 91.902344 C 74.554688 92.296875 74.855469 92.660156 75.1875 92.992188 C 75.523438 93.328125 75.886719 93.625 76.28125 93.886719 C 76.671875 94.152344 77.089844 94.371094 77.523438 94.554688 C 77.960938 94.734375 78.410156 94.871094 78.875 94.964844 C 79.339844 95.054688 79.808594 95.101562 80.28125 95.101562 C 80.753906 95.101562 81.222656 95.054688 81.683594 94.964844 C 82.148438 94.871094 82.597656 94.734375 83.035156 94.554688 C 83.472656 94.371094 83.886719 94.152344 84.28125 93.886719 C 84.671875 93.625 85.035156 93.328125 85.371094 92.992188 C 85.707031 92.660156 86.003906 92.296875 86.265625 91.902344 C 86.527344 91.507812 86.75 91.09375 86.933594 90.65625 C 87.113281 90.21875 87.25 89.769531 87.339844 89.304688 C 87.433594 88.84375 87.480469 88.375 87.480469 87.902344 C 87.480469 87.429688 87.433594 86.960938 87.339844 86.496094 C 87.25 86.035156 87.113281 85.582031 86.933594 85.148438 C 86.75 84.710938 86.527344 84.292969 86.265625 83.902344 C 86.003906 83.507812 85.707031 83.144531 85.371094 82.8125 C 85.035156 82.476562 84.671875 82.179688 84.28125 81.914062 C 83.886719 81.652344 83.472656 81.429688 83.035156 81.25 C 82.597656 81.070312 82.148438 80.933594 81.683594 80.839844 C 81.222656 80.75 80.753906 80.703125 80.28125 80.703125 Z M 294.71875 80.703125 C 294.246094 80.703125 293.777344 80.75 293.316406 80.839844 C 292.851562 80.933594 292.402344 81.070312 291.964844 81.25 C 291.527344 81.429688 291.113281 81.652344 290.71875 81.914062 C 290.328125 82.179688 289.964844 82.476562 289.628906 82.8125 C 289.292969 83.144531 288.996094 83.507812 288.734375 83.902344 C 288.472656 84.292969 288.25 84.710938 288.066406 85.148438 C 287.886719 85.582031 287.75 86.035156 287.660156 86.496094 C 287.566406 86.960938 287.519531 87.429688 287.519531 87.902344 C 287.519531 88.375 287.566406 88.84375 287.660156 89.304688 C 287.75 89.769531 287.886719 90.21875 288.066406 90.65625 C 288.25 91.09375 288.472656 91.507812 288.734375 91.902344 C 288.996094 92.296875 289.292969 92.660156 289.628906 92.992188 C 289.964844 93.328125 290.328125 93.625 290.71875 93.886719 C 291.113281 94.152344 291.527344 94.371094 291.964844 94.554688 C 292.402344 94.734375 292.851562 94.871094 293.316406 94.964844 C 293.777344 95.054688 294.246094 95.101562 294.71875 95.101562 C 295.191406 95.101562 295.660156 95.054688 296.125 94.964844 C 296.589844 94.871094 297.039062 94.734375 297.476562 94.554688 C 297.910156 94.371094 298.328125 94.152344 298.71875 93.886719 C 299.113281 93.625 299.476562 93.328125 299.8125 92.992188 C 300.144531 92.660156 300.445312 92.296875 300.707031 91.902344 C 300.96875 91.507812 301.191406 91.09375 301.371094 90.65625 C 301.554688 90.21875 301.6875 89.769531 301.78125 89.304688 C 301.875 88.84375 301.921875 88.375 301.921875 87.902344 C 301.921875 87.429688 301.875 86.960938 301.78125 86.496094 C 301.6875 86.035156 301.554688 85.582031 301.371094 85.148438 C 301.191406 84.710938 300.96875 84.292969 300.707031 83.902344 C 300.445312 83.507812 300.144531 83.144531 299.8125 82.8125 C 299.476562 82.476562 299.113281 82.179688 298.71875 81.914062 C 298.328125 81.652344 297.910156 81.429688 297.476562 81.25 C 297.039062 81.070312 296.589844 80.933594 296.125 80.839844 C 295.660156 80.75 295.191406 80.703125 294.71875 80.703125 Z M 294.71875 295.140625 C 294.246094 295.140625 293.777344 295.1875 293.316406 295.28125 C 292.851562 295.371094 292.402344 295.507812 291.964844 295.691406 C 291.527344 295.871094 291.113281 296.09375 290.71875 296.355469 C 290.328125 296.617188 289.964844 296.917969 289.628906 297.25 C 289.292969 297.585938 288.996094 297.949219 288.734375 298.34375 C 288.472656 298.734375 288.25 299.148438 288.066406 299.585938 C 287.886719 300.023438 287.75 300.472656 287.660156 300.9375 C 287.566406 301.402344 287.519531 301.871094 287.519531 302.34375 C 287.519531 302.816406 287.566406 303.28125 287.660156 303.746094 C 287.75 304.210938 287.886719 304.660156 288.066406 305.097656 C 288.25 305.535156 288.472656 305.949219 288.734375 306.34375 C 288.996094 306.734375 289.292969 307.097656 289.628906 307.433594 C 289.964844 307.765625 290.328125 308.066406 290.71875 308.328125 C 291.113281 308.589844 291.527344 308.8125 291.964844 308.992188 C 292.402344 309.175781 292.851562 309.3125 293.316406 309.402344 C 293.777344 309.496094 294.246094 309.542969 294.71875 309.542969 C 295.191406 309.542969 295.660156 309.496094 296.125 309.402344 C 296.589844 309.3125 297.039062 309.175781 297.476562 308.992188 C 297.910156 308.8125 298.328125 308.589844 298.71875 308.328125 C 299.113281 308.066406 299.476562 307.765625 299.8125 307.433594 C 300.144531 307.097656 300.445312 306.734375 300.707031 306.34375 C 300.96875 305.949219 301.191406 305.535156 301.371094 305.097656 C 301.554688 304.660156 301.6875 304.210938 301.78125 303.746094 C 301.875 303.28125 301.921875 302.816406 301.921875 302.34375 C 301.921875 301.871094 301.875 301.402344 301.78125 300.9375 C 301.6875 300.472656 301.554688 300.023438 301.371094 299.585938 C 301.191406 299.148438 300.96875 298.734375 300.707031 298.34375 C 300.445312 297.949219 300.144531 297.585938 299.8125 297.25 C 299.476562 296.917969 299.113281 296.617188 298.71875 296.355469 C 298.328125 296.09375 297.910156 295.871094 297.476562 295.691406 C 297.039062 295.507812 296.589844 295.371094 296.125 295.28125 C 295.660156 295.1875 295.191406 295.140625 294.71875 295.140625 Z M 294.71875 295.140625 "/>
<path style=" stroke:none;fill-rule:nonzero;fill:rgb(31.369019%,78.42865%,47.059631%);fill-opacity:1;" d="M 337.5 95.101562 L 337.5 71.820312 C 331.980469 69.722656 326.398438 66.121094 321.421875 61.203125 C 316.5 56.222656 312.898438 50.640625 310.800781 45.121094 L 64.199219 45.121094 C 62.101562 50.640625 58.5 56.222656 53.578125 61.203125 C 48.601562 66.121094 43.019531 69.722656 37.5 71.820312 L 37.5 318.421875 C 38.878906 318.960938 40.261719 319.5625 41.640625 320.28125 C 42 320.460938 42.300781 320.640625 42.660156 320.820312 C 42.898438 320.941406 43.140625 321.0625 43.378906 321.242188 C 43.441406 321.242188 43.5 321.300781 43.558594 321.363281 C 43.738281 321.421875 43.859375 321.542969 44.039062 321.660156 C 45.78125 322.742188 47.519531 323.941406 49.261719 325.261719 C 49.558594 325.5 49.859375 325.742188 50.160156 326.042969 C 50.398438 326.222656 50.578125 326.402344 50.761719 326.582031 C 51.359375 327.121094 51.960938 327.660156 52.558594 328.261719 C 52.859375 328.5625 53.160156 328.863281 53.519531 329.160156 C 53.820312 329.460938 54.121094 329.761719 54.421875 330.121094 C 54.960938 330.722656 55.558594 331.320312 56.101562 331.921875 C 56.28125 332.160156 56.460938 332.34375 56.640625 332.582031 L 57.359375 333.480469 C 57.539062 333.660156 57.660156 333.902344 57.839844 334.082031 C 58.140625 334.441406 58.441406 334.863281 58.738281 335.222656 C 59.101562 335.703125 59.398438 336.183594 59.699219 336.601562 C 60.601562 337.980469 61.441406 339.363281 62.21875 340.800781 C 62.339844 341.042969 62.460938 341.222656 62.519531 341.460938 L 62.699219 341.820312 C 62.820312 342.0625 62.941406 342.300781 63 342.480469 C 63.421875 343.382812 63.839844 344.28125 64.140625 345.242188 L 310.738281 345.242188 C 312.839844 339.722656 316.441406 334.140625 321.359375 329.160156 C 323.21875 327.300781 325.140625 325.621094 327.179688 324.183594 C 328.199219 323.460938 329.21875 322.742188 330.238281 322.140625 C 330.898438 321.722656 331.621094 321.300781 332.28125 320.941406 C 332.941406 320.582031 333.660156 320.222656 334.320312 319.863281 C 335.339844 319.382812 336.421875 318.902344 337.441406 318.542969 Z M 318.839844 298.683594 C 318.839844 314.042969 306.421875 326.460938 291.058594 326.460938 L 83.941406 326.460938 C 68.578125 326.460938 56.160156 314.042969 56.160156 298.683594 L 56.160156 91.5625 C 56.160156 76.203125 68.578125 63.78125 83.941406 63.78125 L 291.058594 63.78125 C 306.421875 63.78125 318.839844 76.203125 318.839844 91.5625 Z M 318.839844 298.683594 "/>
<g clip-path="url(#clip1)" clip-rule="nonzero">
<path style=" stroke:none;fill-rule:nonzero;fill:rgb(31.369019%,78.42865%,47.059631%);fill-opacity:1;" d="M 223.621094 295.007812 C 195.402344 295.007812 172.445312 272.050781 172.445312 243.832031 C 172.445312 215.613281 195.402344 192.65625 223.621094 192.65625 C 251.839844 192.65625 274.796875 215.613281 274.796875 243.832031 C 274.796875 272.050781 251.839844 295.007812 223.621094 295.007812 Z M 223.621094 204.464844 C 201.914062 204.464844 184.253906 222.125 184.253906 243.832031 C 184.253906 265.539062 201.914062 283.199219 223.621094 283.199219 C 245.328125 283.199219 262.988281 265.539062 262.988281 243.832031 C 262.988281 222.125 245.328125 204.464844 223.621094 204.464844 Z M 223.621094 204.464844 "/>
</g>
<path style=" stroke:none;fill-rule:nonzero;fill:rgb(31.369019%,78.42865%,47.059631%);fill-opacity:1;" d="M 237.398438 267.453125 C 235.886719 267.453125 234.375 266.878906 233.226562 265.71875 L 219.449219 251.941406 C 218.339844 250.832031 217.714844 249.328125 217.714844 247.769531 L 217.714844 222.179688 C 217.714844 218.921875 220.363281 216.273438 223.621094 216.273438 C 226.878906 216.273438 229.527344 218.921875 229.527344 222.179688 L 229.527344 245.320312 L 241.574219 257.367188 C 243.878906 259.671875 243.878906 263.414062 241.574219 265.71875 C 240.421875 266.878906 238.910156 267.453125 237.398438 267.453125 Z M 237.398438 267.453125 "/>
<g clip-path="url(#clip2)" clip-rule="nonzero">
<path style=" stroke:none;fill-rule:nonzero;fill:rgb(31.369019%,78.42865%,47.059631%);fill-opacity:1;" d="M 150.792969 263.515625 L 127.171875 263.515625 C 117.398438 263.515625 109.457031 255.570312 109.457031 245.800781 L 109.457031 196.589844 L 95.675781 196.589844 C 90.253906 196.589844 85.835938 192.175781 85.835938 186.75 C 85.835938 183.992188 87.007812 181.355469 89.054688 179.519531 L 164.429688 107.675781 C 166.710938 105.511719 170.292969 105.503906 172.578125 107.675781 L 192.128906 126.28125 L 192.128906 119.824219 C 192.128906 116.566406 194.773438 113.921875 198.03125 113.921875 L 221.652344 113.921875 C 224.914062 113.921875 227.558594 116.566406 227.558594 119.824219 L 227.558594 160.058594 L 234.785156 166.972656 C 237.140625 169.222656 237.226562 172.960938 234.964844 175.324219 C 232.707031 177.671875 228.96875 177.757812 226.613281 175.507812 L 217.558594 166.84375 C 216.402344 165.734375 215.746094 164.191406 215.746094 162.578125 L 215.746094 125.730469 L 203.9375 125.730469 L 203.9375 140.058594 C 203.9375 142.421875 202.527344 144.554688 200.355469 145.484375 C 198.183594 146.40625 195.664062 145.957031 193.960938 144.335938 L 168.507812 120.109375 L 100.652344 184.78125 L 115.359375 184.78125 C 118.621094 184.78125 121.265625 187.425781 121.265625 190.6875 L 121.265625 245.800781 C 121.265625 249.058594 123.910156 251.707031 127.171875 251.707031 L 150.792969 251.707031 C 154.050781 251.707031 156.695312 254.351562 156.695312 257.609375 C 156.695312 260.871094 154.050781 263.515625 150.792969 263.515625 Z M 97.132812 188.136719 L 97.078125 188.191406 C 97.09375 188.175781 97.117188 188.160156 97.132812 188.136719 Z M 97.132812 188.136719 "/>
</g>
</g>
</svg>
