<?xml version="1.0" encoding="UTF-8"?>
<svg xmlns="http://www.w3.org/2000/svg" xmlns:xlink="http://www.w3.org/1999/xlink" width="375pt" height="374.999991pt" viewBox="0 0 375 374.999991" version="1.2">
<defs>
<clipPath id="clip1">
  <path d="M 37.5 266 L 312.75 266 L 312.75 279.253906 L 37.5 279.253906 Z M 37.5 266 "/>
</clipPath>
<clipPath id="clip2">
  <path d="M 222 109.753906 L 269 109.753906 L 269 268 L 222 268 Z M 222 109.753906 "/>
</clipPath>
</defs>
<g id="surface1">
<path style=" stroke:none;fill-rule:nonzero;fill:rgb(31.369019%,78.42865%,47.059631%);fill-opacity:1;" d="M 159.015625 252.402344 C 150.871094 250.011719 119.109375 249.753906 117.25 245.941406 C 121.417969 244.09375 114.1875 223.984375 115.308594 223.777344 C 117.546875 223.371094 116.601562 241.089844 117.25 245.941406 C 119.65625 246.46875 132.949219 248.210938 136.828125 248.476562 C 137.226562 238.132812 129.832031 218.195312 130.59375 201.632812 C 131.027344 192.273438 129.980469 182.726562 126.496094 174.035156 C 126.015625 172.824219 125.480469 171.640625 124.953125 170.453125 C 119.417969 177.375 105.820312 182.96875 97.226562 185.085938 C 95.777344 185.441406 96.910156 184.46875 95.777344 185.441406 C 94.152344 186.84375 95.722656 202 95.566406 204.140625 C 94.96875 212.46875 90.527344 255.261719 91.4375 257.339844 C 91.851562 258.285156 95.042969 263.207031 95.949219 263.6875 C 102.570312 267.1875 146.207031 265.300781 155.835938 265.863281 C 153.972656 262.097656 156.066406 254.160156 159.015625 252.402344 "/>
<path style=" stroke:none;fill-rule:nonzero;fill:rgb(31.369019%,78.42865%,47.059631%);fill-opacity:1;" d="M 148.863281 213.742188 L 149.179688 215.851562 L 140.875 217.566406 C 141.035156 220.457031 144.542969 246.179688 144.90625 249.054688 C 146.515625 249.152344 149.515625 249.597656 154.632812 249.894531 C 155.546875 245.648438 152.21875 233.78125 152.523438 229.203125 C 153.410156 216.167969 150.699219 190.652344 137.5 183.78125 C 137.710938 181.878906 139.605469 180.222656 140.96875 178.867188 C 141.996094 178.917969 143.074219 178.984375 143.953125 179.519531 C 144.835938 180.054688 145.421875 181.222656 144.960938 182.144531 C 141.054688 189.953125 141.863281 201.355469 141.136719 210.3125 C 141.003906 211.96875 140.867188 213.628906 140.839844 215.292969 L 148.863281 213.742188 "/>
<g clip-path="url(#clip1)" clip-rule="nonzero">
<path style=" stroke:none;fill-rule:nonzero;fill:rgb(31.369019%,78.42865%,47.059631%);fill-opacity:1;" d="M 308.734375 278.277344 L 41.542969 279.195312 C 39.328125 279.203125 37.511719 277.398438 37.503906 275.179688 L 37.492188 271.960938 C 37.484375 269.742188 39.289062 267.921875 41.5 267.917969 L 308.695312 266.996094 C 310.90625 266.988281 312.722656 268.792969 312.734375 271.007812 L 312.742188 274.234375 C 312.75 276.449219 310.945312 278.265625 308.734375 278.277344 "/>
</g>
<path style=" stroke:none;fill-rule:nonzero;fill:rgb(31.369019%,78.42865%,47.059631%);fill-opacity:1;" d="M 168.375 264.660156 C 167.425781 264.207031 165.585938 262.714844 165.164062 262.148438 C 164.589844 261.378906 163.628906 260.414062 163.15625 259.371094 C 161.824219 256.410156 161.351562 253.308594 161.351562 253.308594 C 160.9375 253.121094 160.765625 253.03125 160.09375 252.980469 C 159.347656 252.910156 158.636719 253.316406 158.296875 253.988281 C 158.199219 254.1875 158.085938 254.402344 157.96875 254.628906 C 157.382812 255.742188 156.585938 257.269531 156.160156 259.035156 C 155.84375 260.355469 156.519531 265.003906 157.234375 265.4375 C 157.671875 265.703125 160.0625 265.769531 162.398438 265.769531 C 164.835938 265.769531 167.214844 265.699219 167.261719 265.695312 C 167.472656 265.6875 168.765625 265.503906 168.808594 265.292969 C 168.855469 265.082031 168.570312 264.753906 168.375 264.660156 "/>
<path style=" stroke:none;fill-rule:nonzero;fill:rgb(31.369019%,78.42865%,47.059631%);fill-opacity:1;" d="M 187.238281 267.472656 L 170.25 267.472656 L 170.25 246.578125 L 187.238281 246.578125 L 187.238281 267.472656 "/>
<path style=" stroke:none;fill-rule:nonzero;fill:rgb(31.369019%,78.42865%,47.059631%);fill-opacity:1;" d="M 167.730469 250.6875 C 167.820312 251.375 167.90625 252.058594 167.992188 252.746094 C 168.769531 252.375 169.546875 252.003906 170.324219 251.628906 C 168.074219 249.730469 163.078125 248.960938 162.371094 252.953125 C 162.027344 254.886719 163.394531 257.234375 164.109375 258.945312 C 164.984375 261.042969 166.0625 262.199219 168.066406 263.292969 C 168.707031 263.644531 170.085938 263.546875 170.34375 262.683594 C 170.636719 261.691406 170.777344 260.914062 170.734375 259.867188 C 170.675781 258.480469 168.011719 258.878906 168.0625 260.0625 C 168.164062 260.847656 168.085938 261.621094 167.824219 262.378906 C 168.582031 262.171875 169.339844 261.96875 170.097656 261.765625 C 168.019531 260.632812 167.164062 259.300781 166.300781 257.121094 C 165.992188 256.339844 165.429688 255.414062 165.308594 254.582031 C 164.800781 253.546875 165.222656 252.695312 166.582031 252.023438 C 167.226562 252.296875 167.796875 252.675781 168.296875 253.160156 C 169.0625 253.804688 170.757812 253.078125 170.628906 252.039062 C 170.539062 251.355469 170.453125 250.667969 170.367188 249.980469 C 170.214844 248.765625 167.570312 249.414062 167.730469 250.6875 "/>
<path style=" stroke:none;fill-rule:nonzero;fill:rgb(31.369019%,78.42865%,47.059631%);fill-opacity:1;" d="M 179.574219 243.914062 C 179.679688 243.238281 179.835938 242.628906 179.851562 242.0625 C 179.882812 241.5 179.773438 241.050781 179.578125 240.882812 C 179.480469 240.777344 179.40625 240.746094 179.230469 240.625 C 179.050781 240.515625 178.792969 240.359375 178.46875 240.101562 C 177.761719 239.550781 177.289062 238.667969 177.109375 237.851562 C 176.757812 236.191406 177.328125 234.59375 178.140625 233.492188 C 178.964844 232.371094 180.378906 232.03125 181.449219 231.210938 C 181.375 232.582031 180.359375 233.40625 180.042969 234.480469 C 179.882812 235.03125 179.761719 235.503906 179.726562 235.972656 C 179.675781 236.445312 179.695312 236.894531 179.773438 237.269531 C 179.863281 237.648438 179.976562 237.921875 180.203125 238.1875 C 180.335938 238.351562 180.582031 238.554688 180.855469 238.859375 C 181.136719 239.15625 181.445312 239.625 181.566406 240.101562 C 181.835938 241.101562 182.058594 241.945312 181.660156 242.527344 C 180.710938 243.914062 180.171875 243.574219 179.574219 243.914062 "/>
<path style=" stroke:none;fill-rule:nonzero;fill:rgb(100%,100%,100%);fill-opacity:1;" d="M 183.773438 264.070312 L 183.484375 264.070312 C 182.875 264.070312 182.378906 263.570312 182.378906 262.964844 L 182.378906 249.582031 C 182.378906 248.976562 182.875 248.476562 183.484375 248.476562 L 183.773438 248.476562 C 184.382812 248.476562 184.878906 248.976562 184.878906 249.582031 L 184.878906 262.964844 C 184.878906 263.570312 184.382812 264.070312 183.773438 264.070312 "/>
<g clip-path="url(#clip2)" clip-rule="nonzero">
<path style=" stroke:none;fill-rule:nonzero;fill:rgb(31.369019%,78.42865%,47.059631%);fill-opacity:1;" d="M 266.867188 244.148438 C 266.8125 244 266.714844 243.875 266.582031 243.789062 C 265.039062 242.824219 255.019531 236.367188 253.539062 230.804688 C 252.816406 228.089844 251.6875 224.492188 250.664062 221.351562 L 250.65625 220.605469 C 250.949219 220.335938 251.265625 220 251.625 219.558594 C 253.597656 217.136719 253.644531 212.441406 252.996094 207.695312 C 252.976562 207.558594 253 207.421875 253.0625 207.296875 C 253.25 206.90625 253.414062 206.453125 253.546875 205.921875 C 253.777344 205.867188 254.003906 205.804688 254.21875 205.738281 C 257.285156 206.179688 259.886719 205.945312 258.753906 203.488281 C 258.386719 202.6875 257.679688 202.078125 256.757812 201.617188 C 256.605469 201.539062 256.488281 201.40625 256.425781 201.25 C 255.972656 200.175781 255.128906 199.480469 254.265625 199.035156 C 254.046875 198.921875 253.914062 198.683594 253.902344 198.4375 C 253.753906 195.65625 253.363281 193.539062 252.792969 191.894531 C 253.703125 190.976562 254.820312 189.328125 255.679688 188.605469 C 256.761719 187.695312 257.535156 187.929688 258.757812 187.222656 C 259.417969 186.839844 259.820312 186.132812 259.792969 185.375 C 259.753906 184.253906 259.542969 183.160156 258.785156 182.300781 C 258.179688 181.613281 257.21875 181.265625 256.347656 181.546875 C 255.339844 181.871094 255.136719 182.753906 254.871094 183.558594 C 254.226562 185.476562 252.90625 187.511719 251.175781 188.820312 C 250.964844 188.558594 250.75 188.3125 250.527344 188.089844 C 250.394531 187.957031 250.320312 187.785156 250.316406 187.601562 L 250.300781 186.023438 C 250.300781 185.910156 250.328125 185.796875 250.382812 185.691406 C 250.695312 185.089844 251.03125 184.464844 251.394531 183.808594 C 251.53125 183.5625 251.503906 183.261719 251.339844 183.035156 C 250.972656 182.523438 250.628906 181.886719 250.316406 181.183594 C 250.273438 181.09375 250.253906 180.996094 250.253906 180.894531 L 250.164062 172.621094 C 250.164062 172.460938 250.214844 172.3125 250.3125 172.183594 C 250.640625 171.757812 250.996094 171.289062 251.378906 170.777344 C 251.53125 170.582031 251.574219 170.3125 251.472656 170.085938 C 251.1875 169.457031 250.769531 168.792969 250.257812 168.117188 C 250.171875 168 250.117188 167.855469 250.117188 167.707031 L 250.078125 163.820312 C 250.074219 163.65625 250.136719 163.492188 250.242188 163.367188 C 250.863281 162.613281 251.210938 161.824219 251.402344 161.238281 C 251.554688 160.785156 251.210938 160.320312 250.734375 160.320312 C 250.347656 160.320312 250.035156 160.011719 250.03125 159.625 L 249.964844 152.738281 C 249.964844 152.675781 249.96875 152.621094 249.980469 152.5625 C 251.355469 146.925781 253.488281 139.71875 256.074219 136.324219 C 256.234375 136.105469 256.28125 135.820312 256.15625 135.578125 C 255.753906 134.796875 255.199219 134.160156 254.554688 133.648438 C 254.105469 133.289062 254.238281 132.582031 254.789062 132.417969 C 260.21875 130.816406 262.835938 129.640625 264.089844 128.851562 C 264.6875 128.472656 264.425781 127.554688 263.714844 127.554688 L 252.59375 127.554688 C 251.949219 127.554688 251.65625 126.761719 252.132812 126.328125 C 252.53125 125.960938 252.84375 125.609375 253.09375 125.269531 C 254.851562 122.804688 252.949219 120.84375 251.425781 119.382812 C 251.085938 119.058594 251.15625 118.5 251.5625 118.269531 C 256.414062 115.507812 256.871094 112.011719 256.820312 110.558594 C 256.808594 110.175781 256.5 109.875 256.117188 109.875 L 234.910156 109.875 C 234.527344 109.875 234.21875 110.175781 234.207031 110.558594 C 234.160156 112.011719 234.609375 115.507812 239.464844 118.269531 C 239.875 118.5 239.941406 119.058594 239.601562 119.382812 C 238.078125 120.84375 236.175781 122.804688 237.9375 125.269531 C 238.183594 125.609375 238.496094 125.960938 238.894531 126.328125 C 239.371094 126.761719 239.078125 127.554688 238.433594 127.554688 L 227.3125 127.554688 C 226.605469 127.554688 226.339844 128.472656 226.9375 128.851562 C 228.191406 129.640625 230.808594 130.816406 236.238281 132.417969 C 236.789062 132.582031 236.921875 133.289062 236.476562 133.648438 C 235.828125 134.160156 235.273438 134.796875 234.871094 135.578125 C 234.746094 135.820312 234.789062 136.105469 234.953125 136.324219 C 237.539062 139.71875 239.671875 146.925781 241.046875 152.5625 C 241.058594 152.621094 241.0625 152.675781 241.0625 152.738281 L 240.996094 159.625 C 240.988281 160.011719 240.675781 160.320312 240.292969 160.320312 C 239.816406 160.320312 239.476562 160.785156 239.625 161.238281 C 239.8125 161.824219 240.160156 162.613281 240.785156 163.367188 C 240.890625 163.492188 240.953125 163.65625 240.953125 163.820312 L 240.910156 167.707031 C 240.910156 167.855469 240.855469 168 240.765625 168.117188 C 240.257812 168.792969 239.835938 169.457031 239.554688 170.085938 C 239.453125 170.3125 239.496094 170.582031 239.648438 170.777344 C 240.03125 171.289062 240.382812 171.757812 240.714844 172.183594 C 240.8125 172.3125 240.863281 172.460938 240.859375 172.621094 L 240.777344 180.894531 C 240.777344 180.996094 240.753906 181.09375 240.714844 181.183594 C 240.398438 181.886719 240.054688 182.523438 239.6875 183.035156 C 239.523438 183.261719 239.492188 183.5625 239.632812 183.808594 C 239.996094 184.464844 240.332031 185.089844 240.644531 185.691406 C 240.699219 185.796875 240.726562 185.910156 240.726562 186.023438 L 240.707031 187.601562 C 240.707031 187.785156 240.632812 187.957031 240.5 188.089844 C 240.273438 188.316406 240.054688 188.5625 239.847656 188.828125 C 238.761719 188.304688 237.742188 187.644531 236.824219 186.773438 C 236.617188 186.570312 236.40625 186.351562 236.332031 186.070312 C 236.148438 185.375 236.867188 184.757812 236.9375 184.039062 C 237.003906 183.304688 236.316406 182.648438 235.578125 182.550781 C 234.84375 182.453125 234.113281 182.777344 233.507812 183.210938 C 232.636719 183.824219 231.941406 184.675781 231.492188 185.636719 C 231.109375 186.445312 231.664062 187.351562 232.542969 187.488281 C 234.492188 187.785156 236.320312 188.921875 237.394531 190.589844 C 237.679688 191.03125 237.921875 191.503906 238.222656 191.933594 C 237.660156 193.570312 237.273438 195.675781 237.128906 198.4375 C 237.113281 198.683594 236.984375 198.921875 236.761719 199.035156 C 235.902344 199.480469 235.054688 200.175781 234.605469 201.25 C 234.539062 201.40625 234.417969 201.539062 234.269531 201.617188 C 233.347656 202.078125 232.640625 202.6875 232.269531 203.488281 C 231.140625 205.945312 233.742188 206.179688 236.808594 205.738281 C 237.023438 205.804688 237.25 205.867188 237.480469 205.921875 C 237.613281 206.453125 237.777344 206.90625 237.96875 207.296875 C 238.027344 207.421875 238.050781 207.558594 238.03125 207.695312 C 237.382812 212.441406 237.429688 217.136719 239.402344 219.558594 C 239.761719 220 240.078125 220.335938 240.371094 220.605469 L 240.363281 221.351562 C 239.339844 224.492188 238.210938 228.089844 237.488281 230.804688 C 236.007812 236.367188 225.988281 242.824219 224.449219 243.789062 C 224.3125 243.875 224.214844 244 224.160156 244.148438 C 223.566406 245.792969 220.207031 255.726562 224.246094 259.371094 C 228.660156 263.351562 229.863281 267.472656 234.277344 267.472656 C 235.609375 267.472656 237.667969 267.472656 239.894531 267.472656 C 245.058594 267.472656 251.132812 267.472656 251.132812 267.472656 C 253.363281 267.472656 255.417969 267.472656 256.746094 267.472656 C 261.160156 267.472656 262.363281 263.351562 266.777344 259.371094 C 270.820312 255.726562 267.457031 245.792969 266.867188 244.148438 "/>
</g>
<path style=" stroke:none;fill-rule:nonzero;fill:rgb(31.369019%,78.42865%,47.059631%);fill-opacity:1;" d="M 258.550781 184.304688 C 261.050781 180.230469 265.550781 178.957031 270.117188 178.894531 C 275.0625 178.824219 277.214844 182.601562 278.582031 186.988281 C 281.300781 195.742188 275.339844 201.660156 267.722656 204.667969 C 259.4375 207.9375 250.816406 208.804688 242.019531 209.417969 C 235.195312 209.894531 228.804688 211.234375 222.28125 213.289062 C 217.460938 214.804688 212.273438 216.554688 208.75 220.375 C 205.101562 224.335938 203.578125 231.238281 203.898438 236.53125 C 204.191406 241.328125 208.824219 242.878906 212.980469 241.992188 C 217.617188 241.007812 222.804688 236.949219 225.304688 233.003906 C 228.816406 227.457031 226.65625 218.902344 223.484375 213.707031 C 220 207.992188 214.226562 204.496094 207.675781 203.597656 C 206.886719 203.484375 203.917969 204.8125 205.597656 205.046875 C 212.992188 206.066406 219.109375 211.023438 221.917969 217.921875 C 223.097656 220.8125 223.710938 223.96875 223.695312 227.089844 C 223.667969 231.589844 221.761719 234.402344 218.457031 237.265625 C 216.320312 239.125 213.863281 241.113281 210.785156 240.5625 C 208.949219 240.234375 207.664062 238.515625 207.265625 236.832031 C 206.5625 233.859375 207.644531 229.421875 208.445312 226.507812 C 210.75 218.109375 218.375 215.675781 225.90625 213.453125 C 233.640625 211.175781 241.378906 211.074219 249.324219 210.226562 C 255.621094 209.5625 261.871094 208.152344 267.824219 205.972656 C 272.496094 204.257812 277.449219 201.84375 280.371094 197.644531 C 283.789062 192.730469 282.734375 186.8125 279.9375 181.859375 C 278.699219 179.664062 277.5625 178.015625 274.964844 177.570312 C 272.484375 177.152344 269.695312 177.40625 267.234375 177.808594 C 262.4375 178.585938 257.941406 180.574219 255.332031 184.835938 C 255.015625 185.34375 258.027344 185.160156 258.550781 184.304688 "/>
<path style=" stroke:none;fill-rule:nonzero;fill:rgb(31.369019%,78.42865%,47.059631%);fill-opacity:1;" d="M 146.972656 165.625 C 146.613281 165.226562 146.3125 164.789062 146.03125 164.359375 L 144.578125 162.175781 C 144.050781 161.933594 143.386719 161.59375 142.871094 160.964844 C 142.003906 159.910156 141.964844 158.445312 142.769531 157.476562 C 143.011719 157.191406 144.253906 156.140625 144.570312 155.953125 C 144.941406 155.734375 145.375 155.617188 145.820312 155.617188 C 146.625 155.617188 147.433594 156 147.984375 156.628906 C 148.523438 157.246094 148.746094 157.957031 148.894531 158.515625 L 150.808594 160.3125 C 151.179688 160.664062 151.558594 161.03125 151.894531 161.449219 C 152.476562 161.5 153.050781 161.683594 153.585938 161.976562 C 154.265625 162.34375 155.105469 162.058594 155.363281 161.328125 C 156 159.5625 156.175781 157.550781 155.613281 155.277344 C 155.179688 153.539062 155.191406 151.683594 154.855469 149.925781 C 154.621094 148.65625 154.367188 147.355469 153.507812 146.253906 C 153.09375 145.726562 152.566406 142.703125 152.964844 141.753906 C 153.863281 139.628906 153.785156 137.273438 152.746094 135.183594 C 152.222656 134.136719 153.648438 129.882812 154.761719 130.609375 C 154.398438 129.101562 154.039062 127.589844 153.679688 126.082031 C 148.152344 122.027344 141.203125 118.261719 133.570312 118.757812 C 129.785156 119.007812 126.273438 120.289062 122.851562 121.550781 C 119.894531 122.644531 116.484375 124.269531 116.554688 126.777344 C 116.582031 127.6875 114.492188 130.179688 113.5625 130.59375 C 111.386719 131.574219 111.628906 134.015625 112.320312 135.867188 C 113.351562 138.621094 116.894531 142.683594 117.308594 145.460938 C 117.765625 148.566406 114.355469 144.304688 118.601562 152.578125 C 119.671875 154.664062 121.625 156.398438 124.226562 157.097656 C 127.550781 160.621094 127.007812 165.699219 130.511719 169.117188 C 132.613281 171.179688 136.097656 172.367188 139.511719 172.191406 C 141.242188 172.101562 142.9375 171.679688 144.527344 171 C 145.015625 170.789062 145.9375 170.386719 147.050781 169.785156 C 147.636719 169.464844 147.867188 168.730469 147.542969 168.140625 C 147.113281 167.34375 146.90625 166.464844 146.972656 165.625 "/>
<path style=" stroke:none;fill-rule:nonzero;fill:rgb(31.369019%,78.42865%,47.059631%);fill-opacity:1;" d="M 173.261719 191.550781 C 173.457031 191.46875 173.667969 191.335938 173.679688 191.125 C 173.6875 191.011719 173.628906 190.910156 173.5625 190.816406 C 173.726562 190.457031 173.855469 190.078125 173.949219 189.695312 C 173.882812 189.558594 173.804688 189.425781 173.726562 189.292969 C 173.726562 189.28125 173.726562 189.265625 173.726562 189.257812 C 173.710938 189.121094 173.625 189.011719 173.535156 188.910156 C 173.382812 188.722656 173.226562 188.539062 173.074219 188.351562 C 172.917969 188.152344 172.757812 187.953125 172.597656 187.761719 C 171.628906 186.582031 170.660156 185.40625 169.691406 184.230469 C 169.546875 184.054688 169.398438 183.878906 169.214844 183.757812 C 169.015625 183.542969 168.796875 183.351562 168.554688 183.222656 C 168.269531 183.066406 168.054688 182.824219 167.984375 182.507812 C 167.929688 182.25 167.835938 182.007812 167.683594 181.785156 C 167.542969 181.574219 167.332031 181.414062 167.09375 181.304688 C 167.363281 180.988281 167.265625 180.402344 167.015625 180.019531 C 166.589844 179.359375 165.875 178.910156 165.109375 178.757812 C 164.824219 178.703125 164.558594 178.78125 164.347656 178.929688 L 163.789062 178.269531 C 164.207031 177.382812 164.457031 176.421875 163.980469 175.617188 C 163.617188 175.003906 162.894531 174.660156 162.1875 174.621094 C 162.035156 174.613281 161.886719 174.613281 161.734375 174.628906 C 161.152344 174.679688 160.648438 174.269531 160.609375 173.6875 C 160.589844 173.398438 160.511719 173.125 160.363281 172.875 C 160.082031 172.402344 159.585938 172.09375 159.046875 171.992188 C 158.609375 171.914062 158.269531 171.589844 158.195312 171.144531 C 158.082031 170.476562 157.828125 169.832031 157.4375 169.277344 C 157.363281 169.175781 157.285156 169.070312 157.167969 169.039062 C 157.078125 169.019531 156.984375 169.039062 156.902344 169.066406 C 156.792969 169.101562 156.6875 169.148438 156.59375 169.207031 C 156.242188 169.417969 155.835938 169.398438 155.523438 169.207031 C 155.460938 169.167969 155.402344 169.128906 155.351562 169.078125 C 155.269531 169.003906 155.199219 168.925781 155.144531 168.816406 C 155.085938 168.691406 155.027344 168.570312 154.964844 168.445312 C 155.054688 168.40625 155.132812 168.351562 155.179688 168.265625 C 155.265625 168.101562 155.230469 167.902344 155.191406 167.71875 C 154.949219 166.59375 154.691406 165.4375 154.039062 164.488281 C 153.386719 163.542969 152.226562 162.851562 151.105469 163.089844 C 151.089844 163.09375 151.078125 163.101562 151.0625 163.105469 C 150.757812 162.488281 150.222656 161.964844 149.710938 161.484375 C 148.960938 160.78125 148.210938 160.074219 147.460938 159.371094 C 147.4375 159.285156 147.414062 159.195312 147.390625 159.105469 C 147.257812 158.601562 147.113281 158.078125 146.773438 157.6875 C 146.429688 157.292969 145.828125 157.082031 145.378906 157.339844 C 145.222656 157.4375 144.121094 158.367188 144.003906 158.507812 C 143.667969 158.90625 143.78125 159.542969 144.113281 159.945312 C 144.441406 160.34375 144.933594 160.570312 145.40625 160.785156 C 145.492188 160.824219 145.574219 160.863281 145.660156 160.902344 C 146.226562 161.757812 146.796875 162.613281 147.367188 163.472656 C 147.753906 164.058594 148.175781 164.671875 148.738281 165.074219 C 148.730469 165.089844 148.722656 165.097656 148.714844 165.113281 C 148.292969 166.183594 148.785156 167.441406 149.609375 168.242188 C 150.433594 169.046875 151.53125 169.488281 152.597656 169.914062 C 152.773438 169.980469 152.960938 170.050781 153.140625 169.996094 C 153.234375 169.964844 153.300781 169.894531 153.351562 169.8125 C 153.460938 169.890625 153.574219 169.972656 153.6875 170.054688 C 154.179688 170.402344 154.226562 171.085938 153.832031 171.546875 C 153.761719 171.628906 153.695312 171.722656 153.640625 171.828125 C 153.601562 171.90625 153.566406 171.992188 153.574219 172.085938 C 153.585938 172.203125 153.671875 172.304688 153.761719 172.390625 C 153.894531 172.519531 154.035156 172.644531 154.1875 172.757812 C 154.191406 172.761719 154.203125 172.765625 154.207031 172.773438 C 154.355469 172.878906 154.507812 172.980469 154.667969 173.074219 C 154.921875 173.222656 155.195312 173.351562 155.476562 173.445312 C 155.902344 173.59375 156.164062 173.984375 156.171875 174.433594 C 156.183594 174.980469 156.402344 175.523438 156.824219 175.875 C 157.039062 176.066406 157.300781 176.1875 157.578125 176.253906 C 158.148438 176.386719 158.472656 176.953125 158.324219 177.519531 C 158.285156 177.664062 158.257812 177.8125 158.238281 177.964844 C 158.164062 178.671875 158.378906 179.441406 158.921875 179.902344 C 159.636719 180.503906 160.628906 180.417969 161.566406 180.148438 L 162.125 180.8125 C 161.941406 180.996094 161.824219 181.246094 161.832031 181.535156 C 161.855469 182.316406 162.179688 183.097656 162.757812 183.628906 C 163.09375 183.9375 163.652344 184.128906 164.011719 183.917969 C 164.078125 184.167969 164.203125 184.40625 164.386719 184.582031 C 164.578125 184.765625 164.804688 184.898438 165.046875 184.996094 C 165.347656 185.117188 165.554688 185.367188 165.65625 185.675781 C 165.746094 185.9375 165.898438 186.183594 166.078125 186.421875 C 166.167969 186.621094 166.316406 186.796875 166.464844 186.964844 C 167.460938 188.113281 168.457031 189.265625 169.457031 190.417969 C 169.621094 190.609375 169.792969 190.796875 169.964844 190.988281 C 170.121094 191.167969 170.277344 191.355469 170.4375 191.539062 C 170.519531 191.640625 170.617188 191.746094 170.742188 191.785156 C 170.757812 191.789062 170.769531 191.785156 170.78125 191.785156 C 170.898438 191.886719 171.015625 191.984375 171.140625 192.074219 C 171.535156 192.046875 171.929688 191.980469 172.3125 191.878906 C 172.394531 191.957031 172.484375 192.035156 172.59375 192.046875 C 172.804688 192.070312 172.96875 191.878906 173.085938 191.703125 C 173.109375 191.667969 173.125 191.632812 173.148438 191.597656 C 173.1875 191.582031 173.222656 191.570312 173.261719 191.550781 "/>
<path style=" stroke:none;fill-rule:nonzero;fill:rgb(31.369019%,78.42865%,47.059631%);fill-opacity:1;" d="M 187.191406 221.707031 C 187.191406 221.707031 187.230469 226.855469 187.238281 227.386719 C 187.179688 225.507812 187.121094 223.617188 187.191406 221.707031 Z M 210.726562 206.484375 C 209.570312 204.617188 206.273438 200.074219 204.183594 195.453125 C 200.398438 187.058594 195.960938 181.242188 194.269531 172.207031 C 194 170.773438 194.554688 171.847656 194.132812 170.777344 C 193.59375 169.40625 191.066406 168.679688 189.617188 168.433594 C 185.160156 167.675781 180.628906 167.332031 176.105469 167.417969 C 173.265625 167.472656 168.925781 167.285156 166.15625 166.671875 C 161.773438 165.699219 159.582031 163.167969 156.109375 160.320312 C 156.445312 161.941406 156.398438 163.714844 156.167969 165.546875 C 156.242188 165.792969 156.3125 166.035156 156.371094 166.273438 C 156.453125 166.625 156.523438 166.960938 156.585938 167.28125 C 156.59375 167.363281 156.632812 167.488281 156.65625 167.683594 C 156.859375 167.636719 157.1875 167.585938 157.605469 167.71875 C 158.078125 167.878906 158.316406 168.160156 158.445312 168.308594 C 158.582031 168.476562 158.609375 168.539062 158.675781 168.636719 L 158.84375 168.917969 C 158.949219 169.105469 159.046875 169.304688 159.125 169.5 C 159.292969 169.898438 159.414062 170.3125 159.492188 170.730469 L 159.5 170.761719 C 159.714844 170.816406 159.925781 170.890625 160.125 170.992188 C 160.609375 171.234375 161.050781 171.601562 161.367188 172.089844 C 161.523438 172.332031 161.648438 172.601562 161.726562 172.871094 C 161.765625 173.003906 161.792969 173.144531 161.816406 173.277344 L 161.835938 173.4375 L 162.171875 173.441406 C 162.648438 173.464844 163.121094 173.582031 163.5625 173.792969 C 164.003906 174.003906 164.429688 174.320312 164.753906 174.757812 C 165.078125 175.199219 165.265625 175.71875 165.3125 176.230469 C 165.355469 176.828125 165.246094 177.339844 165.089844 177.792969 C 165.1875 177.808594 165.285156 177.824219 165.347656 177.839844 C 165.46875 177.871094 165.585938 177.90625 165.699219 177.945312 C 166.164062 178.105469 166.597656 178.347656 166.96875 178.664062 C 167.15625 178.824219 167.332031 179 167.484375 179.199219 C 167.5625 179.292969 167.632812 179.394531 167.699219 179.503906 C 167.769531 179.605469 167.851562 179.757812 167.902344 179.886719 C 168.011719 180.15625 168.074219 180.4375 168.078125 180.753906 C 168.078125 180.84375 168.066406 180.941406 168.050781 181.035156 C 168.171875 181.160156 168.285156 181.292969 168.363281 181.441406 C 168.464844 181.613281 168.539062 181.792969 168.597656 181.972656 C 168.625 182.0625 168.648438 182.152344 168.664062 182.238281 L 168.691406 182.359375 L 168.691406 182.386719 C 168.707031 182.460938 168.742188 182.546875 168.890625 182.640625 C 169.21875 182.84375 169.464844 183.085938 169.675781 183.328125 L 169.570312 183.238281 C 169.9375 183.515625 170.109375 183.808594 170.28125 184.03125 L 170.816406 184.753906 L 171.875 186.203125 L 172.925781 187.65625 L 173.449219 188.386719 L 173.710938 188.75 C 173.785156 188.859375 173.917969 189.015625 173.921875 189.238281 L 174.097656 189.625 L 174.128906 189.691406 L 174.109375 189.738281 L 173.652344 190.816406 C 173.691406 190.886719 173.726562 190.960938 173.738281 191.054688 C 173.75 191.164062 173.703125 191.269531 173.636719 191.34375 C 173.5 191.484375 173.320312 191.546875 173.148438 191.597656 C 173.070312 191.757812 172.980469 191.929688 172.816406 192.042969 C 172.734375 192.097656 172.617188 192.125 172.511719 192.09375 C 172.425781 192.074219 172.355469 192.023438 172.292969 191.972656 L 171.15625 192.246094 L 171.105469 192.257812 L 171.042969 192.214844 L 170.695312 191.976562 C 170.472656 191.933594 170.34375 191.773438 170.246094 191.6875 L 169.933594 191.367188 L 169.300781 190.730469 L 168.042969 189.449219 L 166.789062 188.164062 L 166.167969 187.519531 C 165.976562 187.308594 165.71875 187.09375 165.5 186.679688 L 165.570312 186.800781 C 165.371094 186.558594 165.167969 186.277344 165.027344 185.914062 C 164.957031 185.75 164.878906 185.703125 164.808594 185.675781 L 164.78125 185.667969 L 164.671875 185.628906 C 164.585938 185.59375 164.503906 185.558594 164.417969 185.515625 C 164.253906 185.429688 164.085938 185.324219 163.933594 185.199219 C 163.796875 185.09375 163.6875 184.960938 163.585938 184.824219 C 163.488281 184.824219 163.394531 184.8125 163.304688 184.800781 C 162.996094 184.742188 162.730469 184.636719 162.480469 184.484375 C 162.363281 184.414062 162.222656 184.308594 162.132812 184.21875 C 162.039062 184.136719 161.953125 184.050781 161.867188 183.957031 C 161.699219 183.773438 161.554688 183.574219 161.425781 183.359375 C 161.175781 182.9375 161.007812 182.472656 160.925781 181.988281 C 160.90625 181.867188 160.890625 181.742188 160.886719 181.621094 C 160.875 181.554688 160.875 181.464844 160.882812 181.363281 C 160.40625 181.441406 159.886719 181.464844 159.304688 181.324219 C 158.808594 181.191406 158.328125 180.921875 157.949219 180.527344 C 157.570312 180.132812 157.328125 179.664062 157.191406 179.1875 C 157.058594 178.71875 157.015625 178.226562 157.078125 177.753906 L 157.128906 177.425781 L 156.976562 177.378906 C 156.84375 177.339844 156.714844 177.285156 156.589844 177.222656 C 156.335938 177.105469 156.09375 176.9375 155.878906 176.742188 C 155.449219 176.347656 155.160156 175.847656 155.003906 175.332031 C 154.9375 175.117188 154.898438 174.898438 154.875 174.675781 L 154.851562 174.664062 C 154.691406 174.605469 154.535156 174.535156 154.382812 174.464844 C 154.160156 175.609375 153.980469 176.726562 153.90625 177.785156 C 153.476562 183.761719 155.585938 189.585938 157.261719 195.335938 C 160.191406 205.382812 162.835938 232.40625 162.835938 232.40625 C 162.609375 234.015625 163.808594 245.066406 164.03125 248.046875 C 164.046875 248.230469 164.226562 248.351562 164.402344 248.285156 C 165.378906 247.953125 167.261719 247.757812 168.664062 247.480469 C 168.523438 246.578125 168.535156 245.109375 168.324219 244.117188 C 171.183594 244.117188 172.941406 244.027344 175.820312 244.089844 C 176.203125 243.472656 176.457031 242.726562 176.296875 242.011719 C 176.136719 241.335938 175.632812 240.808594 175.222656 240.25 C 174.015625 238.628906 173.464844 236.535156 173.71875 234.53125 C 173.972656 232.523438 175.027344 230.628906 176.597656 229.359375 C 177.921875 228.292969 179.550781 227.679688 181.171875 227.171875 C 182.25 226.828125 183.507812 226.539062 184.390625 227.496094 C 184.863281 228.003906 185.042969 228.726562 184.980469 229.417969 C 184.835938 230.964844 183.808594 232.117188 183.109375 233.417969 C 182.757812 234.078125 182.488281 234.785156 182.3125 235.507812 C 182.121094 236.285156 182.363281 237.457031 182.773438 238.144531 C 183.8125 239.90625 184.742188 242.261719 184.3125 244.269531 C 185.53125 244.347656 187.214844 244.308594 188.4375 244.246094 C 188.375 244.003906 189.007812 266.21875 188.964844 265.769531 L 191.613281 265.769531 C 191.390625 263.398438 187.058594 235.972656 187.171875 234.640625 C 187.382812 232.230469 187.3125 229.835938 187.238281 227.425781 C 191.816406 234.578125 198.007812 234.054688 198.421875 234.105469 C 210.605469 235.632812 211.09375 233.453125 213.414062 222.371094 C 213.550781 221.714844 215.757812 218.832031 215.671875 218.167969 C 214.152344 206.265625 212.511719 209.375 210.726562 206.484375 "/>
</g>
</svg>
