<?xml version="1.0" encoding="UTF-8"?>
<svg xmlns="http://www.w3.org/2000/svg" xmlns:xlink="http://www.w3.org/1999/xlink" width="375pt" height="374.999991pt" viewBox="0 0 375 374.999991" version="1.2">
<g id="surface1">
<path style=" stroke:none;fill-rule:nonzero;fill:rgb(10.5896%,15.289307%,21.179199%);fill-opacity:1;" d="M 318.839844 91.5625 L 318.839844 298.683594 C 318.839844 314.042969 306.421875 326.460938 291.058594 326.460938 L 83.941406 326.460938 C 68.578125 326.460938 56.160156 314.042969 56.160156 298.683594 L 56.160156 91.5625 C 56.160156 76.203125 68.578125 63.78125 83.941406 63.78125 L 291.058594 63.78125 C 306.421875 63.78125 318.839844 76.203125 318.839844 91.5625 Z M 318.839844 91.5625 "/>
<path style=" stroke:none;fill-rule:nonzero;fill:rgb(31.369019%,78.42865%,47.059631%);fill-opacity:1;" d="M 80.28125 295.140625 C 79.808594 295.140625 79.339844 295.1875 78.875 295.28125 C 78.410156 295.371094 77.960938 295.507812 77.523438 295.691406 C 77.089844 295.871094 76.671875 296.09375 76.28125 296.355469 C 75.886719 296.617188 75.523438 296.917969 75.1875 297.25 C 74.855469 297.585938 74.554688 297.949219 74.292969 298.34375 C 74.03125 298.734375 73.808594 299.148438 73.628906 299.585938 C 73.445312 300.023438 73.3125 300.472656 73.21875 300.9375 C 73.125 301.402344 73.078125 301.871094 73.078125 302.34375 C 73.078125 302.816406 73.125 303.28125 73.21875 303.746094 C 73.3125 304.210938 73.445312 304.660156 73.628906 305.097656 C 73.808594 305.535156 74.03125 305.949219 74.292969 306.34375 C 74.554688 306.734375 74.855469 307.097656 75.1875 307.433594 C 75.523438 307.765625 75.886719 308.066406 76.28125 308.328125 C 76.671875 308.589844 77.089844 308.8125 77.523438 308.992188 C 77.960938 309.175781 78.410156 309.3125 78.875 309.402344 C 79.339844 309.496094 79.808594 309.542969 80.28125 309.542969 C 80.753906 309.542969 81.222656 309.496094 81.683594 309.402344 C 82.148438 309.3125 82.597656 309.175781 83.035156 308.992188 C 83.472656 308.8125 83.886719 308.589844 84.28125 308.328125 C 84.671875 308.066406 85.035156 307.765625 85.371094 307.433594 C 85.707031 307.097656 86.003906 306.734375 86.265625 306.34375 C 86.527344 305.949219 86.75 305.535156 86.933594 305.097656 C 87.113281 304.660156 87.25 304.210938 87.339844 303.746094 C 87.433594 303.28125 87.480469 302.816406 87.480469 302.34375 C 87.480469 301.871094 87.433594 301.402344 87.339844 300.9375 C 87.25 300.472656 87.113281 300.023438 86.933594 299.585938 C 86.75 299.148438 86.527344 298.734375 86.265625 298.34375 C 86.003906 297.949219 85.707031 297.585938 85.371094 297.25 C 85.035156 296.917969 84.671875 296.617188 84.28125 296.355469 C 83.886719 296.09375 83.472656 295.871094 83.035156 295.691406 C 82.597656 295.507812 82.148438 295.371094 81.683594 295.28125 C 81.222656 295.1875 80.753906 295.140625 80.28125 295.140625 Z M 80.28125 80.703125 C 79.808594 80.703125 79.339844 80.75 78.875 80.839844 C 78.410156 80.933594 77.960938 81.070312 77.523438 81.25 C 77.089844 81.429688 76.671875 81.652344 76.28125 81.914062 C 75.886719 82.179688 75.523438 82.476562 75.1875 82.8125 C 74.855469 83.144531 74.554688 83.507812 74.292969 83.902344 C 74.03125 84.292969 73.808594 84.710938 73.628906 85.148438 C 73.445312 85.582031 73.3125 86.035156 73.21875 86.496094 C 73.125 86.960938 73.078125 87.429688 73.078125 87.902344 C 73.078125 88.375 73.125 88.84375 73.21875 89.304688 C 73.3125 89.769531 73.445312 90.21875 73.628906 90.65625 C 73.808594 91.09375 74.03125 91.507812 74.292969 91.902344 C 74.554688 92.296875 74.855469 92.660156 75.1875 92.992188 C 75.523438 93.328125 75.886719 93.625 76.28125 93.886719 C 76.671875 94.152344 77.089844 94.371094 77.523438 94.554688 C 77.960938 94.734375 78.410156 94.871094 78.875 94.964844 C 79.339844 95.054688 79.808594 95.101562 80.28125 95.101562 C 80.753906 95.101562 81.222656 95.054688 81.683594 94.964844 C 82.148438 94.871094 82.597656 94.734375 83.035156 94.554688 C 83.472656 94.371094 83.886719 94.152344 84.28125 93.886719 C 84.671875 93.625 85.035156 93.328125 85.371094 92.992188 C 85.707031 92.660156 86.003906 92.296875 86.265625 91.902344 C 86.527344 91.507812 86.75 91.09375 86.933594 90.65625 C 87.113281 90.21875 87.25 89.769531 87.339844 89.304688 C 87.433594 88.84375 87.480469 88.375 87.480469 87.902344 C 87.480469 87.429688 87.433594 86.960938 87.339844 86.496094 C 87.25 86.035156 87.113281 85.582031 86.933594 85.148438 C 86.75 84.710938 86.527344 84.292969 86.265625 83.902344 C 86.003906 83.507812 85.707031 83.144531 85.371094 82.8125 C 85.035156 82.476562 84.671875 82.179688 84.28125 81.914062 C 83.886719 81.652344 83.472656 81.429688 83.035156 81.25 C 82.597656 81.070312 82.148438 80.933594 81.683594 80.839844 C 81.222656 80.75 80.753906 80.703125 80.28125 80.703125 Z M 294.71875 80.703125 C 294.246094 80.703125 293.777344 80.75 293.316406 80.839844 C 292.851562 80.933594 292.402344 81.070312 291.964844 81.25 C 291.527344 81.429688 291.113281 81.652344 290.71875 81.914062 C 290.328125 82.179688 289.964844 82.476562 289.628906 82.8125 C 289.292969 83.144531 288.996094 83.507812 288.734375 83.902344 C 288.472656 84.292969 288.25 84.710938 288.066406 85.148438 C 287.886719 85.582031 287.75 86.035156 287.660156 86.496094 C 287.566406 86.960938 287.519531 87.429688 287.519531 87.902344 C 287.519531 88.375 287.566406 88.84375 287.660156 89.304688 C 287.75 89.769531 287.886719 90.21875 288.066406 90.65625 C 288.25 91.09375 288.472656 91.507812 288.734375 91.902344 C 288.996094 92.296875 289.292969 92.660156 289.628906 92.992188 C 289.964844 93.328125 290.328125 93.625 290.71875 93.886719 C 291.113281 94.152344 291.527344 94.371094 291.964844 94.554688 C 292.402344 94.734375 292.851562 94.871094 293.316406 94.964844 C 293.777344 95.054688 294.246094 95.101562 294.71875 95.101562 C 295.191406 95.101562 295.660156 95.054688 296.125 94.964844 C 296.589844 94.871094 297.039062 94.734375 297.476562 94.554688 C 297.910156 94.371094 298.328125 94.152344 298.71875 93.886719 C 299.113281 93.625 299.476562 93.328125 299.8125 92.992188 C 300.144531 92.660156 300.445312 92.296875 300.707031 91.902344 C 300.96875 91.507812 301.191406 91.09375 301.371094 90.65625 C 301.554688 90.21875 301.6875 89.769531 301.78125 89.304688 C 301.875 88.84375 301.921875 88.375 301.921875 87.902344 C 301.921875 87.429688 301.875 86.960938 301.78125 86.496094 C 301.6875 86.035156 301.554688 85.582031 301.371094 85.148438 C 301.191406 84.710938 300.96875 84.292969 300.707031 83.902344 C 300.445312 83.507812 300.144531 83.144531 299.8125 82.8125 C 299.476562 82.476562 299.113281 82.179688 298.71875 81.914062 C 298.328125 81.652344 297.910156 81.429688 297.476562 81.25 C 297.039062 81.070312 296.589844 80.933594 296.125 80.839844 C 295.660156 80.75 295.191406 80.703125 294.71875 80.703125 Z M 294.71875 295.140625 C 294.246094 295.140625 293.777344 295.1875 293.316406 295.28125 C 292.851562 295.371094 292.402344 295.507812 291.964844 295.691406 C 291.527344 295.871094 291.113281 296.09375 290.71875 296.355469 C 290.328125 296.617188 289.964844 296.917969 289.628906 297.25 C 289.292969 297.585938 288.996094 297.949219 288.734375 298.34375 C 288.472656 298.734375 288.25 299.148438 288.066406 299.585938 C 287.886719 300.023438 287.75 300.472656 287.660156 300.9375 C 287.566406 301.402344 287.519531 301.871094 287.519531 302.34375 C 287.519531 302.816406 287.566406 303.28125 287.660156 303.746094 C 287.75 304.210938 287.886719 304.660156 288.066406 305.097656 C 288.25 305.535156 288.472656 305.949219 288.734375 306.34375 C 288.996094 306.734375 289.292969 307.097656 289.628906 307.433594 C 289.964844 307.765625 290.328125 308.066406 290.71875 308.328125 C 291.113281 308.589844 291.527344 308.8125 291.964844 308.992188 C 292.402344 309.175781 292.851562 309.3125 293.316406 309.402344 C 293.777344 309.496094 294.246094 309.542969 294.71875 309.542969 C 295.191406 309.542969 295.660156 309.496094 296.125 309.402344 C 296.589844 309.3125 297.039062 309.175781 297.476562 308.992188 C 297.910156 308.8125 298.328125 308.589844 298.71875 308.328125 C 299.113281 308.066406 299.476562 307.765625 299.8125 307.433594 C 300.144531 307.097656 300.445312 306.734375 300.707031 306.34375 C 300.96875 305.949219 301.191406 305.535156 301.371094 305.097656 C 301.554688 304.660156 301.6875 304.210938 301.78125 303.746094 C 301.875 303.28125 301.921875 302.816406 301.921875 302.34375 C 301.921875 301.871094 301.875 301.402344 301.78125 300.9375 C 301.6875 300.472656 301.554688 300.023438 301.371094 299.585938 C 301.191406 299.148438 300.96875 298.734375 300.707031 298.34375 C 300.445312 297.949219 300.144531 297.585938 299.8125 297.25 C 299.476562 296.917969 299.113281 296.617188 298.71875 296.355469 C 298.328125 296.09375 297.910156 295.871094 297.476562 295.691406 C 297.039062 295.507812 296.589844 295.371094 296.125 295.28125 C 295.660156 295.1875 295.191406 295.140625 294.71875 295.140625 Z M 294.71875 295.140625 "/>
<path style=" stroke:none;fill-rule:nonzero;fill:rgb(31.369019%,78.42865%,47.059631%);fill-opacity:1;" d="M 337.5 95.101562 L 337.5 71.820312 C 331.980469 69.722656 326.398438 66.121094 321.421875 61.203125 C 316.5 56.222656 312.898438 50.640625 310.800781 45.121094 L 64.199219 45.121094 C 62.101562 50.640625 58.5 56.222656 53.578125 61.203125 C 48.601562 66.121094 43.019531 69.722656 37.5 71.820312 L 37.5 318.421875 C 38.878906 318.960938 40.261719 319.5625 41.640625 320.28125 C 42 320.460938 42.300781 320.640625 42.660156 320.820312 C 42.898438 320.941406 43.140625 321.0625 43.378906 321.242188 C 43.441406 321.242188 43.5 321.300781 43.558594 321.363281 C 43.738281 321.421875 43.859375 321.542969 44.039062 321.660156 C 45.78125 322.742188 47.519531 323.941406 49.261719 325.261719 C 49.558594 325.5 49.859375 325.742188 50.160156 326.042969 C 50.398438 326.222656 50.578125 326.402344 50.761719 326.582031 C 51.359375 327.121094 51.960938 327.660156 52.558594 328.261719 C 52.859375 328.5625 53.160156 328.863281 53.519531 329.160156 C 53.820312 329.460938 54.121094 329.761719 54.421875 330.121094 C 54.960938 330.722656 55.558594 331.320312 56.101562 331.921875 C 56.28125 332.160156 56.460938 332.34375 56.640625 332.582031 L 57.359375 333.480469 C 57.539062 333.660156 57.660156 333.902344 57.839844 334.082031 C 58.140625 334.441406 58.441406 334.863281 58.738281 335.222656 C 59.101562 335.703125 59.398438 336.183594 59.699219 336.601562 C 60.601562 337.980469 61.441406 339.363281 62.21875 340.800781 C 62.339844 341.042969 62.460938 341.222656 62.519531 341.460938 L 62.699219 341.820312 C 62.820312 342.0625 62.941406 342.300781 63 342.480469 C 63.421875 343.382812 63.839844 344.28125 64.140625 345.242188 L 310.738281 345.242188 C 312.839844 339.722656 316.441406 334.140625 321.359375 329.160156 C 323.21875 327.300781 325.140625 325.621094 327.179688 324.183594 C 328.199219 323.460938 329.21875 322.742188 330.238281 322.140625 C 330.898438 321.722656 331.621094 321.300781 332.28125 320.941406 C 332.941406 320.582031 333.660156 320.222656 334.320312 319.863281 C 335.339844 319.382812 336.421875 318.902344 337.441406 318.542969 Z M 318.839844 298.683594 C 318.839844 314.042969 306.421875 326.460938 291.058594 326.460938 L 83.941406 326.460938 C 68.578125 326.460938 56.160156 314.042969 56.160156 298.683594 L 56.160156 91.5625 C 56.160156 76.203125 68.578125 63.78125 83.941406 63.78125 L 291.058594 63.78125 C 306.421875 63.78125 318.839844 76.203125 318.839844 91.5625 Z M 318.839844 298.683594 "/>
<path style=" stroke:none;fill-rule:nonzero;fill:rgb(31.369019%,78.42865%,47.059631%);fill-opacity:1;" d="M 295.667969 207.914062 C 294.511719 205.964844 293.144531 204.175781 291.574219 202.539062 C 290.003906 200.90625 288.265625 199.472656 286.363281 198.242188 C 284.464844 197.007812 282.445312 196.007812 280.3125 195.242188 C 278.183594 194.476562 275.992188 193.964844 273.742188 193.703125 C 271.019531 193.664062 268.363281 194.078125 265.78125 194.9375 C 263.199219 195.800781 260.828125 197.0625 258.671875 198.726562 L 250.945312 193.304688 C 251.429688 192.4375 251.851562 191.542969 252.214844 190.621094 C 252.582031 189.699219 252.882812 188.757812 253.121094 187.792969 C 253.359375 186.832031 253.53125 185.859375 253.640625 184.871094 C 253.75 183.886719 253.792969 182.898438 253.773438 181.90625 C 253.75 180.914062 253.660156 179.929688 253.507812 178.949219 C 253.355469 177.96875 253.136719 177.003906 252.855469 176.054688 C 252.574219 175.101562 252.230469 174.175781 251.824219 173.269531 C 251.417969 172.363281 250.957031 171.488281 250.433594 170.648438 C 241.03125 157.3125 212.332031 156.585938 209.089844 156.550781 C 208.667969 156.519531 208.25 156.554688 207.835938 156.644531 C 207.421875 156.738281 207.027344 156.886719 206.65625 157.089844 C 206.285156 157.296875 205.949219 157.546875 205.648438 157.847656 C 205.347656 158.148438 205.097656 158.484375 204.894531 158.859375 L 191.503906 180.519531 C 191.460938 180.589844 191.449219 180.667969 191.410156 180.742188 C 191.109375 181.332031 190.921875 181.957031 190.84375 182.613281 C 190.835938 182.707031 190.785156 182.785156 190.78125 182.882812 C 190.777344 182.917969 190.796875 182.949219 190.796875 182.984375 C 190.785156 183.5625 190.875 184.121094 191.0625 184.664062 C 191.109375 184.804688 191.183594 184.921875 191.246094 185.058594 C 191.332031 185.296875 191.4375 185.527344 191.5625 185.75 C 193.214844 188.289062 208.183594 210.558594 225.292969 211.339844 C 225.59375 211.355469 225.894531 211.359375 226.199219 211.359375 C 228.074219 211.273438 229.921875 210.996094 231.742188 210.515625 C 233.558594 210.039062 235.304688 209.375 236.984375 208.523438 C 238.660156 207.671875 240.226562 206.65625 241.6875 205.46875 C 243.148438 204.285156 244.46875 202.960938 245.648438 201.496094 L 251.953125 205.921875 C 250.597656 207.996094 249.5625 210.21875 248.847656 212.59375 C 248.132812 214.96875 247.773438 217.394531 247.761719 219.875 C 247.761719 243.597656 242.707031 270.003906 233.328125 272.199219 C 226.835938 273.71875 219.734375 266.664062 211.535156 258.492188 C 204.527344 250.585938 196.316406 244.238281 186.902344 239.449219 C 174.421875 234.15625 170.71875 219.914062 169.621094 212.566406 C 171.398438 212.507812 173.140625 212.238281 174.847656 211.753906 C 176.558594 211.265625 178.183594 210.582031 179.726562 209.695312 C 181.265625 208.808594 182.679688 207.75 183.960938 206.515625 C 185.242188 205.28125 186.355469 203.914062 187.300781 202.40625 C 192.140625 192.675781 185.96875 181.941406 181.289062 175.84375 C 187.152344 172.300781 190.535156 169.089844 191.382812 166.265625 C 193.09375 160.542969 187.558594 158.03125 183.511719 156.195312 C 178.824219 154.320312 174.609375 151.683594 170.871094 148.285156 C 169.878906 147.359375 169.011719 146.328125 168.265625 145.191406 C 167.519531 144.054688 166.914062 142.847656 166.457031 141.570312 C 165.996094 140.292969 165.695312 138.976562 165.546875 137.625 C 165.402344 136.273438 165.414062 134.925781 165.589844 133.578125 C 166.523438 131.640625 167.273438 129.632812 167.84375 127.5625 C 168.417969 125.488281 168.796875 123.378906 168.992188 121.238281 C 169.183594 119.09375 169.1875 116.953125 168.996094 114.8125 C 168.804688 112.667969 168.421875 110.5625 167.851562 108.488281 C 167.671875 107.753906 163.257812 90.429688 155.816406 91.4375 C 155.179688 91.519531 154.578125 91.71875 154.011719 92.027344 C 153.445312 92.335938 152.957031 92.734375 152.539062 93.226562 C 152.121094 93.714844 151.804688 94.265625 151.589844 94.875 C 151.375 95.480469 151.277344 96.105469 151.296875 96.75 C 151.054688 99.308594 142.234375 110.488281 124.679688 113.292969 C 107.792969 115.988281 89.5 121.960938 81.835938 145.84375 C 74.964844 167.238281 89.703125 189.988281 107.296875 198.796875 C 108.960938 199.648438 110.511719 200.675781 111.941406 201.882812 C 113.375 203.089844 114.648438 204.445312 115.773438 205.941406 C 116.894531 207.441406 117.835938 209.046875 118.589844 210.761719 C 119.347656 212.476562 119.898438 214.253906 120.25 216.09375 C 120.511719 217.140625 120.648438 218.203125 120.660156 219.285156 C 120.675781 220.363281 120.566406 221.429688 120.335938 222.484375 C 120.101562 223.535156 119.753906 224.550781 119.289062 225.523438 C 118.820312 226.496094 118.25 227.402344 117.574219 228.242188 C 109.519531 236.9375 108.679688 260.425781 109.410156 279.074219 C 109.410156 279.394531 109.445312 279.710938 109.507812 280.023438 C 109.574219 280.335938 109.667969 280.640625 109.792969 280.9375 C 109.917969 281.230469 110.066406 281.511719 110.246094 281.777344 C 110.425781 282.042969 110.628906 282.289062 110.859375 282.511719 C 111.085938 282.738281 111.332031 282.9375 111.601562 283.113281 C 111.867188 283.289062 112.148438 283.4375 112.445312 283.558594 C 112.742188 283.679688 113.046875 283.769531 113.359375 283.832031 C 113.675781 283.890625 113.992188 283.921875 114.3125 283.917969 C 114.628906 283.917969 114.945312 283.882812 115.261719 283.820312 C 115.574219 283.753906 115.878906 283.660156 116.171875 283.535156 C 116.464844 283.410156 116.746094 283.257812 117.011719 283.078125 C 117.277344 282.898438 117.519531 282.695312 117.746094 282.46875 C 117.96875 282.242188 118.171875 281.992188 118.347656 281.726562 C 118.523438 281.457031 118.671875 281.175781 118.789062 280.878906 C 118.910156 280.582031 119 280.277344 119.0625 279.960938 C 119.121094 279.648438 119.152344 279.332031 119.148438 279.011719 L 119.125 278.230469 C 118.273438 256.476562 120.464844 239.464844 124.714844 234.882812 C 125.910156 233.492188 126.929688 231.976562 127.773438 230.347656 C 128.617188 228.714844 129.261719 227.007812 129.703125 225.226562 C 130.148438 223.441406 130.382812 221.632812 130.40625 219.796875 C 130.425781 217.957031 130.234375 216.144531 129.835938 214.351562 C 129.34375 211.765625 128.566406 209.273438 127.503906 206.867188 C 126.441406 204.460938 125.125 202.207031 123.550781 200.101562 C 121.972656 198 120.183594 196.097656 118.171875 194.40625 C 116.164062 192.710938 113.992188 191.265625 111.652344 190.070312 C 99.449219 183.957031 85.519531 166.226562 91.109375 148.824219 C 96.050781 133.429688 105.890625 126.167969 126.210938 122.921875 C 129.167969 122.523438 132.066406 121.859375 134.90625 120.933594 C 137.742188 120.003906 140.476562 118.828125 143.101562 117.40625 C 145.726562 115.984375 148.203125 114.335938 150.53125 112.464844 C 152.855469 110.589844 154.996094 108.523438 156.949219 106.261719 C 158.109375 109.035156 158.851562 111.917969 159.179688 114.90625 C 159.507812 117.894531 159.40625 120.867188 158.878906 123.828125 C 158.378906 125.75 157.636719 127.570312 156.664062 129.300781 C 155.6875 131.027344 154.507812 132.601562 153.125 134.019531 C 151.738281 135.441406 150.195312 136.660156 148.496094 137.675781 C 146.792969 138.695312 144.992188 139.476562 143.085938 140.027344 C 142.789062 140.140625 142.503906 140.285156 142.230469 140.453125 C 141.960938 140.625 141.710938 140.820312 141.476562 141.042969 C 141.246094 141.261719 141.035156 141.503906 140.851562 141.765625 C 140.664062 142.027344 140.507812 142.304688 140.378906 142.597656 C 140.246094 142.890625 140.148438 143.191406 140.078125 143.503906 C 140.007812 143.816406 139.964844 144.136719 139.957031 144.457031 C 139.949219 144.777344 139.972656 145.09375 140.027344 145.410156 C 140.082031 145.726562 140.164062 146.035156 140.28125 146.332031 C 140.394531 146.632812 140.539062 146.917969 140.710938 147.1875 C 140.878906 147.460938 141.078125 147.710938 141.296875 147.945312 C 141.519531 148.175781 141.757812 148.382812 142.019531 148.570312 C 142.28125 148.753906 142.558594 148.910156 142.851562 149.042969 C 143.144531 149.171875 143.445312 149.273438 143.757812 149.34375 C 144.070312 149.414062 144.386719 149.453125 144.707031 149.460938 C 145.027344 149.46875 145.347656 149.445312 145.660156 149.390625 C 145.976562 149.332031 146.285156 149.25 146.582031 149.132812 C 150.269531 147.742188 153.699219 145.871094 156.867188 143.527344 C 157.539062 145.773438 158.488281 147.898438 159.71875 149.898438 C 160.945312 151.894531 162.410156 153.703125 164.113281 155.316406 C 168.65625 159.488281 173.785156 162.742188 179.492188 165.078125 L 179.707031 165.179688 C 177.066406 167.023438 174.316406 168.683594 171.453125 170.15625 C 171.113281 170.332031 170.796875 170.546875 170.507812 170.796875 C 170.21875 171.046875 169.960938 171.328125 169.734375 171.640625 C 169.511719 171.953125 169.328125 172.285156 169.183594 172.640625 C 169.035156 172.996094 168.933594 173.363281 168.875 173.742188 C 168.816406 174.121094 168.800781 174.503906 168.832031 174.886719 C 168.863281 175.269531 168.9375 175.640625 169.058594 176.007812 C 169.175781 176.371094 169.335938 176.71875 169.535156 177.046875 C 169.738281 177.371094 169.972656 177.671875 170.242188 177.941406 C 173.421875 181.125 181.765625 191.65625 178.582031 198.054688 C 175.644531 203.957031 160.867188 203.714844 154.167969 202.675781 C 153.851562 202.628906 153.535156 202.609375 153.214844 202.625 C 152.894531 202.636719 152.582031 202.679688 152.269531 202.757812 C 151.960938 202.832031 151.660156 202.9375 151.371094 203.074219 C 151.082031 203.207031 150.804688 203.367188 150.546875 203.558594 C 150.289062 203.746094 150.054688 203.957031 149.835938 204.195312 C 149.621094 204.429688 149.429688 204.683594 149.261719 204.957031 C 149.097656 205.230469 148.957031 205.515625 148.847656 205.816406 C 148.738281 206.117188 148.65625 206.425781 148.609375 206.742188 C 148.558594 207.058594 148.539062 207.375 148.554688 207.695312 C 148.566406 208.015625 148.609375 208.332031 148.6875 208.644531 C 148.761719 208.953125 148.867188 209.253906 149 209.546875 C 149.132812 209.835938 149.296875 210.109375 149.484375 210.371094 C 149.671875 210.628906 149.882812 210.867188 150.117188 211.082031 C 150.351562 211.300781 150.605469 211.492188 150.878906 211.660156 C 151.152344 211.824219 151.4375 211.964844 151.738281 212.074219 C 152.035156 212.1875 152.34375 212.265625 152.660156 212.316406 C 155.035156 212.65625 157.421875 212.871094 159.820312 212.960938 C 160.585938 219.007812 162.261719 224.792969 164.855469 230.3125 C 161.242188 229.347656 157.566406 228.972656 153.832031 229.1875 C 150.097656 229.402344 146.488281 230.195312 143.007812 231.566406 C 141.15625 232.488281 139.441406 233.617188 137.863281 234.957031 C 136.285156 236.292969 134.890625 237.800781 133.675781 239.476562 C 132.464844 241.15625 131.46875 242.953125 130.695312 244.871094 C 129.917969 246.789062 129.382812 248.773438 129.085938 250.824219 C 129.019531 251.136719 128.984375 251.453125 128.980469 251.773438 C 128.972656 252.09375 129 252.410156 129.058594 252.726562 C 129.117188 253.039062 129.203125 253.347656 129.320312 253.644531 C 129.4375 253.941406 129.585938 254.226562 129.757812 254.496094 C 129.929688 254.761719 130.128906 255.011719 130.351562 255.242188 C 130.574219 255.472656 130.816406 255.679688 131.078125 255.859375 C 131.34375 256.042969 131.621094 256.195312 131.914062 256.324219 C 132.207031 256.449219 132.511719 256.546875 132.824219 256.617188 C 133.164062 256.691406 133.503906 256.726562 133.851562 256.726562 C 134.410156 256.726562 134.949219 256.632812 135.476562 256.445312 C 136 256.257812 136.476562 255.992188 136.910156 255.640625 C 137.34375 255.289062 137.707031 254.878906 137.996094 254.402344 C 138.289062 253.925781 138.492188 253.417969 138.609375 252.871094 C 138.757812 251.570312 139.0625 250.304688 139.519531 249.074219 C 139.976562 247.847656 140.574219 246.691406 141.3125 245.605469 C 142.050781 244.523438 142.90625 243.542969 143.882812 242.667969 C 144.855469 241.792969 145.921875 241.046875 147.078125 240.433594 C 156.476562 236.054688 171.734375 242.164062 176.902344 244.917969 C 178.84375 246.3125 180.910156 247.484375 183.101562 248.433594 C 191.335938 252.757812 198.523438 258.414062 204.664062 265.40625 C 214.488281 275.207031 223.761719 284.472656 235.550781 281.695312 C 255.921875 276.925781 257.503906 233.171875 257.503906 219.875 C 257.515625 217.648438 257.964844 215.511719 258.851562 213.46875 C 259.734375 211.421875 260.988281 209.636719 262.605469 208.105469 C 264.058594 206.691406 265.71875 205.582031 267.578125 204.78125 C 269.441406 203.976562 271.386719 203.535156 273.410156 203.449219 C 274.839844 203.679688 276.222656 204.0625 277.570312 204.597656 C 278.914062 205.128906 280.183594 205.804688 281.382812 206.617188 C 282.578125 207.429688 283.675781 208.363281 284.667969 209.414062 C 285.660156 210.46875 286.527344 211.617188 287.273438 212.859375 C 287.800781 213.667969 288.214844 214.53125 288.511719 215.453125 C 288.808594 216.371094 288.980469 217.3125 289.023438 218.277344 C 289.070312 219.246094 288.988281 220.199219 288.773438 221.140625 C 288.5625 222.085938 288.234375 222.984375 287.78125 223.839844 C 285.558594 228.074219 282.894531 232.007812 279.785156 235.640625 C 278.519531 236.933594 277.378906 238.332031 276.359375 239.828125 C 275.339844 241.328125 274.460938 242.902344 273.722656 244.558594 C 272.980469 246.210938 272.394531 247.917969 271.957031 249.675781 C 271.519531 251.433594 271.238281 253.21875 271.117188 255.023438 C 270.609375 262.652344 269.109375 270.078125 266.613281 277.300781 C 266.503906 277.601562 266.421875 277.90625 266.371094 278.222656 C 266.324219 278.539062 266.304688 278.855469 266.316406 279.171875 C 266.332031 279.492188 266.375 279.804688 266.449219 280.117188 C 266.523438 280.425781 266.625 280.726562 266.757812 281.015625 C 266.890625 281.304688 267.050781 281.578125 267.238281 281.835938 C 267.421875 282.097656 267.632812 282.332031 267.867188 282.550781 C 268.097656 282.769531 268.351562 282.960938 268.621094 283.128906 C 268.890625 283.296875 269.175781 283.4375 269.476562 283.546875 C 269.773438 283.660156 270.078125 283.742188 270.394531 283.792969 C 270.707031 283.84375 271.023438 283.867188 271.339844 283.855469 C 271.660156 283.84375 271.972656 283.804688 272.285156 283.730469 C 272.59375 283.660156 272.894531 283.558594 273.183594 283.429688 C 273.476562 283.296875 273.75 283.140625 274.007812 282.953125 C 274.269531 282.769531 274.507812 282.5625 274.726562 282.328125 C 274.945312 282.097656 275.140625 281.847656 275.308594 281.578125 C 275.476562 281.308594 275.621094 281.023438 275.734375 280.726562 C 278.589844 272.566406 280.292969 264.175781 280.84375 255.550781 C 281.046875 252.929688 281.710938 250.429688 282.832031 248.054688 C 283.957031 245.679688 285.46875 243.582031 287.367188 241.765625 C 290.890625 237.605469 293.917969 233.113281 296.449219 228.285156 C 297.277344 226.703125 297.886719 225.039062 298.277344 223.292969 C 298.667969 221.550781 298.828125 219.785156 298.761719 217.996094 C 298.691406 216.210938 298.394531 214.464844 297.871094 212.753906 C 297.347656 211.046875 296.613281 209.433594 295.667969 207.914062 Z M 211.683594 166.402344 C 219.691406 166.753906 227.460938 168.296875 234.996094 171.027344 C 230.835938 175.5625 217.136719 177.890625 204.359375 178.257812 Z M 241.484375 190.542969 C 240.757812 192.0625 239.851562 193.46875 238.761719 194.757812 C 237.675781 196.046875 236.441406 197.175781 235.058594 198.144531 C 233.679688 199.113281 232.199219 199.886719 230.621094 200.472656 C 229.039062 201.058594 227.410156 201.433594 225.734375 201.597656 C 218.726562 201.273438 210.980469 194.261719 205.546875 187.996094 C 217.535156 187.621094 235.507812 185.53125 242.777344 176.832031 C 243.238281 177.9375 243.554688 179.085938 243.734375 180.273438 C 243.910156 181.460938 243.945312 182.652344 243.832031 183.847656 C 243.71875 185.042969 243.464844 186.207031 243.066406 187.339844 C 242.667969 188.46875 242.140625 189.539062 241.484375 190.542969 Z M 241.484375 190.542969 "/>
<path style=" stroke:none;fill-rule:nonzero;fill:rgb(31.369019%,78.42865%,47.059631%);fill-opacity:1;" d="M 195.644531 145.160156 C 196.40625 145.160156 197.15625 145.085938 197.902344 144.9375 C 198.644531 144.789062 199.367188 144.570312 200.070312 144.277344 C 200.773438 143.988281 201.4375 143.632812 202.070312 143.207031 C 202.703125 142.785156 203.285156 142.304688 203.824219 141.769531 C 204.359375 141.230469 204.839844 140.644531 205.261719 140.015625 C 205.683594 139.382812 206.039062 138.714844 206.328125 138.011719 C 206.621094 137.308594 206.839844 136.585938 206.988281 135.839844 C 207.136719 135.09375 207.210938 134.339844 207.210938 133.578125 C 207.210938 132.820312 207.136719 132.066406 206.988281 131.320312 C 206.839844 130.574219 206.621094 129.851562 206.328125 129.148438 C 206.039062 128.445312 205.683594 127.777344 205.261719 127.144531 C 204.839844 126.515625 204.359375 125.929688 203.820312 125.390625 C 203.285156 124.851562 202.699219 124.375 202.070312 123.949219 C 201.4375 123.527344 200.773438 123.171875 200.070312 122.878906 C 199.367188 122.589844 198.644531 122.371094 197.902344 122.222656 C 197.15625 122.074219 196.40625 122 195.644531 122 C 194.886719 122 194.132812 122.074219 193.390625 122.222656 C 192.644531 122.371094 191.921875 122.589844 191.21875 122.878906 C 190.519531 123.171875 189.851562 123.527344 189.21875 123.949219 C 188.589844 124.375 188.003906 124.851562 187.46875 125.390625 C 186.929688 125.929688 186.453125 126.511719 186.03125 127.144531 C 185.609375 127.777344 185.253906 128.445312 184.960938 129.148438 C 184.671875 129.847656 184.453125 130.574219 184.304688 131.320312 C 184.15625 132.0625 184.082031 132.816406 184.082031 133.578125 C 184.082031 134.335938 184.15625 135.089844 184.304688 135.835938 C 184.453125 136.582031 184.675781 137.304688 184.964844 138.007812 C 185.253906 138.710938 185.613281 139.378906 186.035156 140.007812 C 186.457031 140.640625 186.933594 141.226562 187.472656 141.761719 C 188.007812 142.300781 188.59375 142.78125 189.222656 143.203125 C 189.855469 143.625 190.519531 143.984375 191.222656 144.273438 C 191.921875 144.566406 192.644531 144.785156 193.390625 144.9375 C 194.132812 145.085938 194.886719 145.160156 195.644531 145.160156 Z M 195.644531 131.753906 C 195.886719 131.753906 196.121094 131.800781 196.34375 131.894531 C 196.566406 131.984375 196.765625 132.117188 196.933594 132.289062 C 197.105469 132.460938 197.238281 132.65625 197.332031 132.882812 C 197.421875 133.105469 197.46875 133.339844 197.46875 133.582031 C 197.46875 133.824219 197.421875 134.054688 197.328125 134.28125 C 197.238281 134.503906 197.105469 134.703125 196.933594 134.871094 C 196.761719 135.042969 196.566406 135.175781 196.339844 135.269531 C 196.117188 135.359375 195.886719 135.40625 195.644531 135.40625 C 195.402344 135.40625 195.167969 135.359375 194.945312 135.265625 C 194.722656 135.175781 194.523438 135.042969 194.355469 134.871094 C 194.183594 134.699219 194.050781 134.5 193.960938 134.277344 C 193.867188 134.054688 193.820312 133.820312 193.820312 133.578125 C 193.820312 133.335938 193.867188 133.101562 193.960938 132.878906 C 194.054688 132.65625 194.1875 132.457031 194.355469 132.289062 C 194.527344 132.117188 194.726562 131.984375 194.949219 131.894531 C 195.171875 131.800781 195.402344 131.753906 195.644531 131.753906 Z M 195.644531 131.753906 "/>
<path style=" stroke:none;fill-rule:nonzero;fill:rgb(31.369019%,78.42865%,47.059631%);fill-opacity:1;" d="M 218.382812 114.523438 C 219.117188 114.523438 219.84375 114.449219 220.5625 114.304688 C 221.28125 114.164062 221.980469 113.949219 222.660156 113.667969 C 223.339844 113.386719 223.984375 113.042969 224.59375 112.632812 C 225.203125 112.226562 225.769531 111.761719 226.289062 111.242188 C 226.804688 110.722656 227.269531 110.15625 227.679688 109.546875 C 228.085938 108.933594 228.429688 108.289062 228.710938 107.609375 C 228.992188 106.929688 229.203125 106.230469 229.347656 105.507812 C 229.492188 104.789062 229.5625 104.058594 229.5625 103.324219 C 229.5625 102.589844 229.492188 101.859375 229.347656 101.140625 C 229.203125 100.417969 228.992188 99.71875 228.710938 99.039062 C 228.429688 98.359375 228.085938 97.714844 227.679688 97.101562 C 227.269531 96.492188 226.804688 95.925781 226.289062 95.40625 C 225.769531 94.886719 225.203125 94.421875 224.59375 94.015625 C 223.984375 93.605469 223.339844 93.261719 222.660156 92.980469 C 221.980469 92.699219 221.28125 92.484375 220.5625 92.34375 C 219.84375 92.199219 219.117188 92.125 218.382812 92.125 C 217.648438 92.125 216.917969 92.199219 216.199219 92.34375 C 215.480469 92.484375 214.78125 92.699219 214.101562 92.980469 C 213.425781 93.261719 212.78125 93.605469 212.167969 94.015625 C 211.558594 94.421875 210.992188 94.886719 210.476562 95.40625 C 209.957031 95.925781 209.492188 96.492188 209.085938 97.101562 C 208.675781 97.714844 208.332031 98.359375 208.050781 99.039062 C 207.769531 99.71875 207.558594 100.417969 207.414062 101.140625 C 207.269531 101.859375 207.199219 102.589844 207.199219 103.324219 C 207.199219 104.058594 207.273438 104.785156 207.417969 105.507812 C 207.5625 106.226562 207.773438 106.929688 208.054688 107.605469 C 208.335938 108.285156 208.679688 108.929688 209.089844 109.542969 C 209.496094 110.152344 209.960938 110.71875 210.480469 111.238281 C 210.996094 111.757812 211.5625 112.222656 212.171875 112.628906 C 212.78125 113.039062 213.425781 113.382812 214.105469 113.664062 C 214.78125 113.945312 215.480469 114.160156 216.199219 114.304688 C 216.921875 114.449219 217.648438 114.519531 218.382812 114.523438 Z M 218.382812 101.882812 C 218.570312 101.882812 218.757812 101.917969 218.933594 101.992188 C 219.109375 102.0625 219.265625 102.167969 219.398438 102.304688 C 219.535156 102.4375 219.640625 102.59375 219.710938 102.773438 C 219.785156 102.949219 219.820312 103.132812 219.820312 103.324219 C 219.820312 103.515625 219.785156 103.699219 219.710938 103.875 C 219.640625 104.054688 219.535156 104.210938 219.398438 104.34375 C 219.265625 104.480469 219.109375 104.585938 218.933594 104.65625 C 218.757812 104.730469 218.570312 104.765625 218.382812 104.765625 C 218.191406 104.765625 218.007812 104.730469 217.828125 104.65625 C 217.652344 104.585938 217.496094 104.480469 217.363281 104.34375 C 217.226562 104.210938 217.121094 104.054688 217.050781 103.875 C 216.976562 103.699219 216.941406 103.515625 216.941406 103.324219 C 216.941406 103.132812 216.976562 102.949219 217.050781 102.773438 C 217.125 102.59375 217.226562 102.441406 217.363281 102.304688 C 217.496094 102.167969 217.652344 102.066406 217.828125 101.992188 C 218.007812 101.917969 218.191406 101.882812 218.382812 101.882812 Z M 218.382812 101.882812 "/>
</g>
</svg>
