<?xml version="1.0" encoding="UTF-8"?>
<svg xmlns="http://www.w3.org/2000/svg" xmlns:xlink="http://www.w3.org/1999/xlink" width="375pt" height="374.999991pt" viewBox="0 0 375 374.999991" version="1.2">
<defs>
<clipPath id="clip1">
  <path d="M 262.304688 200 L 299.320312 200 L 299.320312 250.566406 L 262.304688 250.566406 Z M 262.304688 200 "/>
</clipPath>
</defs>
<g id="surface1">
<path style=" stroke:none;fill-rule:nonzero;fill:rgb(10.5896%,15.289307%,21.179199%);fill-opacity:1;" d="M 318.839844 91.5625 L 318.839844 298.683594 C 318.839844 314.042969 306.421875 326.460938 291.058594 326.460938 L 83.941406 326.460938 C 68.578125 326.460938 56.160156 314.042969 56.160156 298.683594 L 56.160156 91.5625 C 56.160156 76.203125 68.578125 63.78125 83.941406 63.78125 L 291.058594 63.78125 C 306.421875 63.78125 318.839844 76.203125 318.839844 91.5625 Z M 318.839844 91.5625 "/>
<path style=" stroke:none;fill-rule:nonzero;fill:rgb(31.369019%,78.42865%,47.059631%);fill-opacity:1;" d="M 80.28125 295.140625 C 79.808594 295.140625 79.339844 295.1875 78.875 295.28125 C 78.410156 295.371094 77.960938 295.507812 77.523438 295.691406 C 77.089844 295.871094 76.671875 296.09375 76.28125 296.355469 C 75.886719 296.617188 75.523438 296.917969 75.1875 297.25 C 74.855469 297.585938 74.554688 297.949219 74.292969 298.34375 C 74.03125 298.734375 73.808594 299.148438 73.628906 299.585938 C 73.445312 300.023438 73.3125 300.472656 73.21875 300.9375 C 73.125 301.402344 73.078125 301.871094 73.078125 302.34375 C 73.078125 302.816406 73.125 303.28125 73.21875 303.746094 C 73.3125 304.210938 73.445312 304.660156 73.628906 305.097656 C 73.808594 305.535156 74.03125 305.949219 74.292969 306.34375 C 74.554688 306.734375 74.855469 307.097656 75.1875 307.433594 C 75.523438 307.765625 75.886719 308.066406 76.28125 308.328125 C 76.671875 308.589844 77.089844 308.8125 77.523438 308.992188 C 77.960938 309.175781 78.410156 309.3125 78.875 309.402344 C 79.339844 309.496094 79.808594 309.542969 80.28125 309.542969 C 80.753906 309.542969 81.222656 309.496094 81.683594 309.402344 C 82.148438 309.3125 82.597656 309.175781 83.035156 308.992188 C 83.472656 308.8125 83.886719 308.589844 84.28125 308.328125 C 84.671875 308.066406 85.035156 307.765625 85.371094 307.433594 C 85.707031 307.097656 86.003906 306.734375 86.265625 306.34375 C 86.527344 305.949219 86.75 305.535156 86.933594 305.097656 C 87.113281 304.660156 87.25 304.210938 87.339844 303.746094 C 87.433594 303.28125 87.480469 302.816406 87.480469 302.34375 C 87.480469 301.871094 87.433594 301.402344 87.339844 300.9375 C 87.25 300.472656 87.113281 300.023438 86.933594 299.585938 C 86.75 299.148438 86.527344 298.734375 86.265625 298.34375 C 86.003906 297.949219 85.707031 297.585938 85.371094 297.25 C 85.035156 296.917969 84.671875 296.617188 84.28125 296.355469 C 83.886719 296.09375 83.472656 295.871094 83.035156 295.691406 C 82.597656 295.507812 82.148438 295.371094 81.683594 295.28125 C 81.222656 295.1875 80.753906 295.140625 80.28125 295.140625 Z M 80.28125 80.703125 C 79.808594 80.703125 79.339844 80.75 78.875 80.839844 C 78.410156 80.933594 77.960938 81.070312 77.523438 81.25 C 77.089844 81.429688 76.671875 81.652344 76.28125 81.914062 C 75.886719 82.179688 75.523438 82.476562 75.1875 82.8125 C 74.855469 83.144531 74.554688 83.507812 74.292969 83.902344 C 74.03125 84.292969 73.808594 84.710938 73.628906 85.148438 C 73.445312 85.582031 73.3125 86.035156 73.21875 86.496094 C 73.125 86.960938 73.078125 87.429688 73.078125 87.902344 C 73.078125 88.375 73.125 88.84375 73.21875 89.304688 C 73.3125 89.769531 73.445312 90.21875 73.628906 90.65625 C 73.808594 91.09375 74.03125 91.507812 74.292969 91.902344 C 74.554688 92.296875 74.855469 92.660156 75.1875 92.992188 C 75.523438 93.328125 75.886719 93.625 76.28125 93.886719 C 76.671875 94.152344 77.089844 94.371094 77.523438 94.554688 C 77.960938 94.734375 78.410156 94.871094 78.875 94.964844 C 79.339844 95.054688 79.808594 95.101562 80.28125 95.101562 C 80.753906 95.101562 81.222656 95.054688 81.683594 94.964844 C 82.148438 94.871094 82.597656 94.734375 83.035156 94.554688 C 83.472656 94.371094 83.886719 94.152344 84.28125 93.886719 C 84.671875 93.625 85.035156 93.328125 85.371094 92.992188 C 85.707031 92.660156 86.003906 92.296875 86.265625 91.902344 C 86.527344 91.507812 86.75 91.09375 86.933594 90.65625 C 87.113281 90.21875 87.25 89.769531 87.339844 89.304688 C 87.433594 88.84375 87.480469 88.375 87.480469 87.902344 C 87.480469 87.429688 87.433594 86.960938 87.339844 86.496094 C 87.25 86.035156 87.113281 85.582031 86.933594 85.148438 C 86.75 84.710938 86.527344 84.292969 86.265625 83.902344 C 86.003906 83.507812 85.707031 83.144531 85.371094 82.8125 C 85.035156 82.476562 84.671875 82.179688 84.28125 81.914062 C 83.886719 81.652344 83.472656 81.429688 83.035156 81.25 C 82.597656 81.070312 82.148438 80.933594 81.683594 80.839844 C 81.222656 80.75 80.753906 80.703125 80.28125 80.703125 Z M 294.71875 80.703125 C 294.246094 80.703125 293.777344 80.75 293.316406 80.839844 C 292.851562 80.933594 292.402344 81.070312 291.964844 81.25 C 291.527344 81.429688 291.113281 81.652344 290.71875 81.914062 C 290.328125 82.179688 289.964844 82.476562 289.628906 82.8125 C 289.292969 83.144531 288.996094 83.507812 288.734375 83.902344 C 288.472656 84.292969 288.25 84.710938 288.066406 85.148438 C 287.886719 85.582031 287.75 86.035156 287.660156 86.496094 C 287.566406 86.960938 287.519531 87.429688 287.519531 87.902344 C 287.519531 88.375 287.566406 88.84375 287.660156 89.304688 C 287.75 89.769531 287.886719 90.21875 288.066406 90.65625 C 288.25 91.09375 288.472656 91.507812 288.734375 91.902344 C 288.996094 92.296875 289.292969 92.660156 289.628906 92.992188 C 289.964844 93.328125 290.328125 93.625 290.71875 93.886719 C 291.113281 94.152344 291.527344 94.371094 291.964844 94.554688 C 292.402344 94.734375 292.851562 94.871094 293.316406 94.964844 C 293.777344 95.054688 294.246094 95.101562 294.71875 95.101562 C 295.191406 95.101562 295.660156 95.054688 296.125 94.964844 C 296.589844 94.871094 297.039062 94.734375 297.476562 94.554688 C 297.910156 94.371094 298.328125 94.152344 298.71875 93.886719 C 299.113281 93.625 299.476562 93.328125 299.8125 92.992188 C 300.144531 92.660156 300.445312 92.296875 300.707031 91.902344 C 300.96875 91.507812 301.191406 91.09375 301.371094 90.65625 C 301.554688 90.21875 301.6875 89.769531 301.78125 89.304688 C 301.875 88.84375 301.921875 88.375 301.921875 87.902344 C 301.921875 87.429688 301.875 86.960938 301.78125 86.496094 C 301.6875 86.035156 301.554688 85.582031 301.371094 85.148438 C 301.191406 84.710938 300.96875 84.292969 300.707031 83.902344 C 300.445312 83.507812 300.144531 83.144531 299.8125 82.8125 C 299.476562 82.476562 299.113281 82.179688 298.71875 81.914062 C 298.328125 81.652344 297.910156 81.429688 297.476562 81.25 C 297.039062 81.070312 296.589844 80.933594 296.125 80.839844 C 295.660156 80.75 295.191406 80.703125 294.71875 80.703125 Z M 294.71875 295.140625 C 294.246094 295.140625 293.777344 295.1875 293.316406 295.28125 C 292.851562 295.371094 292.402344 295.507812 291.964844 295.691406 C 291.527344 295.871094 291.113281 296.09375 290.71875 296.355469 C 290.328125 296.617188 289.964844 296.917969 289.628906 297.25 C 289.292969 297.585938 288.996094 297.949219 288.734375 298.34375 C 288.472656 298.734375 288.25 299.148438 288.066406 299.585938 C 287.886719 300.023438 287.75 300.472656 287.660156 300.9375 C 287.566406 301.402344 287.519531 301.871094 287.519531 302.34375 C 287.519531 302.816406 287.566406 303.28125 287.660156 303.746094 C 287.75 304.210938 287.886719 304.660156 288.066406 305.097656 C 288.25 305.535156 288.472656 305.949219 288.734375 306.34375 C 288.996094 306.734375 289.292969 307.097656 289.628906 307.433594 C 289.964844 307.765625 290.328125 308.066406 290.71875 308.328125 C 291.113281 308.589844 291.527344 308.8125 291.964844 308.992188 C 292.402344 309.175781 292.851562 309.3125 293.316406 309.402344 C 293.777344 309.496094 294.246094 309.542969 294.71875 309.542969 C 295.191406 309.542969 295.660156 309.496094 296.125 309.402344 C 296.589844 309.3125 297.039062 309.175781 297.476562 308.992188 C 297.910156 308.8125 298.328125 308.589844 298.71875 308.328125 C 299.113281 308.066406 299.476562 307.765625 299.8125 307.433594 C 300.144531 307.097656 300.445312 306.734375 300.707031 306.34375 C 300.96875 305.949219 301.191406 305.535156 301.371094 305.097656 C 301.554688 304.660156 301.6875 304.210938 301.78125 303.746094 C 301.875 303.28125 301.921875 302.816406 301.921875 302.34375 C 301.921875 301.871094 301.875 301.402344 301.78125 300.9375 C 301.6875 300.472656 301.554688 300.023438 301.371094 299.585938 C 301.191406 299.148438 300.96875 298.734375 300.707031 298.34375 C 300.445312 297.949219 300.144531 297.585938 299.8125 297.25 C 299.476562 296.917969 299.113281 296.617188 298.71875 296.355469 C 298.328125 296.09375 297.910156 295.871094 297.476562 295.691406 C 297.039062 295.507812 296.589844 295.371094 296.125 295.28125 C 295.660156 295.1875 295.191406 295.140625 294.71875 295.140625 Z M 294.71875 295.140625 "/>
<path style=" stroke:none;fill-rule:nonzero;fill:rgb(31.369019%,78.42865%,47.059631%);fill-opacity:1;" d="M 337.5 95.101562 L 337.5 71.820312 C 331.980469 69.722656 326.398438 66.121094 321.421875 61.203125 C 316.5 56.222656 312.898438 50.640625 310.800781 45.121094 L 64.199219 45.121094 C 62.101562 50.640625 58.5 56.222656 53.578125 61.203125 C 48.601562 66.121094 43.019531 69.722656 37.5 71.820312 L 37.5 318.421875 C 38.878906 318.960938 40.261719 319.5625 41.640625 320.28125 C 42 320.460938 42.300781 320.640625 42.660156 320.820312 C 42.898438 320.941406 43.140625 321.0625 43.378906 321.242188 C 43.441406 321.242188 43.5 321.300781 43.558594 321.363281 C 43.738281 321.421875 43.859375 321.542969 44.039062 321.660156 C 45.78125 322.742188 47.519531 323.941406 49.261719 325.261719 C 49.558594 325.5 49.859375 325.742188 50.160156 326.042969 C 50.398438 326.222656 50.578125 326.402344 50.761719 326.582031 C 51.359375 327.121094 51.960938 327.660156 52.558594 328.261719 C 52.859375 328.5625 53.160156 328.863281 53.519531 329.160156 C 53.820312 329.460938 54.121094 329.761719 54.421875 330.121094 C 54.960938 330.722656 55.558594 331.320312 56.101562 331.921875 C 56.28125 332.160156 56.460938 332.34375 56.640625 332.582031 L 57.359375 333.480469 C 57.539062 333.660156 57.660156 333.902344 57.839844 334.082031 C 58.140625 334.441406 58.441406 334.863281 58.738281 335.222656 C 59.101562 335.703125 59.398438 336.183594 59.699219 336.601562 C 60.601562 337.980469 61.441406 339.363281 62.21875 340.800781 C 62.339844 341.042969 62.460938 341.222656 62.519531 341.460938 L 62.699219 341.820312 C 62.820312 342.0625 62.941406 342.300781 63 342.480469 C 63.421875 343.382812 63.839844 344.28125 64.140625 345.242188 L 310.738281 345.242188 C 312.839844 339.722656 316.441406 334.140625 321.359375 329.160156 C 323.21875 327.300781 325.140625 325.621094 327.179688 324.183594 C 328.199219 323.460938 329.21875 322.742188 330.238281 322.140625 C 330.898438 321.722656 331.621094 321.300781 332.28125 320.941406 C 332.941406 320.582031 333.660156 320.222656 334.320312 319.863281 C 335.339844 319.382812 336.421875 318.902344 337.441406 318.542969 Z M 318.839844 298.683594 C 318.839844 314.042969 306.421875 326.460938 291.058594 326.460938 L 83.941406 326.460938 C 68.578125 326.460938 56.160156 314.042969 56.160156 298.683594 L 56.160156 91.5625 C 56.160156 76.203125 68.578125 63.78125 83.941406 63.78125 L 291.058594 63.78125 C 306.421875 63.78125 318.839844 76.203125 318.839844 91.5625 Z M 318.839844 298.683594 "/>
<path style=" stroke:none;fill-rule:nonzero;fill:rgb(31.369019%,78.42865%,47.059631%);fill-opacity:1;" d="M 203.160156 201.992188 C 200.761719 200.910156 197.9375 201.980469 196.855469 204.378906 C 195.777344 206.777344 196.84375 209.601562 199.246094 210.683594 C 205.175781 213.367188 210.535156 215.816406 214.726562 217.757812 C 218.9375 219.710938 222.035156 221.167969 223.484375 221.890625 C 229.667969 224.984375 235.109375 224.375 239.503906 221.683594 C 242.15625 220.0625 244.328125 217.683594 245.96875 214.9375 C 247.527344 212.328125 248.621094 209.371094 249.199219 206.4375 C 250.488281 199.867188 249.214844 193.027344 244.882812 189.363281 L 241.800781 193 L 244.886719 189.355469 C 244.734375 189.222656 244.574219 189.105469 244.40625 188.996094 C 207.449219 160.535156 191.328125 153.296875 166.707031 142.253906 L 165.472656 141.699219 C 159.476562 139.007812 152.652344 138.839844 146.070312 140.601562 C 140.734375 142.03125 135.515625 144.753906 131.042969 148.429688 C 126.554688 152.117188 122.804688 156.789062 120.414062 162.101562 C 117.617188 168.332031 116.691406 175.398438 118.605469 182.773438 L 123.863281 209.050781 L 85.226562 198.761719 L 85.226562 198.75 C 84.980469 198.683594 84.738281 198.640625 84.496094 198.613281 C 81.425781 198.152344 78.46875 198.734375 76.042969 200.132812 C 73.421875 201.644531 71.457031 204.089844 70.628906 207.207031 C 69.890625 209.980469 68.75 213.21875 67.644531 216.351562 C 67.226562 217.535156 66.816406 218.695312 66.097656 220.84375 L 66.078125 220.839844 C 66.058594 220.902344 66.039062 220.964844 66.019531 221.03125 C 64.714844 225.105469 65.054688 228.769531 66.460938 231.492188 C 67.390625 233.285156 68.773438 234.683594 70.488281 235.582031 C 72.183594 236.46875 74.132812 236.824219 76.203125 236.550781 C 79.414062 236.125 82.957031 234.136719 86.105469 230.117188 L 86.117188 230.128906 C 86.222656 229.992188 86.324219 229.851562 86.410156 229.710938 L 90.226562 224.640625 L 136.082031 238.53125 L 136.25 238.589844 L 136.246094 238.601562 C 136.285156 238.613281 136.328125 238.625 136.367188 238.632812 C 139.03125 239.578125 142.054688 239.730469 144.96875 239.152344 C 147.558594 238.636719 150.140625 237.523438 152.375 235.847656 C 154.667969 234.125 156.566406 231.816406 157.707031 228.949219 C 158.820312 226.152344 159.191406 222.910156 158.472656 219.300781 L 158.476562 219.296875 L 158.460938 219.234375 L 154.578125 190.867188 C 156.601562 191.734375 158.835938 192.699219 161.230469 193.742188 C 168.285156 196.820312 176.53125 200.472656 184.652344 204.101562 C 187.054688 205.175781 189.867188 204.097656 190.941406 201.699219 C 192.007812 199.300781 190.933594 196.484375 188.535156 195.417969 C 180.160156 191.667969 171.863281 187.992188 165.039062 185.019531 C 159.027344 182.398438 154.007812 180.253906 150.835938 178.976562 C 150.011719 178.570312 149.0625 178.398438 148.085938 178.53125 C 145.472656 178.886719 143.644531 181.296875 144 183.910156 L 144.015625 183.90625 L 149.023438 220.511719 C 149.035156 220.730469 149.0625 220.945312 149.105469 221.164062 L 153.789062 220.230469 L 149.105469 221.164062 C 149.449219 222.878906 149.316406 224.304688 148.867188 225.445312 C 148.414062 226.578125 147.628906 227.515625 146.664062 228.242188 C 145.636719 229.011719 144.394531 229.535156 143.101562 229.792969 C 141.847656 230.042969 140.636719 230.023438 139.664062 229.710938 C 139.457031 229.613281 139.242188 229.53125 139.015625 229.460938 L 139.011719 229.480469 L 90.226562 214.703125 C 88.269531 213.910156 85.945312 214.488281 84.613281 216.257812 L 88.429688 219.125 L 84.621094 216.273438 L 78.808594 223.992188 C 78.734375 224.074219 78.664062 224.160156 78.59375 224.246094 L 78.609375 224.257812 L 78.605469 224.261719 C 77.148438 226.121094 75.894531 226.996094 74.972656 227.117188 C 74.953125 227.121094 74.9375 227.121094 74.933594 227.125 C 74.621094 226.527344 74.628906 225.457031 75.097656 223.976562 C 75.113281 223.9375 75.125 223.898438 75.140625 223.855469 L 75.136719 223.855469 L 75.144531 223.839844 L 75.125 223.832031 C 75.351562 223.15625 75.988281 221.351562 76.632812 219.519531 C 77.789062 216.246094 78.984375 212.859375 79.84375 209.632812 C 79.988281 209.082031 80.34375 208.648438 80.820312 208.371094 C 81.394531 208.042969 82.167969 207.914062 83.046875 208.039062 L 128.5 220.140625 C 129.273438 220.40625 130.125 220.476562 130.984375 220.304688 C 133.570312 219.789062 135.246094 217.273438 134.730469 214.6875 L 134.726562 214.6875 L 127.980469 180.949219 C 127.953125 180.8125 127.921875 180.679688 127.890625 180.546875 L 127.882812 180.546875 C 126.492188 175.355469 127.136719 170.375 129.109375 165.980469 C 130.871094 162.054688 133.691406 158.566406 137.085938 155.777344 C 140.496094 152.976562 144.46875 150.898438 148.535156 149.8125 C 153.105469 148.589844 157.714844 148.644531 161.59375 150.386719 L 162.828125 150.9375 C 186.816406 161.703125 202.523438 168.753906 238.609375 196.546875 C 238.644531 196.578125 238.679688 196.609375 238.71875 196.644531 L 238.722656 196.636719 L 238.738281 196.644531 C 240.238281 197.929688 240.507812 201.171875 239.835938 204.609375 C 239.457031 206.539062 238.765625 208.433594 237.796875 210.054688 C 236.910156 211.539062 235.808594 212.777344 234.542969 213.554688 C 232.808594 214.613281 230.527344 214.785156 227.738281 213.390625 C 225.765625 212.402344 222.613281 210.910156 218.714844 209.105469 C 214.285156 207.054688 208.910156 204.597656 203.160156 201.992188 Z M 74.898438 227.144531 L 74.910156 227.148438 C 74.90625 227.152344 74.902344 227.15625 74.894531 227.152344 L 74.886719 227.152344 Z M 74.898438 227.144531 L 74.886719 227.152344 C 74.871094 227.140625 74.882812 227.144531 74.898438 227.144531 "/>
<path style=" stroke:none;fill-rule:nonzero;fill:rgb(31.369019%,78.42865%,47.059631%);fill-opacity:1;" d="M 204.464844 197.550781 C 204.972656 197.132812 205.269531 196.546875 205.332031 195.933594 C 205.386719 195.390625 205.261719 194.828125 204.9375 194.347656 C 204.835938 194.238281 204.746094 194.121094 204.65625 194.007812 C 204.253906 193.597656 203.734375 193.359375 203.191406 193.300781 C 202.644531 193.246094 202.082031 193.375 201.601562 193.699219 C 201.449219 193.832031 201.292969 193.957031 201.125 194.070312 L 175.5 214.917969 C 174.992188 215.335938 174.695312 215.921875 174.632812 216.535156 C 174.570312 217.148438 174.738281 217.785156 175.15625 218.300781 C 175.28125 218.449219 175.40625 218.574219 175.535156 218.675781 C 175.683594 218.789062 175.832031 218.882812 175.984375 218.953125 L 173.972656 223.261719 L 176 218.941406 C 176.175781 219.023438 176.34375 219.113281 176.503906 219.214844 L 211.035156 239.386719 L 208.632812 243.507812 L 211.039062 239.386719 C 211.113281 239.429688 211.183594 239.472656 211.253906 239.519531 C 211.765625 239.753906 212.324219 239.789062 212.84375 239.65625 C 213.359375 239.523438 213.828125 239.21875 214.160156 238.769531 C 214.234375 238.625 214.316406 238.484375 214.40625 238.351562 C 214.640625 237.839844 214.675781 237.273438 214.542969 236.757812 C 214.410156 236.242188 214.105469 235.773438 213.65625 235.445312 C 213.542969 235.386719 213.429688 235.320312 213.324219 235.253906 L 187.128906 219.949219 L 189.535156 215.828125 L 187.125 219.953125 C 184.847656 218.621094 184.082031 215.699219 185.414062 213.421875 C 185.777344 212.792969 186.265625 212.28125 186.832031 211.894531 Z M 214.808594 196.90625 C 214.496094 199.9375 213.023438 202.851562 210.46875 204.933594 L 197.875 215.175781 L 218.148438 227.019531 C 218.195312 227.042969 218.234375 227.066406 218.277344 227.09375 L 218.269531 227.109375 C 221.101562 228.773438 222.992188 231.425781 223.757812 234.371094 C 224.480469 237.152344 224.199219 240.195312 222.761719 242.914062 C 222.6875 243.074219 222.605469 243.234375 222.515625 243.386719 L 222.5 243.378906 C 220.832031 246.210938 218.179688 248.101562 215.234375 248.867188 C 212.449219 249.589844 209.40625 249.308594 206.6875 247.871094 C 206.53125 247.796875 206.375 247.71875 206.222656 247.628906 L 171.566406 227.382812 L 171.566406 227.378906 C 170.90625 227.035156 170.273438 226.636719 169.679688 226.171875 C 168.984375 225.625 168.339844 225.003906 167.773438 224.304688 C 165.691406 221.75 164.84375 218.597656 165.15625 215.566406 C 165.46875 212.53125 166.9375 209.613281 169.492188 207.535156 L 195.121094 186.6875 C 195.214844 186.597656 195.308594 186.515625 195.410156 186.433594 L 195.417969 186.445312 L 195.417969 186.441406 L 198.007812 189.628906 L 198.421875 190.136719 L 195.417969 186.441406 C 197.972656 184.363281 201.125 183.519531 204.160156 183.832031 C 207.039062 184.125 209.816406 185.46875 211.871094 187.789062 C 211.984375 187.90625 212.097656 188.027344 212.203125 188.15625 L 212.191406 188.164062 L 212.191406 188.167969 L 208.859375 190.875 L 208.5 191.167969 L 212.191406 188.167969 C 214.269531 190.722656 215.117188 193.871094 214.808594 196.90625 "/>
<path style=" stroke:none;fill-rule:nonzero;fill:rgb(31.369019%,78.42865%,47.059631%);fill-opacity:1;" d="M 269.03125 242.175781 C 267.527344 242.34375 265.996094 242.355469 264.457031 242.203125 C 262.796875 242.039062 261.148438 241.6875 259.542969 241.140625 L 261.074219 236.628906 L 261.023438 236.765625 L 259.542969 241.140625 L 259.53125 241.136719 L 259.527344 241.144531 C 259.421875 241.109375 259.316406 241.066406 259.214844 241.023438 C 253.660156 239.027344 249.394531 235 246.96875 230.0625 C 244.503906 225.03125 243.949219 219.074219 245.898438 213.375 L 250.410156 214.902344 L 250.277344 214.855469 L 245.898438 213.371094 L 245.902344 213.363281 L 245.894531 213.359375 C 245.929688 213.25 245.972656 213.144531 246.019531 213.039062 C 248.015625 207.488281 252.042969 203.226562 256.984375 200.804688 C 262.015625 198.335938 267.976562 197.785156 273.675781 199.734375 C 275.269531 200.28125 276.792969 201.015625 278.222656 201.910156 C 279.726562 202.851562 281.046875 203.902344 282.167969 205.039062 C 283.5625 206.445312 283.898438 208.503906 283.183594 210.226562 L 273.367188 238.933594 L 268.851562 237.402344 L 273.375 238.949219 C 272.714844 240.871094 270.953125 242.101562 269.03125 242.175781 Z M 265.390625 232.730469 L 265.414062 232.734375 L 273.199219 209.972656 L 273.1875 209.964844 C 272.429688 209.492188 271.574219 209.085938 270.617188 208.757812 C 267.371094 207.652344 263.996094 207.957031 261.160156 209.34375 C 258.398438 210.699219 256.140625 213.085938 255.007812 216.203125 C 254.964844 216.363281 254.910156 216.519531 254.847656 216.675781 C 253.832031 219.84375 254.160156 223.121094 255.515625 225.882812 C 256.867188 228.644531 259.257812 230.902344 262.371094 232.03125 C 262.535156 232.082031 262.695312 232.136719 262.855469 232.199219 C 263.714844 232.476562 264.5625 232.648438 265.390625 232.730469 "/>
<g clip-path="url(#clip1)" clip-rule="nonzero">
<path style=" stroke:none;fill-rule:nonzero;fill:rgb(31.369019%,78.42865%,47.059631%);fill-opacity:1;" d="M 298.957031 211.800781 L 286.8125 247.320312 L 282.296875 245.792969 L 286.816406 247.339844 C 285.960938 249.832031 283.25 251.160156 280.75 250.308594 C 280.660156 250.277344 280.570312 250.246094 280.480469 250.207031 L 266.164062 245.316406 L 267.691406 240.800781 L 266.148438 245.320312 C 263.652344 244.464844 262.320312 241.753906 263.171875 239.257812 C 263.203125 239.167969 263.242188 239.078125 263.277344 238.988281 L 275.421875 203.464844 L 279.9375 204.996094 L 275.417969 203.449219 C 276.269531 200.957031 278.984375 199.625 281.480469 200.476562 C 281.574219 200.511719 281.664062 200.542969 281.753906 200.582031 L 296.070312 205.472656 L 294.542969 209.984375 L 296.085938 205.46875 C 298.582031 206.320312 299.914062 209.035156 299.058594 211.53125 C 299.027344 211.621094 298.996094 211.710938 298.957031 211.800781 Z M 279.328125 239.742188 L 288.488281 212.953125 L 282.90625 211.042969 L 273.742188 237.835938 L 279.328125 239.742188 "/>
</g>
</g>
</svg>
