<?xml version="1.0" encoding="UTF-8"?>
<svg xmlns="http://www.w3.org/2000/svg" xmlns:xlink="http://www.w3.org/1999/xlink" width="375pt" height="374.999991pt" viewBox="0 0 375 374.999991" version="1.2">
<defs>
<clipPath id="clip1">
  <path d="M 109.484375 104 L 265.484375 104 L 265.484375 289 L 109.484375 289 Z M 109.484375 104 "/>
</clipPath>
</defs>
<g id="surface1">
<rect x="0" y="0" width="375" height="374.999991" style="fill:rgb(100%,100%,100%);fill-opacity:1;stroke:none;"/>
<rect x="0" y="0" width="375" height="374.999991" style="fill:rgb(100%,100%,100%);fill-opacity:1;stroke:none;"/>
<rect x="0" y="0" width="375" height="374.999991" style="fill:rgb(100%,100%,100%);fill-opacity:1;stroke:none;"/>
<path style=" stroke:none;fill-rule:nonzero;fill:rgb(10.5896%,15.289307%,21.179199%);fill-opacity:1;" d="M 318.839844 100.707031 L 318.839844 307.828125 C 318.839844 323.1875 306.421875 335.609375 291.058594 335.609375 L 83.941406 335.609375 C 68.578125 335.609375 56.160156 323.1875 56.160156 307.828125 L 56.160156 100.707031 C 56.160156 85.347656 68.578125 72.929688 83.941406 72.929688 L 291.058594 72.929688 C 306.421875 72.929688 318.839844 85.347656 318.839844 100.707031 Z M 318.839844 100.707031 "/>
<path style=" stroke:none;fill-rule:nonzero;fill:rgb(31.369019%,78.42865%,47.059631%);fill-opacity:1;" d="M 80.28125 304.289062 C 79.808594 304.289062 79.339844 304.335938 78.875 304.425781 C 78.410156 304.519531 77.960938 304.65625 77.523438 304.835938 C 77.089844 305.015625 76.671875 305.238281 76.28125 305.5 C 75.886719 305.765625 75.523438 306.0625 75.1875 306.398438 C 74.855469 306.730469 74.554688 307.09375 74.292969 307.488281 C 74.03125 307.882812 73.808594 308.296875 73.628906 308.734375 C 73.445312 309.167969 73.3125 309.621094 73.21875 310.082031 C 73.125 310.546875 73.078125 311.015625 73.078125 311.488281 C 73.078125 311.960938 73.125 312.429688 73.21875 312.894531 C 73.3125 313.355469 73.445312 313.808594 73.628906 314.242188 C 73.808594 314.679688 74.03125 315.09375 74.292969 315.488281 C 74.554688 315.882812 74.855469 316.246094 75.1875 316.578125 C 75.523438 316.914062 75.886719 317.210938 76.28125 317.476562 C 76.671875 317.738281 77.089844 317.960938 77.523438 318.140625 C 77.960938 318.320312 78.410156 318.457031 78.875 318.550781 C 79.339844 318.640625 79.808594 318.6875 80.28125 318.6875 C 80.753906 318.6875 81.222656 318.640625 81.683594 318.550781 C 82.148438 318.457031 82.597656 318.320312 83.035156 318.140625 C 83.472656 317.960938 83.886719 317.738281 84.28125 317.476562 C 84.671875 317.210938 85.035156 316.914062 85.371094 316.578125 C 85.707031 316.246094 86.003906 315.882812 86.265625 315.488281 C 86.527344 315.09375 86.75 314.679688 86.933594 314.242188 C 87.113281 313.808594 87.25 313.355469 87.339844 312.894531 C 87.433594 312.429688 87.480469 311.960938 87.480469 311.488281 C 87.480469 311.015625 87.433594 310.546875 87.339844 310.082031 C 87.25 309.621094 87.113281 309.167969 86.933594 308.734375 C 86.75 308.296875 86.527344 307.882812 86.265625 307.488281 C 86.003906 307.09375 85.707031 306.730469 85.371094 306.398438 C 85.035156 306.0625 84.671875 305.765625 84.28125 305.5 C 83.886719 305.238281 83.472656 305.015625 83.035156 304.835938 C 82.597656 304.65625 82.148438 304.519531 81.683594 304.425781 C 81.222656 304.335938 80.753906 304.289062 80.28125 304.289062 Z M 80.28125 89.847656 C 79.808594 89.847656 79.339844 89.894531 78.875 89.988281 C 78.410156 90.078125 77.960938 90.214844 77.523438 90.394531 C 77.089844 90.578125 76.671875 90.800781 76.28125 91.0625 C 75.886719 91.324219 75.523438 91.621094 75.1875 91.957031 C 74.855469 92.292969 74.554688 92.65625 74.292969 93.046875 C 74.03125 93.441406 73.808594 93.855469 73.628906 94.292969 C 73.445312 94.730469 73.3125 95.179688 73.21875 95.644531 C 73.125 96.105469 73.078125 96.574219 73.078125 97.046875 C 73.078125 97.519531 73.125 97.988281 73.21875 98.453125 C 73.3125 98.917969 73.445312 99.367188 73.628906 99.804688 C 73.808594 100.242188 74.03125 100.65625 74.292969 101.046875 C 74.554688 101.441406 74.855469 101.804688 75.1875 102.140625 C 75.523438 102.472656 75.886719 102.773438 76.28125 103.035156 C 76.671875 103.296875 77.089844 103.519531 77.523438 103.699219 C 77.960938 103.882812 78.410156 104.019531 78.875 104.109375 C 79.339844 104.203125 79.808594 104.25 80.28125 104.25 C 80.753906 104.25 81.222656 104.203125 81.683594 104.109375 C 82.148438 104.019531 82.597656 103.882812 83.035156 103.699219 C 83.472656 103.519531 83.886719 103.296875 84.28125 103.035156 C 84.671875 102.773438 85.035156 102.472656 85.371094 102.140625 C 85.707031 101.804688 86.003906 101.441406 86.265625 101.046875 C 86.527344 100.65625 86.75 100.242188 86.933594 99.804688 C 87.113281 99.367188 87.25 98.917969 87.339844 98.453125 C 87.433594 97.988281 87.480469 97.519531 87.480469 97.046875 C 87.480469 96.574219 87.433594 96.105469 87.339844 95.644531 C 87.25 95.179688 87.113281 94.730469 86.933594 94.292969 C 86.75 93.855469 86.527344 93.441406 86.265625 93.046875 C 86.003906 92.65625 85.707031 92.292969 85.371094 91.957031 C 85.035156 91.621094 84.671875 91.324219 84.28125 91.0625 C 83.886719 90.800781 83.472656 90.578125 83.035156 90.394531 C 82.597656 90.214844 82.148438 90.078125 81.683594 89.988281 C 81.222656 89.894531 80.753906 89.847656 80.28125 89.847656 Z M 294.71875 89.847656 C 294.246094 89.847656 293.777344 89.894531 293.316406 89.988281 C 292.851562 90.078125 292.402344 90.214844 291.964844 90.394531 C 291.527344 90.578125 291.113281 90.800781 290.71875 91.0625 C 290.328125 91.324219 289.964844 91.621094 289.628906 91.957031 C 289.292969 92.292969 288.996094 92.65625 288.734375 93.046875 C 288.472656 93.441406 288.25 93.855469 288.066406 94.292969 C 287.886719 94.730469 287.75 95.179688 287.660156 95.644531 C 287.566406 96.105469 287.519531 96.574219 287.519531 97.046875 C 287.519531 97.519531 287.566406 97.988281 287.660156 98.453125 C 287.75 98.917969 287.886719 99.367188 288.066406 99.804688 C 288.25 100.242188 288.472656 100.65625 288.734375 101.046875 C 288.996094 101.441406 289.292969 101.804688 289.628906 102.140625 C 289.964844 102.472656 290.328125 102.773438 290.71875 103.035156 C 291.113281 103.296875 291.527344 103.519531 291.964844 103.699219 C 292.402344 103.882812 292.851562 104.019531 293.316406 104.109375 C 293.777344 104.203125 294.246094 104.25 294.71875 104.25 C 295.191406 104.25 295.660156 104.203125 296.125 104.109375 C 296.589844 104.019531 297.039062 103.882812 297.476562 103.699219 C 297.910156 103.519531 298.328125 103.296875 298.71875 103.035156 C 299.113281 102.773438 299.476562 102.472656 299.8125 102.140625 C 300.144531 101.804688 300.445312 101.441406 300.707031 101.046875 C 300.96875 100.65625 301.191406 100.242188 301.371094 99.804688 C 301.554688 99.367188 301.6875 98.917969 301.78125 98.453125 C 301.875 97.988281 301.921875 97.519531 301.921875 97.046875 C 301.921875 96.574219 301.875 96.105469 301.78125 95.644531 C 301.6875 95.179688 301.554688 94.730469 301.371094 94.292969 C 301.191406 93.855469 300.96875 93.441406 300.707031 93.046875 C 300.445312 92.65625 300.144531 92.292969 299.8125 91.957031 C 299.476562 91.621094 299.113281 91.324219 298.71875 91.0625 C 298.328125 90.800781 297.910156 90.578125 297.476562 90.394531 C 297.039062 90.214844 296.589844 90.078125 296.125 89.988281 C 295.660156 89.894531 295.191406 89.847656 294.71875 89.847656 Z M 294.71875 304.289062 C 294.246094 304.289062 293.777344 304.335938 293.316406 304.425781 C 292.851562 304.519531 292.402344 304.65625 291.964844 304.835938 C 291.527344 305.015625 291.113281 305.238281 290.71875 305.5 C 290.328125 305.765625 289.964844 306.0625 289.628906 306.398438 C 289.292969 306.730469 288.996094 307.09375 288.734375 307.488281 C 288.472656 307.882812 288.25 308.296875 288.066406 308.734375 C 287.886719 309.167969 287.75 309.621094 287.660156 310.082031 C 287.566406 310.546875 287.519531 311.015625 287.519531 311.488281 C 287.519531 311.960938 287.566406 312.429688 287.660156 312.894531 C 287.75 313.355469 287.886719 313.808594 288.066406 314.242188 C 288.25 314.679688 288.472656 315.09375 288.734375 315.488281 C 288.996094 315.882812 289.292969 316.246094 289.628906 316.578125 C 289.964844 316.914062 290.328125 317.210938 290.71875 317.476562 C 291.113281 317.738281 291.527344 317.960938 291.964844 318.140625 C 292.402344 318.320312 292.851562 318.457031 293.316406 318.550781 C 293.777344 318.640625 294.246094 318.6875 294.71875 318.6875 C 295.191406 318.6875 295.660156 318.640625 296.125 318.550781 C 296.589844 318.457031 297.039062 318.320312 297.476562 318.140625 C 297.910156 317.960938 298.328125 317.738281 298.71875 317.476562 C 299.113281 317.210938 299.476562 316.914062 299.8125 316.578125 C 300.144531 316.246094 300.445312 315.882812 300.707031 315.488281 C 300.96875 315.09375 301.191406 314.679688 301.371094 314.242188 C 301.554688 313.808594 301.6875 313.355469 301.78125 312.894531 C 301.875 312.429688 301.921875 311.960938 301.921875 311.488281 C 301.921875 311.015625 301.875 310.546875 301.78125 310.082031 C 301.6875 309.621094 301.554688 309.167969 301.371094 308.734375 C 301.191406 308.296875 300.96875 307.882812 300.707031 307.488281 C 300.445312 307.09375 300.144531 306.730469 299.8125 306.398438 C 299.476562 306.0625 299.113281 305.765625 298.71875 305.5 C 298.328125 305.238281 297.910156 305.015625 297.476562 304.835938 C 297.039062 304.65625 296.589844 304.519531 296.125 304.425781 C 295.660156 304.335938 295.191406 304.289062 294.71875 304.289062 Z M 294.71875 304.289062 "/>
<path style=" stroke:none;fill-rule:nonzero;fill:rgb(31.369019%,78.42865%,47.059631%);fill-opacity:1;" d="M 337.5 104.25 L 337.5 80.96875 C 331.980469 78.867188 326.398438 75.269531 321.421875 70.347656 C 316.5 65.367188 312.898438 59.789062 310.800781 54.269531 L 64.199219 54.269531 C 62.101562 59.789062 58.5 65.367188 53.578125 70.347656 C 48.601562 75.269531 43.019531 78.867188 37.5 80.96875 L 37.5 327.566406 C 38.878906 328.109375 40.261719 328.707031 41.640625 329.429688 C 42 329.609375 42.300781 329.789062 42.660156 329.96875 C 42.898438 330.089844 43.140625 330.207031 43.378906 330.386719 C 43.441406 330.386719 43.5 330.449219 43.558594 330.507812 C 43.738281 330.566406 43.859375 330.6875 44.039062 330.808594 C 45.78125 331.886719 47.519531 333.089844 49.261719 334.410156 C 49.558594 334.648438 49.859375 334.886719 50.160156 335.1875 C 50.398438 335.367188 50.578125 335.546875 50.761719 335.726562 C 51.359375 336.269531 51.960938 336.808594 52.558594 337.410156 C 52.859375 337.707031 53.160156 338.007812 53.519531 338.308594 C 53.820312 338.609375 54.121094 338.910156 54.421875 339.269531 C 54.960938 339.867188 55.558594 340.46875 56.101562 341.066406 C 56.28125 341.308594 56.460938 341.488281 56.640625 341.726562 L 57.359375 342.628906 C 57.539062 342.808594 57.660156 343.046875 57.839844 343.226562 C 58.140625 343.589844 58.441406 344.007812 58.738281 344.367188 C 59.101562 344.847656 59.398438 345.328125 59.699219 345.75 C 60.601562 347.128906 61.441406 348.507812 62.21875 349.949219 C 62.339844 350.1875 62.460938 350.367188 62.519531 350.609375 L 62.699219 350.96875 C 62.820312 351.207031 62.941406 351.449219 63 351.628906 C 63.421875 352.527344 63.839844 353.429688 64.140625 354.386719 L 310.738281 354.386719 C 312.839844 348.867188 316.441406 343.289062 321.359375 338.308594 C 323.21875 336.449219 325.140625 334.769531 327.179688 333.328125 C 328.199219 332.609375 329.21875 331.886719 330.238281 331.289062 C 330.898438 330.867188 331.621094 330.449219 332.28125 330.089844 C 332.941406 329.726562 333.660156 329.367188 334.320312 329.007812 C 335.339844 328.527344 336.421875 328.046875 337.441406 327.6875 Z M 318.839844 307.828125 C 318.839844 323.1875 306.421875 335.609375 291.058594 335.609375 L 83.941406 335.609375 C 68.578125 335.609375 56.160156 323.1875 56.160156 307.828125 L 56.160156 100.707031 C 56.160156 85.347656 68.578125 72.929688 83.941406 72.929688 L 291.058594 72.929688 C 306.421875 72.929688 318.839844 85.347656 318.839844 100.707031 Z M 318.839844 307.828125 "/>
<g clip-path="url(#clip1)" clip-rule="nonzero">
<path style=" stroke:none;fill-rule:nonzero;fill:rgb(31.369019%,78.42865%,47.059631%);fill-opacity:1;" d="M 254.847656 218.816406 L 254.847656 200.359375 C 254.84375 195.03125 253.792969 189.921875 251.691406 185.023438 L 237.121094 151.265625 C 238.226562 150.277344 239.089844 149.109375 239.703125 147.757812 C 240.320312 146.410156 240.640625 144.992188 240.664062 143.507812 C 240.664062 142.8125 240.597656 142.121094 240.460938 141.433594 C 240.324219 140.75 240.121094 140.085938 239.855469 139.441406 C 239.585938 138.796875 239.261719 138.183594 238.871094 137.605469 C 238.484375 137.023438 238.042969 136.488281 237.550781 135.996094 C 237.054688 135.5 236.519531 135.058594 235.9375 134.671875 C 235.355469 134.285156 234.742188 133.957031 234.097656 133.691406 C 233.453125 133.421875 232.789062 133.222656 232.101562 133.085938 C 231.417969 132.949219 230.726562 132.882812 230.027344 132.882812 L 227.511719 132.882812 C 225.390625 126.839844 222.082031 121.539062 217.582031 116.976562 C 216.953125 116.347656 216.300781 115.738281 215.628906 115.148438 C 214.957031 114.558594 214.269531 113.988281 213.5625 113.445312 C 212.855469 112.898438 212.132812 112.375 211.394531 111.875 C 210.65625 111.371094 209.898438 110.894531 209.128906 110.441406 C 208.359375 109.988281 207.578125 109.5625 206.78125 109.15625 C 205.984375 108.753906 205.175781 108.375 204.355469 108.019531 C 203.535156 107.667969 202.703125 107.339844 201.863281 107.039062 C 201.019531 106.738281 200.171875 106.464844 199.3125 106.21875 C 198.453125 105.972656 197.589844 105.75 196.71875 105.558594 C 195.84375 105.367188 194.96875 105.199219 194.085938 105.0625 C 193.203125 104.925781 192.316406 104.816406 191.425781 104.734375 C 190.535156 104.652344 189.644531 104.597656 188.753906 104.574219 C 187.859375 104.546875 186.964844 104.550781 186.074219 104.582031 C 185.179688 104.609375 184.289062 104.667969 183.402344 104.753906 C 182.511719 104.84375 181.625 104.957031 180.742188 105.097656 C 179.863281 105.242188 178.984375 105.410156 178.113281 105.609375 C 177.242188 105.804688 176.378906 106.03125 175.523438 106.28125 C 174.664062 106.535156 173.816406 106.8125 172.976562 107.117188 C 172.136719 107.421875 171.308594 107.753906 170.488281 108.113281 C 169.671875 108.46875 168.863281 108.851562 168.070312 109.261719 C 167.277344 109.667969 166.496094 110.101562 165.726562 110.558594 C 164.960938 111.015625 164.207031 111.496094 163.472656 112.003906 C 162.734375 112.507812 162.015625 113.035156 161.3125 113.585938 C 160.605469 114.132812 159.921875 114.707031 159.253906 115.300781 C 158.585938 115.890625 157.9375 116.503906 157.308594 117.140625 C 156.679688 117.773438 156.070312 118.425781 155.484375 119.097656 C 154.898438 119.769531 154.332031 120.460938 153.785156 121.167969 C 153.242188 121.878906 152.722656 122.601562 152.222656 123.34375 C 151.722656 124.082031 151.25 124.839844 150.796875 125.609375 C 150.347656 126.378906 149.921875 127.164062 149.519531 127.960938 C 149.117188 128.757812 148.742188 129.566406 148.390625 130.386719 C 148.042969 131.210938 147.71875 132.039062 147.417969 132.882812 L 144.9375 132.882812 C 144.238281 132.882812 143.546875 132.949219 142.863281 133.085938 C 142.175781 133.222656 141.511719 133.421875 140.867188 133.691406 C 140.222656 133.957031 139.609375 134.285156 139.027344 134.671875 C 138.449219 135.058594 137.910156 135.5 137.417969 135.996094 C 136.921875 136.488281 136.480469 137.023438 136.09375 137.605469 C 135.707031 138.183594 135.378906 138.796875 135.109375 139.441406 C 134.84375 140.085938 134.640625 140.75 134.503906 141.433594 C 134.371094 142.121094 134.300781 142.8125 134.300781 143.507812 C 134.324219 144.992188 134.644531 146.410156 135.261719 147.757812 C 135.878906 149.109375 136.738281 150.277344 137.847656 151.265625 L 123.382812 185.023438 C 121.242188 189.914062 120.15625 195.027344 120.121094 200.359375 L 120.121094 218.816406 C 118.480469 219.957031 116.996094 221.277344 115.675781 222.777344 C 114.355469 224.273438 113.230469 225.910156 112.304688 227.679688 C 111.378906 229.449219 110.679688 231.304688 110.199219 233.242188 C 109.722656 235.183594 109.484375 237.152344 109.484375 239.148438 L 109.484375 285.199219 C 109.484375 285.667969 109.574219 286.117188 109.753906 286.554688 C 109.933594 286.988281 110.1875 287.371094 110.519531 287.703125 C 110.855469 288.035156 111.238281 288.289062 111.671875 288.46875 C 112.105469 288.648438 112.558594 288.738281 113.027344 288.738281 L 144.9375 288.738281 L 144.9375 249.773438 L 152.027344 249.773438 L 152.027344 288.738281 L 222.9375 288.738281 L 222.9375 249.773438 L 230.027344 249.773438 L 230.027344 288.738281 L 261.9375 288.738281 C 262.40625 288.738281 262.859375 288.648438 263.292969 288.46875 C 263.730469 288.289062 264.113281 288.035156 264.445312 287.703125 C 264.777344 287.371094 265.03125 286.988281 265.214844 286.554688 C 265.394531 286.117188 265.484375 285.667969 265.484375 285.199219 L 265.484375 239.148438 C 265.480469 237.152344 265.242188 235.183594 264.765625 233.242188 C 264.289062 231.304688 263.585938 229.449219 262.660156 227.679688 C 261.734375 225.910156 260.609375 224.273438 259.289062 222.777344 C 257.96875 221.277344 256.488281 219.957031 254.847656 218.816406 Z M 183.9375 249.773438 L 183.9375 242.691406 L 191.027344 242.691406 L 191.027344 249.773438 Z M 191.027344 256.859375 L 191.027344 263.945312 L 183.9375 263.945312 L 183.9375 256.859375 Z M 187.484375 203.726562 C 191.101562 203.726562 194.648438 203.21875 198.121094 202.203125 L 198.121094 214.351562 L 176.847656 214.351562 L 176.847656 202.238281 C 180.324219 203.222656 183.867188 203.71875 187.484375 203.726562 Z M 245.167969 187.785156 C 246.878906 191.804688 247.742188 195.996094 247.753906 200.359375 L 247.753906 215.378906 C 245.441406 214.707031 243.078125 214.363281 240.664062 214.351562 L 205.210938 214.351562 L 205.210938 199.441406 C 206.800781 198.628906 208.332031 197.710938 209.796875 196.691406 C 211.261719 195.667969 212.652344 194.550781 213.964844 193.339844 C 215.277344 192.125 216.5 190.828125 217.632812 189.449219 C 218.765625 188.070312 219.800781 186.617188 220.734375 185.09375 C 221.667969 183.570312 222.496094 181.992188 223.210938 180.355469 C 223.925781 178.71875 224.527344 177.042969 225.015625 175.324219 C 225.5 173.605469 225.867188 171.863281 226.113281 170.09375 C 226.359375 168.324219 226.480469 166.546875 226.484375 164.761719 L 226.484375 154.136719 L 230.703125 154.136719 Z M 144.9375 139.964844 L 230.027344 139.964844 C 230.5 139.964844 230.949219 140.054688 231.386719 140.234375 C 231.820312 140.414062 232.203125 140.671875 232.535156 141.003906 C 232.867188 141.335938 233.125 141.71875 233.304688 142.152344 C 233.484375 142.585938 233.574219 143.039062 233.574219 143.507812 C 233.574219 143.976562 233.484375 144.429688 233.304688 144.863281 C 233.125 145.296875 232.867188 145.679688 232.535156 146.011719 C 232.203125 146.34375 231.820312 146.601562 231.386719 146.78125 C 230.949219 146.960938 230.5 147.050781 230.027344 147.050781 L 144.9375 147.050781 C 144.46875 147.050781 144.015625 146.960938 143.582031 146.78125 C 143.144531 146.601562 142.761719 146.34375 142.429688 146.011719 C 142.097656 145.679688 141.84375 145.296875 141.660156 144.863281 C 141.480469 144.429688 141.390625 143.976562 141.390625 143.507812 C 141.390625 143.039062 141.480469 142.585938 141.660156 142.152344 C 141.84375 141.71875 142.097656 141.335938 142.429688 141.003906 C 142.761719 140.671875 143.144531 140.414062 143.582031 140.234375 C 144.015625 140.054688 144.46875 139.964844 144.9375 139.964844 Z M 127.210938 200.183594 C 127.222656 195.816406 128.085938 191.625 129.796875 187.609375 L 144.265625 154.136719 L 148.484375 154.136719 L 148.484375 164.761719 C 148.472656 167.320312 148.71875 169.859375 149.214844 172.371094 C 149.707031 174.882812 150.445312 177.320312 151.425781 179.683594 C 152.40625 182.050781 153.609375 184.296875 155.035156 186.421875 C 156.460938 188.550781 158.082031 190.515625 159.898438 192.320312 C 162.8125 195.195312 166.101562 197.558594 169.753906 199.40625 L 169.753906 214.351562 L 134.300781 214.351562 C 131.890625 214.363281 129.527344 214.707031 127.210938 215.378906 Z M 127.210938 200.183594 "/>
</g>
</g>
</svg>
